<svg xmlns="http://www.w3.org/2000/svg" viewBox="0 0 101.7 101.7">
  <title>Asset 12</title>
  <g id="Layer_2" data-name="Layer 2">
    <g id="Layer_1-2" data-name="Layer 1">
      <path d="M101.7,50.85A50.85,50.85,0,1,1,50.85,0,50.85,50.85,0,0,1,101.7,50.85" fill="#006cad"/>
      <circle cx="50.85" cy="50.85" r="45.76" transform="translate(-15.59 23.33) rotate(-22.5)" fill="none" stroke="#fff" stroke-miterlimit="10"/>
      <path d="M49.78,22.4l-15.9,16L37.49,42c1.28,1.29,1.69,1.1,2.39.41s.53-3,2.65-3.6c1.16-.34,2.75.38,3.89,1.57s1.9,2.74,1.56,3.9c-.62,2.13-2.81,1.9-3.58,2.66s-.88,1.12.4,2.41l5,5,4.75-4.77c1.28-1.28,1.7-1.1,2.39-.4s.53,3,2.65,3.59c1.17.35,2.75-.37,3.9-1.56s1.9-2.74,1.56-3.91c-.62-2.13-2.82-1.9-3.58-2.66s-.88-1.12.4-2.4l3.83-3.85Z" fill="none" stroke="#fff" stroke-miterlimit="10"/>
      <path d="M53,57.63,66.73,71.39,70.08,68c1.19-1.2,1-1.58.37-2.23s-2.75-.5-3.33-2.47c-.31-1.09.35-2.56,1.45-3.63s2.54-1.78,3.62-1.46c2,.58,1.75,2.63,2.46,3.34s1,.82,2.23-.37l4.6-4.62-4.42-4.43c-1.19-1.19-1-1.58-.37-2.23s2.75-.49,3.32-2.47c.32-1.09-.35-2.56-1.45-3.63S76,42.05,74.94,42.37C73,43,73.19,45,72.48,45.71s-1,.82-2.22-.37l-1.78-1.79" fill="none" stroke="#fff" stroke-miterlimit="10"/>
      <path d="M36.49,80.51l15.9-16-3.61-3.62c-1.27-1.29-1.69-1.1-2.39-.4s-.53,3-2.65,3.59c-1.16.34-2.74-.38-3.89-1.57s-1.9-2.73-1.56-3.9c.62-2.13,2.82-1.9,3.58-2.66s.88-1.12-.4-2.4l-5-5-4.75,4.77c-1.28,1.28-1.69,1.1-2.39.4s-.53-3-2.65-3.59c-1.17-.34-2.75.38-3.89,1.57s-1.91,2.73-1.57,3.9c.63,2.13,2.82,1.9,3.59,2.66s.87,1.12-.4,2.4l-3.84,3.85Z" fill="none" stroke="#fff" stroke-miterlimit="10"/>
    </g>
  </g>
</svg>
