<svg xmlns="http://www.w3.org/2000/svg" viewBox="0 0 101.7 101.7">
  <title>Asset 16</title>
  <g id="Layer_2" data-name="Layer 2">
    <g id="Layer_1-2" data-name="Layer 1">
      <path d="M101.7,50.85A50.85,50.85,0,1,1,50.85,0,50.85,50.85,0,0,1,101.7,50.85" fill="#006cad"/>
      <path d="M50.85,96.61A45.77,45.77,0,1,1,96.62,50.85,45.77,45.77,0,0,1,50.85,96.61Z" fill="none" stroke="#fff" stroke-miterlimit="10"/>
      <rect x="25.03" y="34.32" width="52.83" height="38.42" rx="2.4" fill="none" stroke="#fff" stroke-miterlimit="10"/>
      <path d="M44.24,34.32v-4.8a1.21,1.21,0,0,1,1.2-1.21h12a1.21,1.21,0,0,1,1.2,1.21v4.8" fill="none" stroke="#fff" stroke-miterlimit="10"/>
      <path d="M54,60.73h-5.2a1,1,0,0,1-1-1v-7.4H55v7.4A1,1,0,0,1,54,60.73Z" fill="none" stroke="#fff" stroke-miterlimit="10"/>
      <path d="M47.84,57.13H31a6,6,0,0,1-6-6" fill="none" stroke="#fff" stroke-miterlimit="10"/>
      <path d="M77.86,51.13a6,6,0,0,1-6,6H55.05" fill="none" stroke="#fff" stroke-miterlimit="10"/>
    </g>
  </g>
</svg>
