<svg xmlns="http://www.w3.org/2000/svg" viewBox="0 0 101.7 101.7">
  <title>Asset 14</title>
  <g id="Layer_2" data-name="Layer 2">
    <g id="Layer_1-2" data-name="Layer 1">
      <path d="M101.7,50.85A50.85,50.85,0,1,1,50.85,0,50.85,50.85,0,0,1,101.7,50.85" fill="#006cad"/>
      <circle cx="50.85" cy="50.85" r="45.76" transform="translate(-15.59 23.33) rotate(-22.5)" fill="none" stroke="#fff" stroke-miterlimit="10"/>
      <path d="M56.66,63.93,42.09,66.2s0,6.36,5.09,6.36H65c3.82,0,5.1-3.82,5.1-3.82s1.16-1.85-2-4.5C64.28,61,58,56.65,58,56.65l-.63-8.27" fill="none" stroke="#fff" stroke-miterlimit="10"/>
      <path d="M38.9,53.47,35.41,55.6c-5.15,3.28-8-2.13-8-2.13l8.91-6.36,4.65-6c2.91-3.92,5.74-4.16,10-4.16s7.08.24,10,4.16l4.65,6,8.91,6.36s-2.81,5.41-8,2.13l-3.49-2.13" fill="none" stroke="#fff" stroke-miterlimit="10"/>
      <path d="M57.36,26.74A6.37,6.37,0,1,1,51,20.38,6.37,6.37,0,0,1,57.36,26.74Z" fill="none" stroke="#fff" stroke-miterlimit="10"/>
      <path d="M39.54,72.56H37c-3.81,0-5.09-3.82-5.09-3.82s-1.16-1.85,2-4.51C37.71,61,44,56.65,44,56.65l.64-8.27" fill="none" stroke="#fff" stroke-miterlimit="10"/>
    </g>
  </g>
</svg>
