<svg xmlns="http://www.w3.org/2000/svg" viewBox="0 0 604.95 604.95">
  <title>Asset 7</title>
  <g id="Layer_2" data-name="Layer 2">
    <g id="Layer_1-2" data-name="Layer 1">
      <path d="M604,302.48C604,136,469,1,302.48,1S1,136,1,302.48,136,604,302.48,604,604,469,604,302.48" fill="#fff"/>
      <circle cx="302.48" cy="302.48" r="301.5" fill="none" stroke="#fff" stroke-miterlimit="10" stroke-width="1.95"/>
      <path d="M302.47,303.6l-108.29-268c36-14.53,69.49-21.05,108.29-21.05Z" fill="#b3ceec"/>
      <path d="M302.47,303.6l-108.29-268c36-14.53,69.49-21.05,108.29-21.05Z" fill="none" stroke="#fff" stroke-miterlimit="10"/>
      <path d="M302.47,303.6,91,106.44c30.06-32.22,62.28-54.37,103.14-70.88Z" fill="#6fabdd"/>
      <path d="M302.47,303.6,91,106.44c30.06-32.22,62.28-54.37,103.14-70.88Z" fill="none" stroke="#fff" stroke-miterlimit="10"/>
      <path d="M302.47,303.6,13.77,288.47C17.46,218.16,43,157.94,91,106.44Z" fill="#60a4da"/>
      <path d="M302.47,303.6,13.77,288.47C17.46,218.16,43,157.94,91,106.44Z" fill="none" stroke="#fff" stroke-miterlimit="10"/>
      <path d="M302.47,303.6,120.54,528.27C46.59,468.39,8.79,383.5,13.77,288.47Z" fill="#509fd7"/>
      <path d="M302.47,303.6,120.54,528.27C46.59,468.39,8.79,383.5,13.77,288.47Z" fill="none" stroke="#fff" stroke-miterlimit="10"/>
      <path d="M302.47,303.6l89.34,274.95c-97.19,31.57-191.86,14-271.27-50.28Z" fill="#3998d4"/>
      <path d="M302.47,303.6l89.34,274.95c-97.19,31.57-191.86,14-271.27-50.28Z" fill="none" stroke="#fff" stroke-miterlimit="10"/>
      <path d="M302.47,303.6l286.28-40.23C608.37,403,525.89,535,391.81,578.55Z" fill="#2f3669"/>
      <path d="M302.47,303.6l286.28-40.23C608.37,403,525.89,535,391.81,578.55Z" fill="none" stroke="#fff" stroke-miterlimit="10"/>
      <path d="M302.47,303.6V14.51c146.41,0,265.9,103.88,286.28,248.86Z" fill="#242e64"/>
      <path d="M302.47,303.6V14.51c146.41,0,265.9,103.88,286.28,248.86Z" fill="none" stroke="#fff" stroke-miterlimit="10"/>
      <path d="M504.44,302.46c0-111.54-90.43-202-202-202s-202,90.42-202,202,90.42,202,202,202,202-90.42,202-202" fill="#fff"/>
      <circle cx="302.48" cy="302.46" r="201.96" transform="translate(-125.28 302.47) rotate(-45)" fill="none" stroke="#fff" stroke-miterlimit="10" stroke-width="1.95"/>
      <path d="M138,109l1.11,1.33-1.78,1.48-1.05-1.27a8.64,8.64,0,0,1-2.29,1.26,6.87,6.87,0,0,1-2.2.4l0-2.2a6.51,6.51,0,0,0,1.86-.44,6.26,6.26,0,0,0,1.67-1q2.37-2,1-3.55a1.62,1.62,0,0,0-.92-.62,2.31,2.31,0,0,0-1.16.11,16.84,16.84,0,0,0-1.8.78,8.34,8.34,0,0,1-3.6,1,3.3,3.3,0,0,1-2.51-1.35,3.43,3.43,0,0,1-.83-2.74A5.28,5.28,0,0,1,127,99.32L126,98l1.78-1.48,1,1.26a8.31,8.31,0,0,1,4-1.45l.12,2.11A10.44,10.44,0,0,0,131,99a6.38,6.38,0,0,0-1.7,1c-1.34,1.11-1.64,2.1-.91,3a1.52,1.52,0,0,0,.83.56,2.12,2.12,0,0,0,1.05-.11,12.42,12.42,0,0,0,1.69-.75,8.07,8.07,0,0,1,3.74-1.1,3.59,3.59,0,0,1,2.78,1.47,3.71,3.71,0,0,1,1,2.93A5.53,5.53,0,0,1,138,109Z" fill="#f7f5f5"/>
      <path d="M145.67,89.61a5.86,5.86,0,0,1,1.11,2.55,9.94,9.94,0,0,1-.15,3.28q-.36,1.95-1.41,5.79l6.18-4.55,1.44,1.95-9.26,6.81-1.33-1.8.11-.5q1.06-4.58,1.43-6.5a13,13,0,0,0,.31-3,3.61,3.61,0,0,0-.7-2,2.44,2.44,0,0,0-1.79-1.07,3.12,3.12,0,0,0-2.18.7,4.25,4.25,0,0,0-1.32,1.55,6.74,6.74,0,0,0-.62,2.14l-2.32-.19a9,9,0,0,1,.84-3.11,7.08,7.08,0,0,1,2.19-2.47,6.72,6.72,0,0,1,2.87-1.29,4.94,4.94,0,0,1,2.64.23A4.43,4.43,0,0,1,145.67,89.61Z" fill="#f7f5f5"/>
      <path d="M153.94,96.17a1.5,1.5,0,0,1,.47-2.35,1.63,1.63,0,0,1,1.33-.34,1.82,1.82,0,0,1,1,.8,1.87,1.87,0,0,1,.36,1.23,1.63,1.63,0,0,1-.81,1.1A1.5,1.5,0,0,1,153.94,96.17Z" fill="#f7f5f5"/>
      <path d="M158.16,92.74l.46-2.33a7.18,7.18,0,0,0,2.31,0,6.26,6.26,0,0,0,2.1-.87,3.53,3.53,0,0,0,1.63-2,2.72,2.72,0,0,0-.36-2.32A2.64,2.64,0,0,0,162.57,84a2.86,2.86,0,0,0-2.15.47,6.72,6.72,0,0,0-2.16,2.15l-1.64,1L152,80.09,160.3,75,161.57,77l-5.94,3.67L157.69,84a7.93,7.93,0,0,1,2.24-2,5.34,5.34,0,0,1,2.52-.83,4.48,4.48,0,0,1,2.43.54,5.21,5.21,0,0,1,1.92,1.9,5.35,5.35,0,0,1,.88,2.88,5,5,0,0,1-.85,2.78,7.87,7.87,0,0,1-2.5,2.34,8.4,8.4,0,0,1-3.11,1.23A8,8,0,0,1,158.16,92.74Z" fill="#f7f5f5"/>
      <path d="M175.75,71a3.49,3.49,0,0,1,.43,2.36,3.69,3.69,0,0,1-1.14,2l0,0a4.06,4.06,0,0,1,2.76-.11,3.7,3.7,0,0,1,2.05,1.87,3.91,3.91,0,0,1,.27,3.75,7,7,0,0,1-3.07,2.91l-5.37,2.91-7.58-14,5.31-2.88a6.33,6.33,0,0,1,3.67-.91A3.41,3.41,0,0,1,175.75,71Zm-8.06,2.37,2.1,3.87,2.35-1.27a2.92,2.92,0,0,0,1.44-1.43,2.12,2.12,0,0,0-.23-1.83A1.8,1.8,0,0,0,172,71.58a3.47,3.47,0,0,0-2.08.55ZM170.78,79l2.34,4.32,2.39-1.29a4.07,4.07,0,0,0,1.75-1.61,2.58,2.58,0,0,0-1.7-3.35,3.68,3.68,0,0,0-2.27.57Z" fill="#f7f5f5"/>
      <path d="M229.28,58.08l.46,1.67-2.24.6-.42-1.58a9,9,0,0,1-2.61.2,6.74,6.74,0,0,1-2.17-.56l.9-2a6.55,6.55,0,0,0,1.87.38,6.71,6.71,0,0,0,2-.25q3-.81,2.43-2.8a1.64,1.64,0,0,0-.58-.94,2.24,2.24,0,0,0-1.11-.38,14.26,14.26,0,0,0-2,0,8.41,8.41,0,0,1-3.69-.57,3.32,3.32,0,0,1-1.73-2.27,3.42,3.42,0,0,1,.39-2.84,5.19,5.19,0,0,1,2.49-2l-.43-1.61,2.23-.6.43,1.58a8.45,8.45,0,0,1,4.28.35l-.77,2a9.83,9.83,0,0,0-2-.32,6.8,6.8,0,0,0-2,.25c-1.67.45-2.36,1.23-2.06,2.35a1.47,1.47,0,0,0,.52.84,2,2,0,0,0,1,.34,11.83,11.83,0,0,0,1.85,0,8.2,8.2,0,0,1,3.86.55,3.62,3.62,0,0,1,1.92,2.5,3.74,3.74,0,0,1-.36,3.06A5.51,5.51,0,0,1,229.28,58.08Z" fill="#f7f5f5"/>
      <path d="M244.27,43.62a5.78,5.78,0,0,1-.05,2.78,9.89,9.89,0,0,1-1.5,2.92Q241.58,51,239,54l7.52-1.58.5,2.37L235.8,57.16l-.47-2.2.31-.4c1.91-2.48,3.25-4.26,4-5.32a13,13,0,0,0,1.55-2.65,3.68,3.68,0,0,0,.19-2.09,2.43,2.43,0,0,0-1.19-1.71,3.08,3.08,0,0,0-2.28-.27,4.27,4.27,0,0,0-1.84.85,6.89,6.89,0,0,0-1.45,1.7l-2-1.14a8.68,8.68,0,0,1,2.06-2.48,6.89,6.89,0,0,1,3-1.33,6.68,6.68,0,0,1,3.15,0,4.89,4.89,0,0,1,2.3,1.31A4.38,4.38,0,0,1,244.27,43.62Z" fill="#f7f5f5"/>
      <path d="M249.07,53a1.5,1.5,0,0,1,1.4-2,1.64,1.64,0,0,1,1.35.25,1.8,1.8,0,0,1,.59,1.14,1.83,1.83,0,0,1-.18,1.27,1.62,1.62,0,0,1-1.2.67A1.5,1.5,0,0,1,249.07,53Z" fill="#f7f5f5"/>
      <path d="M264.74,40.65a5.76,5.76,0,0,1-.27,2.77,9.9,9.9,0,0,1-1.74,2.79c-.84,1-2.19,2.47-4.05,4.37l7.62-1,.3,2.4-11.41,1.44-.28-2.23.34-.38q3.17-3.48,4.42-5a13.21,13.21,0,0,0,1.76-2.52,3.6,3.6,0,0,0,.36-2.07,2.46,2.46,0,0,0-1-1.8A3.13,3.13,0,0,0,258.5,39a4.29,4.29,0,0,0-1.91.71A7.12,7.12,0,0,0,255,41.31L253.07,40a8.74,8.74,0,0,1,2.26-2.31,7.08,7.08,0,0,1,3.11-1.08,6.7,6.7,0,0,1,3.14.27,5,5,0,0,1,2.19,1.49A4.45,4.45,0,0,1,264.74,40.65Z" fill="#f7f5f5"/>
      <path d="M279.38,39.14a3.47,3.47,0,0,1-.58,2.33,3.76,3.76,0,0,1-1.89,1.37v0a4,4,0,0,1,2.55,1,3.7,3.7,0,0,1,1.09,2.56A3.89,3.89,0,0,1,279.25,50a7,7,0,0,1-4,1.36l-6.09.42-1.08-15.86,6-.41a6.26,6.26,0,0,1,3.72.69A3.4,3.4,0,0,1,279.38,39.14ZM271.07,38l.3,4.39,2.66-.18a3,3,0,0,0,1.91-.7,2.15,2.15,0,0,0,.56-1.76,1.86,1.86,0,0,0-.81-1.56,3.6,3.6,0,0,0-2.12-.36Zm.44,6.48.33,4.9,2.71-.18a4.07,4.07,0,0,0,2.26-.74,2.16,2.16,0,0,0,.73-2,2.13,2.13,0,0,0-.89-1.76,3.7,3.7,0,0,0-2.3-.43Z" fill="#f7f5f5"/>
      <path d="M236,70a6.81,6.81,0,0,1-.09-3.16,4.9,4.9,0,0,1,1.38-2.48,6.54,6.54,0,0,1,5.88-1.44,4.92,4.92,0,0,1,2.38,1.56,7.6,7.6,0,0,1,1.46,6,4.82,4.82,0,0,1-1.38,2.48,6,6,0,0,1-2.77,1.44,5.78,5.78,0,0,1-3.12,0,4.82,4.82,0,0,1-2.36-1.57A6.8,6.8,0,0,1,236,70Zm9.85-2.4a6.17,6.17,0,0,0-1.11-2.41,3.85,3.85,0,0,0-1.9-1.34A5.16,5.16,0,0,0,238.05,65,4,4,0,0,0,237,67.05a6.34,6.34,0,0,0,.12,2.65,6.2,6.2,0,0,0,1.12,2.4,3.89,3.89,0,0,0,1.9,1.35,5.13,5.13,0,0,0,4.81-1.18A3.9,3.9,0,0,0,246,70.2,6.29,6.29,0,0,0,245.88,67.56Z" fill="#f7f5f5"/>
      <path d="M250.1,64.26l2.18-.45.16.79-2.18.44,1.05,5.14c.18.9.69,1.27,1.51,1.1a2.51,2.51,0,0,0,.79-.29l.32.73a3.2,3.2,0,0,1-1.11.42,2.09,2.09,0,0,1-1.64-.23,2.19,2.19,0,0,1-.88-1.46l-1.06-5.2-1.44.29-.13-.65,1.41-.42-.41-2,1-.56Z" fill="#f7f5f5"/>
      <path d="M253.83,60.17l1-.18.78,4.53h0a2.82,2.82,0,0,1,.87-1.28,3.42,3.42,0,0,1,1.67-.72,2.77,2.77,0,0,1,2.38.5,3.38,3.38,0,0,1,1.1,2.07l.87,5.08-1,.17-.84-4.88a2.79,2.79,0,0,0-.82-1.64,2,2,0,0,0-1.77-.4,2.63,2.63,0,0,0-1.31.59,2.43,2.43,0,0,0-.74,1.12,3,3,0,0,0-.08,1.41l.8,4.62-1,.18Z" fill="#f7f5f5"/>
      <path d="M271.27,65.25l-6.14.81a3.53,3.53,0,0,0,1.07,2.1,2.55,2.55,0,0,0,2.16.57,4.24,4.24,0,0,0,1.33-.38,5.11,5.11,0,0,0,1.11-.78l.55.6a5.55,5.55,0,0,1-1.31.92,5.13,5.13,0,0,1-1.62.47,3.52,3.52,0,0,1-3-.79,4.64,4.64,0,0,1-1.41-3,5.23,5.23,0,0,1,.14-2.22A3.41,3.41,0,0,1,265.26,62a3.64,3.64,0,0,1,1.91-.79,3.2,3.2,0,0,1,2.77.77,4.64,4.64,0,0,1,1.3,2.85C271.25,64.88,271.26,65,271.27,65.25Zm-1.09-.67a3.52,3.52,0,0,0-1-2.07,2.25,2.25,0,0,0-2-.56,2.37,2.37,0,0,0-1.81,1.1,3.51,3.51,0,0,0-.43,2.22Z" fill="#f7f5f5"/>
      <path d="M273.32,62.41a14.35,14.35,0,0,0-.29-1.74l1-.1a12.11,12.11,0,0,1,.24,1.41h0a2.58,2.58,0,0,1,2.42-1.91,3.34,3.34,0,0,1,.44,0l0,.9a2.47,2.47,0,0,0-.46,0A2.26,2.26,0,0,0,275,62a3.46,3.46,0,0,0-.42,2.22l.45,4.36-1,.1Z" fill="#f7f5f5"/>
      <path d="M432,96.26l-6.07,9.56-.92-.59,2.89-4.55-5.54-3.51-2.89,4.55-.91-.59,6.07-9.56.92.59-2.71,4.25,5.54,3.52,2.7-4.26Z" fill="#f7f5f5"/>
      <path d="M430,104.77l2.78-4,.86.59-2.7,3.93a3.15,3.15,0,0,0-.65,1.89,1.87,1.87,0,0,0,.93,1.54,2.31,2.31,0,0,0,1.4.45,2.66,2.66,0,0,0,1.42-.42,3.76,3.76,0,0,0,1.18-1.14l2.41-3.5.86.59-3.55,5.16a17.61,17.61,0,0,0-.93,1.52l-.82-.56a14.67,14.67,0,0,1,.79-1.32l0,0a3,3,0,0,1-3.41-.19,2.7,2.7,0,0,1-1.32-2A3.8,3.8,0,0,1,430,104.77Z" fill="#f7f5f5"/>
      <path d="M440,107.8a13.71,13.71,0,0,0,1-1.47l.8.6A7.76,7.76,0,0,1,441,108l0,0a2.86,2.86,0,0,1,1.54-.24,3.16,3.16,0,0,1,1.6.67,2.49,2.49,0,0,1,1,3.08h0a3,3,0,0,1,1.71-.41,3.16,3.16,0,0,1,1.73.68,2.64,2.64,0,0,1,1.21,2,3.34,3.34,0,0,1-.73,2.21L446,120.22l-.83-.62,3-4a2.85,2.85,0,0,0,.61-1.65,1.82,1.82,0,0,0-.84-1.51,2.31,2.31,0,0,0-1.34-.48,2.72,2.72,0,0,0-1.37.35,3.67,3.67,0,0,0-1.12,1l-2.67,3.54-.81-.62,3-4a2.8,2.8,0,0,0,.63-1.67,1.82,1.82,0,0,0-.84-1.51,2.35,2.35,0,0,0-1.27-.5,2.48,2.48,0,0,0-1.3.27,3.08,3.08,0,0,0-1.06.92L437,113.45l-.83-.62Z" fill="#f7f5f5"/>
      <path d="M448.74,119.66a2.22,2.22,0,0,1,2.23-1,7.91,7.91,0,0,1,3.1,1.76c.29.24.51.42.66.56l.33-.39a1.85,1.85,0,0,0-.38-2.93,4.59,4.59,0,0,0-1.12-.7,4.92,4.92,0,0,0-1.24-.33l.16-.78a5.24,5.24,0,0,1,2.76,1.2,3.28,3.28,0,0,1,1.35,2.1,3.19,3.19,0,0,1-.89,2.29l-2.15,2.63a13.91,13.91,0,0,0-1,1.44l-.74-.61c.17-.28.4-.63.69-1l0,0a3.19,3.19,0,0,1-3.22-.73,2.76,2.76,0,0,1-1.07-1.68A2.3,2.3,0,0,1,448.74,119.66Zm4.73,2.92.79-1-.59-.49a9.81,9.81,0,0,0-1.74-1.2,2.17,2.17,0,0,0-1.29-.28,1.7,1.7,0,0,0-1,.67,1.54,1.54,0,0,0-.41,1.22,1.84,1.84,0,0,0,.74,1.15,2.77,2.77,0,0,0,1.37.66,2.43,2.43,0,0,0,1.27-.13A2.34,2.34,0,0,0,453.47,122.58Z" fill="#f7f5f5"/>
      <path d="M458.6,122.47a14,14,0,0,0,1.07-1.4l.75.65a10.09,10.09,0,0,1-.81,1.08l0,0a2.93,2.93,0,0,1,1.61-.11,3.47,3.47,0,0,1,1.61.85,2.73,2.73,0,0,1,1.12,2.15,3.36,3.36,0,0,1-.92,2.16l-3.39,3.88-.78-.68,3.26-3.74a2.77,2.77,0,0,0,.76-1.66,2,2,0,0,0-.81-1.63,2.55,2.55,0,0,0-1.28-.64,2.37,2.37,0,0,0-1.34.13,2.94,2.94,0,0,0-1.14.83l-3.09,3.53-.78-.69Z" fill="#f7f5f5"/>
      <path d="M468.9,131.75q.62-.66,1.14-1.35l.71.68a10.34,10.34,0,0,1-.91,1.1l0,0a2.59,2.59,0,0,1,3,.61,4,4,0,0,1,.29.32l-.66.62a2.67,2.67,0,0,0-.31-.35,2.19,2.19,0,0,0-1.91-.67,3.37,3.37,0,0,0-2,1.11l-3,3.17-.75-.72Z" fill="#f7f5f5"/>
      <path d="M475.58,142l-4.35-4.4a3.58,3.58,0,0,0-1,2.12,2.56,2.56,0,0,0,.85,2.06,4.12,4.12,0,0,0,1.11.83,4.88,4.88,0,0,0,1.29.42l-.15.8a5.52,5.52,0,0,1-1.52-.49,5.33,5.33,0,0,1-1.36-1,3.53,3.53,0,0,1-1.15-2.84,4.6,4.6,0,0,1,1.51-2.92,5,5,0,0,1,1.86-1.22,3.36,3.36,0,0,1,1.95-.14,3.56,3.56,0,0,1,1.78,1.05,3.21,3.21,0,0,1,1.06,2.66,4.64,4.64,0,0,1-1.49,2.76Zm-.13-1.27a3.52,3.52,0,0,0,1.08-2,2.21,2.21,0,0,0-.74-1.9,2.37,2.37,0,0,0-2-.78,3.35,3.35,0,0,0-2,1Z" fill="#f7f5f5"/>
      <path d="M483.1,144.56l-.8.12a3.58,3.58,0,0,0-.94-2,2.22,2.22,0,0,0-1.14-.73,1.06,1.06,0,0,0-1,.28,1.23,1.23,0,0,0-.39.63,1.54,1.54,0,0,0,.07.8,8.61,8.61,0,0,0,.57,1.2,4,4,0,0,1,.63,1.95,2,2,0,0,1-.71,1.46,2.1,2.1,0,0,1-1.88.6,3.31,3.31,0,0,1-1.9-1.1,4.45,4.45,0,0,1-1.27-2.75l.8-.1a4.55,4.55,0,0,0,.32,1.21,4,4,0,0,0,.72,1.06,2.13,2.13,0,0,0,1.25.73,1.34,1.34,0,0,0,1.18-.39,1.45,1.45,0,0,0,.45-.66,1.41,1.41,0,0,0-.06-.8,7,7,0,0,0-.56-1.22,4.31,4.31,0,0,1-.65-1.94,1.94,1.94,0,0,1,.67-1.4,1.86,1.86,0,0,1,1.68-.5,3.28,3.28,0,0,1,1.8,1.1A4.08,4.08,0,0,1,483.1,144.56Z" fill="#f7f5f5"/>
      <path d="M487,154.17a5,5,0,0,1-2,1.1,3.43,3.43,0,0,1-2-.05,4.51,4.51,0,0,1-2.81-3.24,3.59,3.59,0,0,1,.26-2,5.08,5.08,0,0,1,1.37-1.8,4.43,4.43,0,0,1,3-1.24,3.7,3.7,0,0,1,2.79,1.45,3.78,3.78,0,0,1,1.05,3A4.47,4.47,0,0,1,487,154.17ZM482.52,149a3.93,3.93,0,0,0-1.41,2.18,2.56,2.56,0,0,0,.69,2.25,2.6,2.6,0,0,0,2.14,1,4.07,4.07,0,0,0,2.37-1.08,4,4,0,0,0,1.39-2.17,2.61,2.61,0,0,0-.72-2.26,2.58,2.58,0,0,0-2.12-1A4,4,0,0,0,482.52,149Z" fill="#f7f5f5"/>
      <path d="M487.7,156.45l3.85-3.06.64.82-3.73,3a3.23,3.23,0,0,0-1.18,1.62,1.91,1.91,0,0,0,.44,1.75,2.43,2.43,0,0,0,1.21.84,2.75,2.75,0,0,0,1.48,0,3.93,3.93,0,0,0,1.47-.74l3.33-2.65.64.82-4.91,3.9c-.39.31-.83.7-1.33,1.18l-.61-.78a14.48,14.48,0,0,1,1.14-1l0,0a3.09,3.09,0,0,1-1.74-.08,3.18,3.18,0,0,1-1.46-1.09,2.72,2.72,0,0,1-.67-2.33A3.76,3.76,0,0,1,487.7,156.45Z" fill="#f7f5f5"/>
      <path d="M496.25,162.29a13.46,13.46,0,0,0,1.35-1.13l.59.79a8.78,8.78,0,0,1-1.09.93l0,0A2.59,2.59,0,0,1,500,164a3.13,3.13,0,0,1,.23.37l-.75.49a2.64,2.64,0,0,0-.25-.39,2.21,2.21,0,0,0-1.77-1,3.37,3.37,0,0,0-2.12.76l-3.53,2.6-.61-.83Z" fill="#f7f5f5"/>
      <path d="M503,168.27a4.86,4.86,0,0,1,.65,1.31,3.81,3.81,0,0,1,.16,1.36l-.84.06a3.48,3.48,0,0,0-.68-2.24,2.57,2.57,0,0,0-2-1.24,3.79,3.79,0,0,0-2.44.79,3.92,3.92,0,0,0-1.59,2,2.6,2.6,0,0,0,.44,2.29,4,4,0,0,0,1.87,1.43l-.36.74a4.33,4.33,0,0,1-1.25-.67,4.48,4.48,0,0,1-1-1.06,3.85,3.85,0,0,1-.75-2.12,3.5,3.5,0,0,1,.56-1.92,5.23,5.23,0,0,1,1.51-1.53,4.42,4.42,0,0,1,3.13-.91A3.65,3.65,0,0,1,503,168.27Z" fill="#f7f5f5"/>
      <path d="M505.26,180.17,501.94,175a3.56,3.56,0,0,0-1.46,1.85,2.57,2.57,0,0,0,.39,2.2,4.27,4.27,0,0,0,.91,1,5.32,5.32,0,0,0,1.18.69l-.32.75a5.86,5.86,0,0,1-1.38-.8,5.2,5.2,0,0,1-1.11-1.28,3.51,3.51,0,0,1-.53-3,4.58,4.58,0,0,1,2.1-2.52,5,5,0,0,1,2.08-.8,3.32,3.32,0,0,1,1.93.28,3.68,3.68,0,0,1,1.52,1.4,3.2,3.2,0,0,1,.46,2.84,4.62,4.62,0,0,1-2,2.37A4.16,4.16,0,0,1,505.26,180.17Zm.14-1.26a3.62,3.62,0,0,0,1.49-1.74,2.25,2.25,0,0,0-.32-2,2.35,2.35,0,0,0-1.76-1.18,3.35,3.35,0,0,0-2.19.54Z" fill="#f7f5f5"/>
      <path d="M512,184.31l-.82-.07a3.5,3.5,0,0,0-.46-2.17,2.33,2.33,0,0,0-.95-1,1.1,1.1,0,0,0-1,.05,1.26,1.26,0,0,0-.52.53,1.5,1.5,0,0,0-.1.8,6.93,6.93,0,0,0,.28,1.29,4,4,0,0,1,.18,2,2,2,0,0,1-1,1.27,2.11,2.11,0,0,1-2,.17,3.36,3.36,0,0,1-1.62-1.49,4.49,4.49,0,0,1-.63-3l.81.09a4.65,4.65,0,0,0,0,1.25,3.82,3.82,0,0,0,.47,1.19,2.16,2.16,0,0,0,1.05,1,1.39,1.39,0,0,0,1.25-.12,1.47,1.47,0,0,0,.58-.55,1.39,1.39,0,0,0,.12-.79,7.25,7.25,0,0,0-.28-1.31,4.3,4.3,0,0,1-.2-2,2,2,0,0,1,2.7-1.33,3.31,3.31,0,0,1,1.52,1.46A4.18,4.18,0,0,1,512,184.31Z" fill="#f7f5f5"/>
      <path d="M139.34,124.17l.64.64-4,4,3,3,3.58-3.57.62.62-3.58,3.57,3.76,3.77-.77.77-8-8Z" fill="#f7f5f5"/>
      <path d="M145.83,130.64a2.24,2.24,0,0,1-.64-2.35,8,8,0,0,1,2.16-2.83c.28-.25.49-.44.65-.57l-.35-.38a1.85,1.85,0,0,0-3,0,4.38,4.38,0,0,0-.84,1,4.8,4.8,0,0,0-.49,1.18l-.75-.27a5.16,5.16,0,0,1,1.56-2.56,2.72,2.72,0,0,1,4.41.13l2.31,2.49a15,15,0,0,0,1.29,1.22l-.7.65a11.24,11.24,0,0,1-.92-.82l0,0a3.18,3.18,0,0,1-1.17,3.09,2.71,2.71,0,0,1-1.81.83A2.25,2.25,0,0,1,145.83,130.64Zm3.53-4.29-.85-.91-.58.51a11.37,11.37,0,0,0-1.42,1.56,2.28,2.28,0,0,0-.45,1.24,1.7,1.7,0,0,0,.52,1.12,1.51,1.51,0,0,0,1.16.57,1.83,1.83,0,0,0,1.24-.57,2.78,2.78,0,0,0,.83-1.27,2.31,2.31,0,0,0,.05-1.27A2.22,2.22,0,0,0,149.36,126.35Z" fill="#f7f5f5"/>
      <path d="M146.72,117.93a.65.65,0,0,1,.09-1,.64.64,0,0,1,1,.06.63.63,0,0,1-.08,1A.64.64,0,0,1,146.72,117.93Zm2.87,1.34,5.31,6-.78.68-5.31-6Z" fill="#f7f5f5"/>
      <path d="M152.84,116.47l1.7-1.43.51.61-1.7,1.43,3.39,4a1.16,1.16,0,0,0,1.85.23,2.31,2.31,0,0,0,.56-.63l.62.49a3.2,3.2,0,0,1-.76.9,2,2,0,0,1-3-.27l-3.43-4.06-1.12,1-.44-.51,1-1-1.33-1.57.56-1Z" fill="#f7f5f5"/>
      <path d="M154.15,111.09l.81-.64,2.85,3.6,0,0a2.86,2.86,0,0,1,.16-1.55,3.41,3.41,0,0,1,1.12-1.43,2.73,2.73,0,0,1,2.32-.7,3.4,3.4,0,0,1,2,1.29l3.2,4-.82.65-3.08-3.89a2.88,2.88,0,0,0-1.5-1,2,2,0,0,0-1.75.5,2.62,2.62,0,0,0-.86,1.14,2.46,2.46,0,0,0-.11,1.34,2.86,2.86,0,0,0,.61,1.28l2.91,3.67-.82.65Z" fill="#f7f5f5"/>
      <path d="M175.78,104.06a5.12,5.12,0,0,1,.9,2,3.46,3.46,0,0,1-.19,2,3.93,3.93,0,0,1-4.32,2.25l.45.87-.69.49-6.52-9.26.85-.6,2.67,3.79,0,0a2.8,2.8,0,0,1,.27-1.61,3.58,3.58,0,0,1,1.2-1.36,3.36,3.36,0,0,1,1.91-.67,3.52,3.52,0,0,1,1.86.54A5.4,5.4,0,0,1,175.78,104.06Zm-.86.6a4.05,4.05,0,0,0-2-1.61,2.31,2.31,0,0,0-2.15.37,2.79,2.79,0,0,0-1,1.15,2.53,2.53,0,0,0-.2,1.41,2.92,2.92,0,0,0,.52,1.34l1.57,2.24a3.9,3.9,0,0,0,1.53.11,3.08,3.08,0,0,0,1.34-.57,2.51,2.51,0,0,0,1.17-2A3.89,3.89,0,0,0,174.92,104.66Z" fill="#f7f5f5"/>
      <path d="M178.12,104.73a2.24,2.24,0,0,1-.23-2.42,7.92,7.92,0,0,1,2.62-2.42l.74-.46L181,99a1.85,1.85,0,0,0-2.91-.54,4.74,4.74,0,0,0-1,.86,4.54,4.54,0,0,0-.69,1.08l-.69-.39a5.16,5.16,0,0,1,2-2.26,2.73,2.73,0,0,1,4.32.89l1.85,2.85a14.27,14.27,0,0,0,1.06,1.43l-.81.52a11.09,11.09,0,0,1-.76-1h0a3.21,3.21,0,0,1-1.68,2.85,2.75,2.75,0,0,1-1.92.51A2.32,2.32,0,0,1,178.12,104.73Zm4.22-3.62-.68-1-.66.4a10.25,10.25,0,0,0-1.66,1.29,2.18,2.18,0,0,0-.66,1.15,1.69,1.69,0,0,0,.31,1.19,1.58,1.58,0,0,0,1,.76,1.87,1.87,0,0,0,1.32-.35,2.85,2.85,0,0,0,1-1.1,2.37,2.37,0,0,0,.26-1.25A2.28,2.28,0,0,0,182.34,101.11Z" fill="#f7f5f5"/>
      <path d="M187.16,92.82l0,.82a3.51,3.51,0,0,0-2.17.5,2.22,2.22,0,0,0-.94,1,1,1,0,0,0,.07,1,1.13,1.13,0,0,0,.53.51,1.53,1.53,0,0,0,.8.09,7.26,7.26,0,0,0,1.29-.31,3.94,3.94,0,0,1,2-.22,2,2,0,0,1,1.29,1,2.14,2.14,0,0,1,.2,2,3.32,3.32,0,0,1-1.46,1.64,4.41,4.41,0,0,1-3,.68l.07-.8a4.58,4.58,0,0,0,1.25-.07,3.85,3.85,0,0,0,1.18-.49,2.23,2.23,0,0,0,1-1.07,1.38,1.38,0,0,0-.15-1.24,1.34,1.34,0,0,0-.56-.57,1.38,1.38,0,0,0-.79-.11,7,7,0,0,0-1.31.3,4.1,4.1,0,0,1-2,.24,1.87,1.87,0,0,1-1.23-.93,1.89,1.89,0,0,1-.16-1.74,3.31,3.31,0,0,1,1.44-1.55A4.17,4.17,0,0,1,187.16,92.82Z" fill="#f7f5f5"/>
      <path d="M196.92,91.59l-5.39,3a3.48,3.48,0,0,0,1.77,1.55,2.54,2.54,0,0,0,2.21-.27,4.21,4.21,0,0,0,1.09-.85,5.36,5.36,0,0,0,.75-1.14l.73.36a5.51,5.51,0,0,1-.87,1.34,5.3,5.3,0,0,1-1.33,1,3.54,3.54,0,0,1-3,.36,4.68,4.68,0,0,1-2.41-2.23,5.06,5.06,0,0,1-.68-2.12,3.36,3.36,0,0,1,.38-1.91,3.61,3.61,0,0,1,1.48-1.44,3.17,3.17,0,0,1,2.85-.31,4.61,4.61,0,0,1,2.27,2.16C196.77,91.26,196.83,91.4,196.92,91.59Zm-1.26-.21A3.52,3.52,0,0,0,194,89.81a2.26,2.26,0,0,0-2,.21,2.36,2.36,0,0,0-1.27,1.69,3.47,3.47,0,0,0,.42,2.22Z" fill="#f7f5f5"/>
      <path d="M206.94,90.53l-.86.44a11.71,11.71,0,0,1-.73-1.18h0a3.12,3.12,0,0,1-1.91,2.8,3.17,3.17,0,0,1-2.88.16,4.84,4.84,0,0,1-2.23-2.3,5,5,0,0,1-.58-2.14,3.6,3.6,0,0,1,.45-1.95,3.52,3.52,0,0,1,1.5-1.4,3.72,3.72,0,0,1,1.55-.45,3.66,3.66,0,0,1,1.48.25L200.75,81l.92-.47L206,89A17.47,17.47,0,0,0,206.94,90.53ZM204.35,88l-1.19-2.32a3.44,3.44,0,0,0-1.5-.4,3.11,3.11,0,0,0-1.5.37,2.46,2.46,0,0,0-1.36,1.78,3.89,3.89,0,0,0,.45,2.54A4,4,0,0,0,201,91.84a2.38,2.38,0,0,0,2.2-.08,2.69,2.69,0,0,0,1.11-1,2.55,2.55,0,0,0,.38-1.35A3,3,0,0,0,204.35,88Z" fill="#f7f5f5"/>
      <path d="M76.29,250.64l-3.06.59-1,5.55,2.66,1.64-.2,1.12-10.34-6.48.21-1.15,12-2.42Zm-10.87,2,6,3.65.9-4.93Z" fill="#f7f5f5"/>
      <path d="M70.72,246.71a13.09,13.09,0,0,0-1.74-.27l.22-1a8.86,8.86,0,0,1,1.41.22v0a2.59,2.59,0,0,1-1-2.91,2.2,2.2,0,0,1,.12-.41l.87.24a2.56,2.56,0,0,0-.14.44,2.21,2.21,0,0,0,.42,2,3.46,3.46,0,0,0,2,1.1l4.28.94-.23,1Z" fill="#f7f5f5"/>
      <path d="M70.61,239.41l.53-2.16.78.19-.54,2.16,5.1,1.26a1.17,1.17,0,0,0,1.64-.9,2.51,2.51,0,0,0,.07-.84l.8,0a3.42,3.42,0,0,1-.09,1.18,2,2,0,0,1-2.61,1.55l-5.16-1.27L70.78,242l-.65-.17.23-1.45-2-.5-.1-1.1Z" fill="#f7f5f5"/>
      <path d="M73.49,230.92l.52.63a3.54,3.54,0,0,0-1.22,1.85,2.22,2.22,0,0,0,0,1.35,1,1,0,0,0,.76.71,1.25,1.25,0,0,0,.74,0,1.62,1.62,0,0,0,.64-.49,7.16,7.16,0,0,0,.72-1.11A4,4,0,0,1,77,232.31a2,2,0,0,1,1.61-.17,2.13,2.13,0,0,1,1.5,1.29,3.35,3.35,0,0,1,.06,2.2,4.4,4.4,0,0,1-1.67,2.52l-.51-.64a4.57,4.57,0,0,0,.87-.9,3.94,3.94,0,0,0,.52-1.17,2.12,2.12,0,0,0,0-1.44,1.37,1.37,0,0,0-1-.81,1.58,1.58,0,0,0-.8,0,1.43,1.43,0,0,0-.65.47,7.44,7.44,0,0,0-.74,1.12,4.33,4.33,0,0,1-1.31,1.57,1.89,1.89,0,0,1-1.54.16A1.84,1.84,0,0,1,72,235.33a3.32,3.32,0,0,1,0-2.12A4.14,4.14,0,0,1,73.49,230.92Z" fill="#f7f5f5"/>
      <path d="M83.88,231.64l-.46.3a5.78,5.78,0,0,0-.93-1.17,2.74,2.74,0,0,0-1-.6.63.63,0,0,1-.84.45.65.65,0,0,1-.4-.32.67.67,0,0,1,0-.56.69.69,0,0,1,.39-.48,1,1,0,0,1,.72,0,3.59,3.59,0,0,1,1.37.75A5.84,5.84,0,0,1,83.88,231.64Z" fill="#f7f5f5"/>
      <path d="M77,217.14a4.68,4.68,0,0,1,.68-1.29,3.68,3.68,0,0,1,1-.93l.53.64a3.6,3.6,0,0,0-1.41,1.87,2.59,2.59,0,0,0,.17,2.32,3.76,3.76,0,0,0,2.08,1.5,3.8,3.8,0,0,0,2.54.11,2.55,2.55,0,0,0,1.58-1.7,3.91,3.91,0,0,0,.06-2.35l.81-.15a4.39,4.39,0,0,1,.2,1.4A4.57,4.57,0,0,1,85,220a3.78,3.78,0,0,1-1.27,1.86,3.47,3.47,0,0,1-1.88.68,5.54,5.54,0,0,1-2.13-.31,4.5,4.5,0,0,1-2.57-2A3.67,3.67,0,0,1,77,217.14Z" fill="#f7f5f5"/>
      <path d="M83.35,214.69l-4.58-1.77.37-1,4.45,1.72a3.21,3.21,0,0,0,2,.2,1.89,1.89,0,0,0,1.28-1.26,2.38,2.38,0,0,0,.12-1.48,2.75,2.75,0,0,0-.74-1.28,3.76,3.76,0,0,0-1.38-.88l-4-1.54.38-1,5.85,2.27c.46.18,1,.36,1.69.55l-.36.92a13.72,13.72,0,0,1-1.47-.46v0a3.08,3.08,0,0,1,.81,1.54,3.23,3.23,0,0,1-.21,1.81,2.7,2.7,0,0,1-1.67,1.76A3.76,3.76,0,0,1,83.35,214.69Z" fill="#f7f5f5"/>
      <path d="M79.42,202.4l.4-1,10.44,4.39-.4.95Z" fill="#f7f5f5"/>
      <path d="M84.56,198.74l.9-2,.73.33-.9,2,4.8,2.12a1.17,1.17,0,0,0,1.77-.6,2.46,2.46,0,0,0,.22-.81l.78.17a3.56,3.56,0,0,1-.3,1.15,2,2,0,0,1-2.83,1.07L84.87,200l-.6,1.35-.61-.28.48-1.39-1.89-.84.08-1.1Z" fill="#f7f5f5"/>
      <path d="M90.71,197l-4.43-2.12.45-.94L91,196a3.2,3.2,0,0,0,2,.35,1.9,1.9,0,0,0,1.38-1.15,2.45,2.45,0,0,0,.23-1.46,2.87,2.87,0,0,0-.64-1.34,3.75,3.75,0,0,0-1.31-1l-3.84-1.84.45-.94,5.66,2.71c.45.22,1,.45,1.64.69l-.43.89a13,13,0,0,1-1.43-.58v0a3,3,0,0,1,.34,3.39,2.69,2.69,0,0,1-1.8,1.62A3.71,3.71,0,0,1,90.71,197Z" fill="#f7f5f5"/>
      <path d="M92.21,186.76a15.17,15.17,0,0,0-1.61-.71l.45-.88a9.48,9.48,0,0,1,1.31.57l0,0a2.56,2.56,0,0,1-.27-3.07,4,4,0,0,1,.23-.37l.77.46c-.06.08-.14.22-.24.39a2.22,2.22,0,0,0-.11,2,3.43,3.43,0,0,0,1.62,1.57l3.89,2-.48.93Z" fill="#f7f5f5"/>
      <path d="M100.19,177.46l-3,5.41a3.62,3.62,0,0,0,2.33.4,2.58,2.58,0,0,0,1.74-1.4,4.1,4.1,0,0,0,.48-1.29,5.54,5.54,0,0,0,0-1.36l.81-.08a5.63,5.63,0,0,1,0,1.59,5.08,5.08,0,0,1-.59,1.59,3.51,3.51,0,0,1-2.4,1.9,4.62,4.62,0,0,1-3.22-.63,5.18,5.18,0,0,1-1.7-1.44,3.46,3.46,0,0,1-.68-1.83,3.63,3.63,0,0,1,.51-2,3.21,3.21,0,0,1,2.27-1.76,4.57,4.57,0,0,1,3.06.66A3.67,3.67,0,0,1,100.19,177.46Zm-1.18.48a3.54,3.54,0,0,0-2.23-.47,2.26,2.26,0,0,0-1.62,1.24,2.35,2.35,0,0,0-.19,2.11,3.47,3.47,0,0,0,1.52,1.67Z" fill="#f7f5f5"/>
      <path d="M106.67,179.09l-.52.18a5.88,5.88,0,0,0-.62-1.36,3,3,0,0,0-.84-.82.63.63,0,0,1-.92.24.66.66,0,0,1-.32-.4.69.69,0,0,1,.1-.56.73.73,0,0,1,.5-.37,1.07,1.07,0,0,1,.69.18,3.55,3.55,0,0,1,1.16,1A5.68,5.68,0,0,1,106.67,179.09Z" fill="#f7f5f5"/>
      <path d="M81.84,248.3l.23-1,4.47,1.05v0a2.83,2.83,0,0,1-.84-1.3,3.49,3.49,0,0,1,0-1.82,2.81,2.81,0,0,1,1.38-2,3.36,3.36,0,0,1,2.34-.2l5,1.17-.24,1L89.37,244a2.78,2.78,0,0,0-1.82.12,2,2,0,0,0-1.06,1.48,2.66,2.66,0,0,0,0,1.43,2.42,2.42,0,0,0,.75,1.12,3,3,0,0,0,1.27.62l4.56,1.07-.24,1Z" fill="#f7f5f5"/>
      <path d="M92,240.91l-4.73-1.32.28-1,4.59,1.28a3.24,3.24,0,0,0,2,0,1.88,1.88,0,0,0,1.16-1.38,2.48,2.48,0,0,0,0-1.48,2.79,2.79,0,0,0-.86-1.2,4,4,0,0,0-1.46-.75l-4.1-1.14.28-1,6,1.68c.48.13,1.06.26,1.73.38l-.26,1a14.93,14.93,0,0,1-1.51-.32v0a3.11,3.11,0,0,1,1,1.45,3.26,3.26,0,0,1,0,1.83,2.73,2.73,0,0,1-1.5,1.91A3.76,3.76,0,0,1,92,240.91Z" fill="#f7f5f5"/>
      <path d="M91.68,230.46A13.48,13.48,0,0,0,90,230l.32-.94a8.17,8.17,0,0,1,1.29.33v0a2.86,2.86,0,0,1-.72-1.39,3.15,3.15,0,0,1,.13-1.73,2.49,2.49,0,0,1,2.6-1.93v0a3,3,0,0,1-.94-1.49,3.23,3.23,0,0,1,.1-1.86,2.71,2.71,0,0,1,1.55-1.8,3.36,3.36,0,0,1,2.32,0l4.9,1.64-.33,1-4.77-1.6a2.8,2.8,0,0,0-1.76,0,1.78,1.78,0,0,0-1.16,1.27,2.24,2.24,0,0,0,0,1.42,2.7,2.7,0,0,0,.77,1.19,3.62,3.62,0,0,0,1.29.75l4.21,1.41-.33,1-4.75-1.59a2.88,2.88,0,0,0-1.78-.07,1.83,1.83,0,0,0-1.17,1.28,2.36,2.36,0,0,0-.07,1.36,2.46,2.46,0,0,0,.67,1.14,3,3,0,0,0,1.21.73L98,231.47l-.33,1Z" fill="#f7f5f5"/>
      <path d="M100.16,218.4a2.26,2.26,0,0,1-1.6-1.83,7.77,7.77,0,0,1,.72-3.49c.13-.35.24-.62.32-.8l-.47-.19a1.85,1.85,0,0,0-2.67,1.27,4.19,4.19,0,0,0-.31,1.28,4.65,4.65,0,0,0,.07,1.28l-.79.09a5.14,5.14,0,0,1,.29-3,2.71,2.71,0,0,1,4-1.79l3.16,1.22a12.44,12.44,0,0,0,1.7.54l-.35.9c-.33-.07-.72-.19-1.19-.34v0a3.18,3.18,0,0,1,.3,3.29,2.76,2.76,0,0,1-1.26,1.53A2.27,2.27,0,0,1,100.16,218.4Zm1.31-5.4-1.16-.45-.3.71a10.45,10.45,0,0,0-.59,2,2.14,2.14,0,0,0,.13,1.32,1.68,1.68,0,0,0,1,.78,1.57,1.57,0,0,0,1.29,0,1.84,1.84,0,0,0,.86-1.06,2.8,2.8,0,0,0,.2-1.5,2.5,2.5,0,0,0-.51-1.17A2.35,2.35,0,0,0,101.47,213Z" fill="#f7f5f5"/>
      <path d="M99.79,208.13a13.22,13.22,0,0,0-1.66-.6l.39-.91a8.28,8.28,0,0,1,1.28.45v0a2.91,2.91,0,0,1-.6-1.5,3.51,3.51,0,0,1,.31-1.8,2.77,2.77,0,0,1,1.71-1.72,3.44,3.44,0,0,1,2.34.21l4.73,2-.41,1-4.55-2a2.82,2.82,0,0,0-1.82-.21,2,2,0,0,0-1.31,1.27,2.61,2.61,0,0,0-.21,1.41,2.36,2.36,0,0,0,.54,1.24,2.92,2.92,0,0,0,1.13.84l4.3,1.85-.41,1Z" fill="#f7f5f5"/>
      <path d="M99.43,197.42a.64.64,0,0,1-.33-1,.71.71,0,1,1,1.28.6A.64.64,0,0,1,99.43,197.42Zm3.16.07,7.29,3.39-.44,1-7.29-3.4Z" fill="#f7f5f5"/>
      <path d="M104.44,193.6l1-2,.72.35-1,2,4.72,2.31a1.17,1.17,0,0,0,1.79-.54,2.45,2.45,0,0,0,.25-.8l.77.2a3.32,3.32,0,0,1-.34,1.13,2.1,2.1,0,0,1-1.19,1.16,2.13,2.13,0,0,1-1.68-.19l-4.78-2.33-.64,1.32-.61-.29.54-1.38-1.86-.91.13-1.09Z" fill="#f7f5f5"/>
      <path d="M116.39,192.57a3.38,3.38,0,0,1,.9,1.5,2.09,2.09,0,0,1-.23,1.48,2.73,2.73,0,0,1-.61.79l-.6-.54a2.54,2.54,0,0,0,.38-.54,1.26,1.26,0,0,0,.14-1,2.73,2.73,0,0,0-.65-1l-1.34-1.4-8.63-1,.52-1,7.33,1h0l-5.07-5.31.5-.95Z" fill="#f7f5f5"/>
      <path d="M463.09,104.53,462,105.86l-1.79-1.46,1-1.27a9,9,0,0,1-1.67-2,6.91,6.91,0,0,1-.81-2.08l2.16-.44a6.3,6.3,0,0,0,.78,1.74,6.63,6.63,0,0,0,1.34,1.45q2.38,1.93,3.69.35a1.67,1.67,0,0,0,.43-1,2.36,2.36,0,0,0-.33-1.11,14,14,0,0,0-1.12-1.62A8.59,8.59,0,0,1,464,95a3.31,3.31,0,0,1,.84-2.72A3.41,3.41,0,0,1,467.4,91a5.21,5.21,0,0,1,3.07.87l1-1.28L473.31,92l-1,1.27a8.36,8.36,0,0,1,2.2,3.69l-2.05.52a9.85,9.85,0,0,0-.89-1.78,6.58,6.58,0,0,0-1.35-1.47c-1.35-1.1-2.38-1.2-3.11-.31a1.45,1.45,0,0,0-.39.91,2.08,2.08,0,0,0,.31,1,12.19,12.19,0,0,0,1.06,1.52,8.23,8.23,0,0,1,1.8,3.46,3.63,3.63,0,0,1-.92,3,3.69,3.69,0,0,1-2.7,1.49A5.52,5.52,0,0,1,463.09,104.53Z" fill="#fff"/>
      <path d="M479.1,114.19A3.92,3.92,0,0,1,477,115.4a4.89,4.89,0,0,1-2.69-.24,9.25,9.25,0,0,1-4.85-4.44,4.94,4.94,0,0,1-.46-2.63,4.28,4.28,0,0,1,3.32-3.54,6.46,6.46,0,0,1,3,.34,4.71,4.71,0,0,1-.37-2.4,3.92,3.92,0,0,1,1.08-2,3.42,3.42,0,0,1,2-1.1,4.79,4.79,0,0,1,2.46.24,6.6,6.6,0,0,1,2.39,1.46,7.28,7.28,0,0,1,1.69,2.22,4.6,4.6,0,0,1,.49,2.38,3.51,3.51,0,0,1-1,2.1q-1.56,1.71-4.48,1.06a5.9,5.9,0,0,1,.74,2.94A4.15,4.15,0,0,1,479.1,114.19ZM477,112a2.12,2.12,0,0,0,.54-2.26,11.17,11.17,0,0,0-.72-1.73l-.55-1a4,4,0,0,0-2.18-.29,3.1,3.1,0,0,0-1.67,1,2.23,2.23,0,0,0-.66,2,3.76,3.76,0,0,0,1.27,2,3.64,3.64,0,0,0,2.15,1.08A2.12,2.12,0,0,0,477,112Zm1-9.52a2.08,2.08,0,0,0-.56,1.43,4.37,4.37,0,0,0,.56,2l.45.84a5.33,5.33,0,0,0,2,0,2.57,2.57,0,0,0,1.35-.78,2,2,0,0,0,.54-1.65,2.82,2.82,0,0,0-.95-1.65,2.86,2.86,0,0,0-1.73-.81A1.9,1.9,0,0,0,478,102.52Z" fill="#fff"/>
      <path d="M478.71,117.67a1.51,1.51,0,0,1,2.4,0,1.65,1.65,0,0,1,.59,1.24,1.81,1.81,0,0,1-.59,1.15,1.86,1.86,0,0,1-1.14.59,1.65,1.65,0,0,1-1.24-.59A1.51,1.51,0,0,1,478.71,117.67Z" fill="#fff"/>
      <path d="M498,122.6a3.43,3.43,0,0,1-4.65.39l0,0a4.07,4.07,0,0,1,.83,2.51,3.49,3.49,0,0,1-1.3,2.51,4.73,4.73,0,0,1-2.37,1.21,4.81,4.81,0,0,1-2.73-.37,8.13,8.13,0,0,1-2.77-2,8.29,8.29,0,0,1-1.76-2.77,8.18,8.18,0,0,1-.46-3l2.33,0a7.21,7.21,0,0,0,.44,2.28,6.07,6.07,0,0,0,1.25,1.91,3.75,3.75,0,0,0,2.1,1.24,2.37,2.37,0,0,0,2.06-.68,2.2,2.2,0,0,0,.85-1.73,3.2,3.2,0,0,0-1-1.89l-1.74-1.87,1.72-1.59,1.48,1.6a3.13,3.13,0,0,0,1.76,1.09,2,2,0,0,0,1.73-.62,2.06,2.06,0,0,0,.76-1.68,3.27,3.27,0,0,0-1-2,6,6,0,0,0-3.61-1.83l.21-2.25a8.51,8.51,0,0,1,2.93.81,8.26,8.26,0,0,1,2.43,1.85,6.82,6.82,0,0,1,1.56,2.54,4.31,4.31,0,0,1,.14,2.42A3.88,3.88,0,0,1,498,122.6Z" fill="#fff"/>
      <path d="M507.65,134.25a3.48,3.48,0,0,1-2.23.87,3.67,3.67,0,0,1-2.22-.73l0,0a4,4,0,0,1,.65,2.69,3.77,3.77,0,0,1-1.45,2.37,3.88,3.88,0,0,1-3.63,1,6.91,6.91,0,0,1-3.44-2.46l-3.88-4.71,12.26-10.11,3.85,4.66a6.4,6.4,0,0,1,1.6,3.42A3.45,3.45,0,0,1,507.65,134.25Zm-8.89-3.33L495,134.05l1.73,2.09a4.06,4.06,0,0,0,1.91,1.41,2.57,2.57,0,0,0,3-2.31,3.65,3.65,0,0,0-1-2.12Zm5-4.13-3.39,2.8,1.7,2.06a3,3,0,0,0,1.68,1.15,2.13,2.13,0,0,0,1.75-.58,1.81,1.81,0,0,0,.8-1.55,3.6,3.6,0,0,0-.94-1.94Z" fill="#fff"/>
      <path d="M58.7,226.71l1.65.51-.68,2.21L58.11,229a9.26,9.26,0,0,1-1.23,2.31,6.94,6.94,0,0,1-1.63,1.53L54,231a6.56,6.56,0,0,0,1.32-1.38,6.31,6.31,0,0,0,.83-1.79q.91-2.94-1.07-3.55a1.69,1.69,0,0,0-1.11,0,2.27,2.27,0,0,0-.9.73A13.94,13.94,0,0,0,52,226.6a8.33,8.33,0,0,1-2.45,2.82,3.29,3.29,0,0,1-2.84.25,3.41,3.41,0,0,1-2.19-1.84,5.25,5.25,0,0,1-.35-3.17l-1.59-.49.68-2.21,1.57.48A8.46,8.46,0,0,1,47.42,219l1.26,1.7a9.76,9.76,0,0,0-1.31,1.5,6,6,0,0,0-.85,1.81c-.52,1.65-.22,2.65.88,3a1.5,1.5,0,0,0,1,0,2.18,2.18,0,0,0,.81-.67,12.62,12.62,0,0,0,1-1.56,8.38,8.38,0,0,1,2.52-3,3.64,3.64,0,0,1,3.14-.29,3.7,3.7,0,0,1,2.39,1.94A5.48,5.48,0,0,1,58.7,226.71Z" fill="#f7f5f5"/>
      <path d="M62.28,208.42l-.68,1.83,3.24,1.2-1,2.63-3.24-1.2-2.75,7.38-2-.76L48,211.15l1.08-2.91,7.67,8.11,1.6-4.3-3.83-1.42,1-2.65,3.83,1.42.68-1.83Z" fill="#f7f5f5"/>
      <path d="M65,207.28a1.49,1.49,0,0,1-.89-2.22,1.66,1.66,0,0,1,.92-1,1.83,1.83,0,0,1,1.28.12,1.79,1.79,0,0,1,1,.83,1.63,1.63,0,0,1-.08,1.37A1.49,1.49,0,0,1,65,207.28Z" fill="#f7f5f5"/>
      <path d="M61.23,199.35a10.65,10.65,0,0,1-5-4,5.12,5.12,0,0,1,0-5,5.19,5.19,0,0,1,3.86-3.19,10.58,10.58,0,0,1,6.29,1.25,10.6,10.6,0,0,1,5,4,5.23,5.23,0,0,1,0,5,5.17,5.17,0,0,1-3.85,3.16A10.76,10.76,0,0,1,61.23,199.35Zm3.89-8.3a10.58,10.58,0,0,0-4.35-1.25,2.74,2.74,0,0,0-2.05,4.37,10.63,10.63,0,0,0,3.75,2.53A10.6,10.6,0,0,0,66.82,198a2.8,2.8,0,0,0,2.06-4.39A10.71,10.71,0,0,0,65.12,191.05Z" fill="#f7f5f5"/>
      <path d="M69.41,174.23A3.51,3.51,0,0,1,71.06,176a3.68,3.68,0,0,1,.16,2.33l0,0a4,4,0,0,1,2.25-1.61,3.72,3.72,0,0,1,2.74.45,3.89,3.89,0,0,1,2.28,3,7,7,0,0,1-1,4.11l-2.9,5.38-14-7.55,2.86-5.32A6.4,6.4,0,0,1,66.09,174,3.44,3.44,0,0,1,69.41,174.23ZM64,180.63l3.87,2.09,1.27-2.35a2.91,2.91,0,0,0,.42-2A2.11,2.11,0,0,0,68.34,177a1.86,1.86,0,0,0-1.74-.15,3.59,3.59,0,0,0-1.44,1.6Zm5.71,3.08L74,186.05l1.29-2.39a4.08,4.08,0,0,0,.57-2.31,2.11,2.11,0,0,0-1.28-1.67,2.14,2.14,0,0,0-2-.19A3.71,3.71,0,0,0,71,181.2Z" fill="#f7f5f5"/>
      <g>
        <path d="M78.75,425.4l1.6-.92,1.23,2.15-1.53.87a9.71,9.71,0,0,1,.91,2.65,7.31,7.31,0,0,1,0,2.38l-2.32-.39a6.41,6.41,0,0,0-.89-4q-1.64-2.85-3.55-1.76a1.73,1.73,0,0,0-.82.86,2.34,2.34,0,0,0-.1,1.24,16.66,16.66,0,0,0,.49,2,8.94,8.94,0,0,1,.4,4,3.52,3.52,0,0,1-1.88,2.4,3.65,3.65,0,0,1-3,.36,5.64,5.64,0,0,1-2.73-2L65,436.1,63.76,434l1.52-.87a9.08,9.08,0,0,1-.79-4.53l2.25.27a10,10,0,0,0,.21,2.12,6.67,6.67,0,0,0,.78,2q1.38,2.43,3,1.51a1.57,1.57,0,0,0,.73-.77,2.12,2.12,0,0,0,.08-1.12,13.9,13.9,0,0,0-.47-1.93,8.73,8.73,0,0,1-.47-4.14,3.86,3.86,0,0,1,2.06-2.65,3.94,3.94,0,0,1,3.27-.45A5.94,5.94,0,0,1,78.75,425.4Z" fill="#f7f5f5"/>
        <path d="M74.53,420.4l-2.45-.72a7.66,7.66,0,0,0,.26-2.45,6.53,6.53,0,0,0-.72-2.32A3.8,3.8,0,0,0,69.71,413a2.94,2.94,0,0,0-2.51.16,2.87,2.87,0,0,0-1.58,1.7,3.13,3.13,0,0,0,.29,2.34A7.21,7.21,0,0,0,68,419.68l.92,1.85-8.46,4.18-4.63-9.36,2.33-1.15,3.31,6.69L65.21,420a8.49,8.49,0,0,1-1.89-2.57,5.8,5.8,0,0,1-.63-2.77,4.75,4.75,0,0,1,.82-2.53,5.51,5.51,0,0,1,2.21-1.86,5.84,5.84,0,0,1,3.15-.65,5.37,5.37,0,0,1,2.88,1.19,8.29,8.29,0,0,1,2.23,2.9,8.77,8.77,0,0,1,1,3.42A8.31,8.31,0,0,1,74.53,420.4Z" fill="#f7f5f5"/>
        <path d="M68.21,406.27a1.6,1.6,0,0,1-2.38-.95,1.71,1.71,0,0,1-.11-1.46,2,2,0,0,1,1-.91,1.92,1.92,0,0,1,1.37-.14,1.72,1.72,0,0,1,1,1.06A1.61,1.61,0,0,1,68.21,406.27Z" fill="#f7f5f5"/>
        <path d="M59,389.37l.76,1.94L63.21,390l1.09,2.79-3.44,1.34,3,7.85-2.17.85-12.2-1.11-1.2-3.09,11.88,1-1.77-4.57-4.07,1.58-1.1-2.82,4.07-1.58-.75-1.94Z" fill="#f7f5f5"/>
        <path d="M46,378.4a3.74,3.74,0,0,1,2.56,0A4,4,0,0,1,50.45,380h0a4.24,4.24,0,0,1,.43-2.92,3.93,3.93,0,0,1,2.38-1.78,4.16,4.16,0,0,1,4,.47,7.51,7.51,0,0,1,2.43,3.81l2,6.22L45.51,391l-1.95-6.16a6.68,6.68,0,0,1-.22-4A3.64,3.64,0,0,1,46,378.4Zm.87,8.94,4.49-1.42-.87-2.72a3.13,3.13,0,0,0-1.21-1.81,2.29,2.29,0,0,0-2-.13,2,2,0,0,0-1.41,1.23,3.82,3.82,0,0,0,.16,2.29Zm6.62-2.1,5-1.59-.87-2.77a4.35,4.35,0,0,0-1.34-2.15,2.75,2.75,0,0,0-3.86,1.11,4,4,0,0,0,.14,2.5Z" fill="#f7f5f5"/>
      </g>
      <g>
        <path d="M97,433.69l3,4.52,3.16-2.12-2.66-3.94.91-.61,2.65,3.94,3.43-2.3-3.2-4.76,1-.65,4,5.92L99.87,440,96,434.32Z" fill="#f7f5f5"/>
        <path d="M99.05,429.77a14.54,14.54,0,0,0-1.48,1.07l-.69-1.1a9.18,9.18,0,0,1,.91-.71v0a2.87,2.87,0,0,1-1.45-.41,3.77,3.77,0,0,1-1.23-1.25,2.81,2.81,0,0,1-.46-2.4,3.28,3.28,0,0,1,1.48-1.81l4.45-2.81.73,1.15-4.23,2.66A2.55,2.55,0,0,0,96,425.4a1.82,1.82,0,0,0,.29,1.65,2.29,2.29,0,0,0,1.56,1.11,2.64,2.64,0,0,0,1.9-.42l4-2.49.72,1.15Z" fill="#f7f5f5"/>
        <path d="M97.79,415.64l.77,1.31-5.44,6.81-.74-1.25L97,417l0,0-7,1.43-.72-1.21Z" fill="#f7f5f5"/>
        <path d="M86.14,417.3a.78.78,0,0,1-1.19-.36.77.77,0,0,1,.33-1.19.83.83,0,0,1,.62-.11.84.84,0,0,1,.53.47.85.85,0,0,1,.13.71A.81.81,0,0,1,86.14,417.3Zm8.77-6.7.67,1.18-7.11,4-.66-1.19Z" fill="#f7f5f5"/>
        <path d="M88,411.2a16,16,0,0,0-1.56,1L85.87,411a11,11,0,0,1,1.09-.71l0,0a2.57,2.57,0,0,1-2.54-1.54c0-.08-.1-.22-.18-.43l1.07-.48a2.63,2.63,0,0,0,.21.45A2.12,2.12,0,0,0,87,409.49a3.19,3.19,0,0,0,2.09-.4L93,407l.64,1.2Z" fill="#f7f5f5"/>
        <path d="M84,398.43a4.94,4.94,0,0,1,2.23-.56,3.6,3.6,0,0,1,2,.59,4.28,4.28,0,0,1,1.46,1.73,4.18,4.18,0,0,1,.47,2.21,3.55,3.55,0,0,1-.74,1.94,5.17,5.17,0,0,1-1.8,1.42,4.44,4.44,0,0,1-3.27.42A3.89,3.89,0,0,1,82,404a4.31,4.31,0,0,1-.5-2.22,3.54,3.54,0,0,1,.72-1.92A5.1,5.1,0,0,1,84,398.43Zm3,6.07a3.78,3.78,0,0,0,1.8-1.64,2.31,2.31,0,0,0-.09-2.19A2.4,2.4,0,0,0,87,399.24a3.79,3.79,0,0,0-2.4.44,3.7,3.7,0,0,0-1.79,1.63,2.44,2.44,0,0,0,.13,2.2,2.39,2.39,0,0,0,1.67,1.43A3.79,3.79,0,0,0,87,404.5Z" fill="#f7f5f5"/>
        <path d="M81.05,397.3a13.85,13.85,0,0,0-1.62.84L78.9,397a10.07,10.07,0,0,1,1-.56v0a3,3,0,0,1-1.37-.63,3.67,3.67,0,0,1-1-1.41,2.84,2.84,0,0,1-.11-2.45,3.39,3.39,0,0,1,1.73-1.57l4.82-2.12.55,1.24-4.57,2a2.62,2.62,0,0,0-1.28,1.08,1.85,1.85,0,0,0,0,1.68,2.3,2.3,0,0,0,1.38,1.32,2.59,2.59,0,0,0,1.94-.13l4.28-1.88.55,1.24Z" fill="#f7f5f5"/>
        <path d="M77,388.11a14.34,14.34,0,0,0-1.67.73l-.45-1.21a9.24,9.24,0,0,1,1-.51v0a3,3,0,0,1-1.31-.66,3.32,3.32,0,0,1-.92-1.38,2.92,2.92,0,0,1-.17-1.74,2.54,2.54,0,0,1,.8-1.32v0a3.09,3.09,0,0,1-1.53-.65,3.25,3.25,0,0,1-1-1.47,2.92,2.92,0,0,1-.17-1.72,2.61,2.61,0,0,1,.73-1.33,3.74,3.74,0,0,1,1.35-.85l4.9-1.81.47,1.28-4.71,1.74a2.68,2.68,0,0,0-1.33,1,1.65,1.65,0,0,0-.09,1.6,2,2,0,0,0,.8,1,2.36,2.36,0,0,0,1.23.39,3.52,3.52,0,0,0,1.39-.22l4.19-1.55.47,1.28-4.74,1.75a2.61,2.61,0,0,0-1.31,1,1.7,1.7,0,0,0-.08,1.58,2.08,2.08,0,0,0,1.28,1.32,2.74,2.74,0,0,0,1.93-.05l4.38-1.62.47,1.27Z" fill="#f7f5f5"/>
        <path d="M72.48,366.24,74.22,372a3.2,3.2,0,0,0,1.69-1.29,2.47,2.47,0,0,0,.15-2.05,4.11,4.11,0,0,0-.57-1.21,5.12,5.12,0,0,0-.92-1l.67-.84a5.35,5.35,0,0,1,1.14,1.19,5.56,5.56,0,0,1,.74,1.57,3.72,3.72,0,0,1-.29,3.14,4.59,4.59,0,0,1-2.72,1.91,5.27,5.27,0,0,1-2.26.21,3.32,3.32,0,0,1-1.8-.82,3.72,3.72,0,0,1-1.11-1.81,3.32,3.32,0,0,1,.32-2.93,4.73,4.73,0,0,1,2.66-1.78A4.52,4.52,0,0,1,72.48,366.24Zm-.64,1.54a3.26,3.26,0,0,0-1.69,1.16,2.12,2.12,0,0,0-.21,1.86,2.14,2.14,0,0,0,1.24,1.46,3.12,3.12,0,0,0,2,.09Z" fill="#f7f5f5"/>
        <path d="M69.24,364.75a14.56,14.56,0,0,0-1.74.55L67.19,364a9.06,9.06,0,0,1,1.09-.39v0a2.86,2.86,0,0,1-1.24-.85,3.51,3.51,0,0,1-.77-1.57,2.8,2.8,0,0,1,.31-2.42,3.33,3.33,0,0,1,2-1.26l5.11-1.26.32,1.32-4.84,1.2a2.53,2.53,0,0,0-1.45.85,1.83,1.83,0,0,0-.24,1.66,2.25,2.25,0,0,0,1.13,1.54,2.64,2.64,0,0,0,1.93.21l4.54-1.12.33,1.32Z" fill="#f7f5f5"/>
        <path d="M64.86,353.86l-.43-2.12,1-.21.43,2.12,4.81-1c.86-.18,1.21-.65,1-1.44a3,3,0,0,0-.27-.76l1-.4a3.28,3.28,0,0,1,.45,1.19,2.34,2.34,0,0,1-.25,1.78,2.3,2.3,0,0,1-1.55.94l-4.92,1,.28,1.42-.86.17-.44-1.36-2,.39-.74-1.25Z" fill="#f7f5f5"/>
      </g>
      <g>
        <g>
          <path d="M276.56,559l.19-1.84,2.46.25-.18,1.74a9.74,9.74,0,0,1,2.68.81,7.63,7.63,0,0,1,2,1.38L282,563a6.82,6.82,0,0,0-1.72-1.1,7.08,7.08,0,0,0-2-.5c-2.18-.22-3.34.4-3.5,1.86a1.86,1.86,0,0,0,.22,1.17,2.53,2.53,0,0,0,1,.8,16,16,0,0,0,1.94.79,8.9,8.9,0,0,1,3.47,2,3.54,3.54,0,0,1,.86,2.93,3.67,3.67,0,0,1-1.47,2.68,5.61,5.61,0,0,1-3.25,1l-.19,1.77-2.45-.25.17-1.75a8.9,8.9,0,0,1-4.14-2l1.53-1.68a10.13,10.13,0,0,0,1.84,1.07,6.69,6.69,0,0,0,2.07.52c1.85.19,2.84-.33,3-1.56a1.6,1.6,0,0,0-.19-1,2.3,2.3,0,0,0-.87-.72,14.82,14.82,0,0,0-1.84-.73,8.84,8.84,0,0,1-3.65-2,3.89,3.89,0,0,1-1-3.22,4,4,0,0,1,1.53-2.92A5.88,5.88,0,0,1,276.56,559Z" fill="#f7f5f5"/>
          <path d="M270,559.52l-2,1.57a7.73,7.73,0,0,0-1.85-1.64,6.81,6.81,0,0,0-2.31-.76,3.76,3.76,0,0,0-2.68.43,2.92,2.92,0,0,0-1.33,2.13,2.86,2.86,0,0,0,.47,2.28,3.11,3.11,0,0,0,2.06,1.12,7.06,7.06,0,0,0,3.25-.23l2,.33-1.51,9.31-10.31-1.67.42-2.56,7.36,1.2.68-4.15a8.3,8.3,0,0,1-3.19,0,5.57,5.57,0,0,1-2.62-1.09,4.69,4.69,0,0,1-1.59-2.14,5.5,5.5,0,0,1-.22-2.88,5.75,5.75,0,0,1,1.3-2.94,5.33,5.33,0,0,1,2.64-1.65,8.32,8.32,0,0,1,3.65-.14,9.1,9.1,0,0,1,3.37,1.18A8.33,8.33,0,0,1,270,559.52Z" fill="#f7f5f5"/>
          <path d="M254.87,556.44a1.59,1.59,0,0,1-2.15,1.39,1.69,1.69,0,0,1-1.25-.76,2.22,2.22,0,0,1,.53-2.56,1.7,1.7,0,0,1,1.45-.2A1.6,1.6,0,0,1,254.87,556.44Z" fill="#f7f5f5"/>
          <path d="M235.66,554.84a4.26,4.26,0,0,1,1.38-2.21,5.3,5.3,0,0,1,2.66-1.14,8.85,8.85,0,0,1,3.59.25,8.72,8.72,0,0,1,3.22,1.47,5.24,5.24,0,0,1,1.76,2.25,4.17,4.17,0,0,1,.14,2.59,4.25,4.25,0,0,1-1.47,2.42,6.87,6.87,0,0,1-3,1.18,4.92,4.92,0,0,1,1.56,2.07,4.11,4.11,0,0,1,0,2.44,3.64,3.64,0,0,1-1.33,2.05,5.12,5.12,0,0,1-2.44,1,7.28,7.28,0,0,1-3-.16,8.08,8.08,0,0,1-2.72-1.24,4.82,4.82,0,0,1-1.65-2,3.69,3.69,0,0,1-.17-2.46q.62-2.39,3.68-3.27a6.21,6.21,0,0,1-2.17-2.39A4.39,4.39,0,0,1,235.66,554.84Zm6.92,10.44a2.22,2.22,0,0,0-.19-1.64,4.78,4.78,0,0,0-1.52-1.55l-.85-.56a5.33,5.33,0,0,0-1.85,1,2.81,2.81,0,0,0-.87,1.41,2.05,2.05,0,0,0,.33,1.83,3,3,0,0,0,1.73,1.07,3.07,3.07,0,0,0,2-.11A2,2,0,0,0,242.58,565.28Zm-3.87-9.46a2.23,2.23,0,0,0,.64,2.39,12.14,12.14,0,0,0,1.54,1.26l1.06.72a4.31,4.31,0,0,0,2.19-.84,3.29,3.29,0,0,0,1.08-1.77,2.41,2.41,0,0,0-.38-2.18,3.93,3.93,0,0,0-2.23-1.29,3.88,3.88,0,0,0-2.57.07A2.28,2.28,0,0,0,238.71,555.82Z" fill="#f7f5f5"/>
          <path d="M219.27,558.33a3.72,3.72,0,0,1,1.51-2.07,4,4,0,0,1,2.42-.62v0a4.32,4.32,0,0,1-2.12-2.05,4,4,0,0,1-.06-3,4.16,4.16,0,0,1,2.7-3,7.4,7.4,0,0,1,4.51.24l6.21,2L229.22,566l-6.14-2a6.76,6.76,0,0,1-3.41-2.16A3.69,3.69,0,0,1,219.27,558.33Zm7.79,4.49,1.44-4.48-2.71-.88a3.16,3.16,0,0,0-2.18-.06,2.28,2.28,0,0,0-1.25,1.53,2,2,0,0,0,.18,1.86,3.88,3.88,0,0,0,2,1.2Zm2.13-6.6,1.62-5-2.77-.9a4.32,4.32,0,0,0-2.53-.16,2.31,2.31,0,0,0-1.51,1.68,2.29,2.29,0,0,0,.18,2.1,4,4,0,0,0,2.11,1.34Z" fill="#f7f5f5"/>
        </g>
        <g>
          <path d="M269.43,536.72l1.41.16-.59,5.23,6.07.69.6-5.23,1.41.16L277.05,549l-1.41-.16.55-4.88-6.07-.7-.56,4.88-1.41-.16Z" fill="#f7f5f5"/>
          <path d="M259.46,538.81l6,.94a3.12,3.12,0,0,0-.43-2.08,2.49,2.49,0,0,0-1.78-1,4,4,0,0,0-1.34,0,5.07,5.07,0,0,0-1.25.41l-.47-1a5.37,5.37,0,0,1,1.57-.52,5.58,5.58,0,0,1,1.73,0,3.73,3.73,0,0,1,2.71,1.63,4.6,4.6,0,0,1,.54,3.28,5.07,5.07,0,0,1-.79,2.12,3.42,3.42,0,0,1-1.52,1.28,3.86,3.86,0,0,1-2.11.21,3.33,3.33,0,0,1-2.5-1.56,4.68,4.68,0,0,1-.45-3.17A3.91,3.91,0,0,1,259.46,538.81Zm1.12,1.24a3.16,3.16,0,0,0,.31,2,2.06,2.06,0,0,0,1.58,1,2.12,2.12,0,0,0,1.85-.48,3.16,3.16,0,0,0,1-1.8Z" fill="#f7f5f5"/>
          <path d="M258.21,537.21a2.28,2.28,0,0,1-1.55,1.93,7.4,7.4,0,0,1-3.5-.06c-.37-.07-.65-.13-.83-.18l-.09.45a1.75,1.75,0,0,0,.22,1.43,2.19,2.19,0,0,0,1.4.74,4.7,4.7,0,0,0,2.54-.2l.29,1a5.68,5.68,0,0,1-3.11.25,3.41,3.41,0,0,1-2.3-1.28,3.3,3.3,0,0,1-.31-2.54l.65-3.26a16.64,16.64,0,0,0,.24-1.8l1.22.25a6.79,6.79,0,0,1-.1,1.1H253a2.85,2.85,0,0,1,1.3-.75,4,4,0,0,1,1.78,0,2.75,2.75,0,0,1,1.74,1A2.28,2.28,0,0,1,258.21,537.21Zm-5.49-.29-.21,1,.71.15a9,9,0,0,0,1.9.22,2.09,2.09,0,0,0,1.15-.33,1.59,1.59,0,0,0,.54-1,1.36,1.36,0,0,0-.2-1.14,1.65,1.65,0,0,0-1.05-.59,2.61,2.61,0,0,0-1.37.06,2.32,2.32,0,0,0-1,.65A2.08,2.08,0,0,0,252.72,536.92Z" fill="#f7f5f5"/>
          <path d="M245.6,543.87l2.53-11,1.33.3-2.53,11Z" fill="#f7f5f5"/>
          <path d="M241.91,539.69l-2.1-.53.26-1,2.09.53,1.21-4.76c.22-.85-.06-1.37-.83-1.56a2.29,2.29,0,0,0-.81-.09l.05-1a3.35,3.35,0,0,1,1.27.11,2.32,2.32,0,0,1,1.49,1,2.26,2.26,0,0,1,.18,1.8L243.48,539l1.4.35-.22.86-1.42-.2-.49,1.94-1.46.12Z" fill="#f7f5f5"/>
          <path d="M236.89,541.68l-1.31-.39,1.23-4.14h0a2.91,2.91,0,0,1-1.32.64,3.54,3.54,0,0,1-1.74-.12,2.76,2.76,0,0,1-1.92-1.5,3.31,3.31,0,0,1-.08-2.33l1.5-5.05,1.3.39L233.1,534a2.6,2.6,0,0,0,0,1.68,1.84,1.84,0,0,0,1.3,1,2.29,2.29,0,0,0,1.91-.2,2.61,2.61,0,0,0,1.15-1.57l1.33-4.48,1.3.39Z" fill="#f7f5f5"/>
        </g>
      </g>
      <g>
        <g>
          <path d="M537.65,403.17l-1.69-.75,1-2.26,1.6.72a10.08,10.08,0,0,1,1.6-2.3,7.25,7.25,0,0,1,1.93-1.41l1,2.1a7.06,7.06,0,0,0-1.57,1.3,6.7,6.7,0,0,0-1.12,1.78c-.89,2-.67,3.31.68,3.91a1.81,1.81,0,0,0,1.18.15,2.34,2.34,0,0,0,1-.65,16.31,16.31,0,0,0,1.36-1.6,9,9,0,0,1,3-2.67,3.54,3.54,0,0,1,3,.09,3.66,3.66,0,0,1,2.09,2.24,5.6,5.6,0,0,1,0,3.41l1.63.73-1,2.25-1.6-.71a9.06,9.06,0,0,1-3.19,3.31l-1.12-2a10.28,10.28,0,0,0,1.6-1.42,7.08,7.08,0,0,0,1.13-1.81q1.14-2.53-.55-3.29a1.57,1.57,0,0,0-1-.15,2.35,2.35,0,0,0-1,.6,13.21,13.21,0,0,0-1.28,1.53,8.73,8.73,0,0,1-3.06,2.82A3.86,3.86,0,0,1,540,409a4.05,4.05,0,0,1-2.3-2.37A5.91,5.91,0,0,1,537.65,403.17Z" fill="#fff"/>
          <path d="M532.16,422.41a4.22,4.22,0,0,1-1.84-1.85,5.44,5.44,0,0,1-.51-2.85,10,10,0,0,1,3.23-6.25,5.32,5.32,0,0,1,2.59-1.2,4.2,4.2,0,0,1,2.55.45,4.26,4.26,0,0,1,2,2,7,7,0,0,1,.47,3.15,4.84,4.84,0,0,1,2.37-1.05,4.18,4.18,0,0,1,2.38.54,3.77,3.77,0,0,1,1.7,1.76,5.22,5.22,0,0,1,.44,2.61,7.41,7.41,0,0,1-.84,2.88A8,8,0,0,1,544.9,425a4.77,4.77,0,0,1-2.32,1.16,3.73,3.73,0,0,1-2.43-.39c-1.46-.76-2.24-2.21-2.35-4.33A6.13,6.13,0,0,1,535,423,4.35,4.35,0,0,1,532.16,422.41Zm1.64-2.75a2.26,2.26,0,0,0,2.48-.08,12.93,12.93,0,0,0,1.58-1.22l.94-.86a4.31,4.31,0,0,0-.32-2.33,3.3,3.3,0,0,0-1.48-1.45,2.42,2.42,0,0,0-2.21-.13,4,4,0,0,0-1.76,1.88,3.9,3.9,0,0,0-.52,2.52A2.29,2.29,0,0,0,533.8,419.66ZM543.9,418a2.23,2.23,0,0,0-1.64-.18A4.77,4.77,0,0,0,540.4,419l-.74.7a5.47,5.47,0,0,0,.55,2,2.72,2.72,0,0,0,1.18,1.17,2.06,2.06,0,0,0,1.85.1,3.4,3.4,0,0,0,1.79-3.45A2,2,0,0,0,543.9,418Z" fill="#fff"/>
          <path d="M528.44,423a1.6,1.6,0,0,1,.65,2.48,1.74,1.74,0,0,1-1.11,1,2,2,0,0,1-1.35-.29,1.91,1.91,0,0,1-.92-1,1.74,1.74,0,0,1,.26-1.44A1.6,1.6,0,0,1,528.44,423Z" fill="#fff"/>
          <path d="M531.35,431.92q3.67,2.35,4.73,5A6.21,6.21,0,0,1,530.9,445c-1.88.11-4-.63-6.5-2.19s-4-3.23-4.73-5a5.55,5.55,0,0,1,.67-5.31,5.49,5.49,0,0,1,4.51-2.81C526.73,429.62,528.89,430.36,531.35,431.92Zm-5.27,8.26a11.47,11.47,0,0,0,4.43,1.93,2.94,2.94,0,0,0,2.78-4.35,11.52,11.52,0,0,0-3.62-3.21,11.24,11.24,0,0,0-4.44-1.94,3,3,0,0,0-2.79,4.36A11.43,11.43,0,0,0,526.08,440.18Z" fill="#fff"/>
          <path d="M519.11,457.38a3.71,3.71,0,0,1-1.5-2.07,3.94,3.94,0,0,1,.17-2.5l0,0a4.29,4.29,0,0,1-2.61,1.37,4,4,0,0,1-2.84-.87,4.14,4.14,0,0,1-2-3.5,7.46,7.46,0,0,1,1.63-4.21l3.85-5.27,13.73,10-3.81,5.22a6.89,6.89,0,0,1-3.12,2.56A3.65,3.65,0,0,1,519.11,457.38Zm1.09-10.08L516,444.2l-1.71,2.35a4.36,4.36,0,0,0-1,2.35,2.31,2.31,0,0,0,1.13,2,2.27,2.27,0,0,0,2.05.49,3.92,3.92,0,0,0,1.93-1.59Zm5.6,4.09-3.8-2.77-1.68,2.3a3.12,3.12,0,0,0-.74,2.05,2.28,2.28,0,0,0,1.06,1.67,2,2,0,0,0,1.82.41,3.82,3.82,0,0,0,1.75-1.49Z" fill="#fff"/>
        </g>
        <g>
          <path d="M530.23,392.08l2-5.07-3.54-1.4L527,390l-1-.39,1.74-4.43-3.84-1.51-2.1,5.33-1.09-.43,2.61-6.64,10.55,4.15-2.52,6.39Z" fill="#fff"/>
          <path d="M517.22,396.6l.5-1.16a8.78,8.78,0,0,1,1.16.38v0a3.2,3.2,0,0,1-.17-3.24,3.17,3.17,0,0,1,2.14-2,4.91,4.91,0,0,1,3.2.38,5.17,5.17,0,0,1,1.84,1.29,3.79,3.79,0,0,1,.91,1.82,3.58,3.58,0,0,1-.27,2.06,3.54,3.54,0,0,1-2,2l3.69,1.59-.54,1.25-8.74-3.77A14.2,14.2,0,0,0,517.22,396.6Zm3.8,0,2.35,1a2.92,2.92,0,0,0,2.08-1.78,2.22,2.22,0,0,0-.09-2.07,3.72,3.72,0,0,0-1.86-1.54,3.68,3.68,0,0,0-2.39-.32,2.15,2.15,0,0,0-1.51,1.32,2.43,2.43,0,0,0-.05,2A2.71,2.71,0,0,0,521,396.64Z" fill="#fff"/>
          <path d="M519.07,400.15l4.5,2.16-.59,1.24-4.33-2.07a3.05,3.05,0,0,0-1.84-.34,1.73,1.73,0,0,0-1.26,1.07,2.19,2.19,0,0,0,0,2,3.28,3.28,0,0,0,1.6,1.51l3.92,1.87-.58,1.23-5.72-2.73a15.91,15.91,0,0,0-1.68-.68l.56-1.17a11.22,11.22,0,0,1,1.22.46v0a3,3,0,0,1-.16-3.2,2.82,2.82,0,0,1,1.84-1.66A3.75,3.75,0,0,1,519.07,400.15Z" fill="#fff"/>
          <path d="M517.72,414.6a4.54,4.54,0,0,1-.88,1.19,4.41,4.41,0,0,1-1.15.8l-.58-.92a3.56,3.56,0,0,0,1.61-1.6,2.37,2.37,0,0,0,.16-2.15,3.61,3.61,0,0,0-1.72-1.66,3.66,3.66,0,0,0-2.33-.47,2.38,2.38,0,0,0-1.69,1.34,4.08,4.08,0,0,0-.41,2.26h-1.08a4.61,4.61,0,0,1,.52-2.87,3.86,3.86,0,0,1,1.59-1.71,3.5,3.5,0,0,1,2-.39,5.49,5.49,0,0,1,2,.63,4.43,4.43,0,0,1,2.27,2.4A3.82,3.82,0,0,1,517.72,414.6Z" fill="#fff"/>
          <path d="M510.46,415.18a2.25,2.25,0,0,1,1.34,2.08,7.37,7.37,0,0,1-1.18,3.3c-.18.32-.33.57-.43.73l.4.23a1.79,1.79,0,0,0,1.43.25,2.25,2.25,0,0,0,1.14-1.1,4.66,4.66,0,0,0,.62-2.47l1,0a5.56,5.56,0,0,1-.76,3,3.43,3.43,0,0,1-1.94,1.78,3.35,3.35,0,0,1-2.5-.53l-2.89-1.65a15.25,15.25,0,0,0-1.62-.8l.62-1.09a8.17,8.17,0,0,1,1,.45l0,0a2.8,2.8,0,0,1-.29-1.47,3.91,3.91,0,0,1,.58-1.69,2.75,2.75,0,0,1,1.49-1.33A2.24,2.24,0,0,1,510.46,415.18Zm-2,5.11.91.52.38-.62a9.32,9.32,0,0,0,.81-1.73,2,2,0,0,0,0-1.19,1.54,1.54,0,0,0-.76-.83,1.33,1.33,0,0,0-1.14-.18,1.7,1.7,0,0,0-.9.81,2.69,2.69,0,0,0-.38,1.32,2.36,2.36,0,0,0,.3,1.14A2,2,0,0,0,508.44,420.29Z" fill="#fff"/>
          <path d="M509.92,427.76l-1.14,1.84-.88-.55,1.14-1.84-4.18-2.58a1.12,1.12,0,0,0-1.75.33,2.52,2.52,0,0,0-.32.74l-1-.36a3.53,3.53,0,0,1,.49-1.18,2.32,2.32,0,0,1,1.4-1.12,2.28,2.28,0,0,1,1.77.37l4.27,2.65.76-1.23.75.47-.61,1.29,1.7,1.06-.32,1.42Z" fill="#fff"/>
          <path d="M500.12,428l.74-1.13,6.82,4.45-.74,1.14Zm10,4.67a.88.88,0,0,1-1,1.48.9.9,0,0,1-.39-.5.88.88,0,0,1,.18-.69.85.85,0,0,1,.57-.45A.84.84,0,0,1,510.12,432.65Z" fill="#fff"/>
          <path d="M497.64,438.78a5,5,0,0,1-1.56-1.69,3.63,3.63,0,0,1-.43-2,4.23,4.23,0,0,1,.82-2.12,4.1,4.1,0,0,1,1.71-1.47,3.64,3.64,0,0,1,2.06-.27,4.92,4.92,0,0,1,2.11.9,4.43,4.43,0,0,1,1.93,2.67,3.86,3.86,0,0,1-.79,3.12,4.4,4.4,0,0,1-1.71,1.51,3.54,3.54,0,0,1-2,.28A5,5,0,0,1,497.64,438.78Zm3.9-5.53a3.84,3.84,0,0,0-2.3-.81,2.34,2.34,0,0,0-1.88,1.13,2.41,2.41,0,0,0-.45,2.17,3.82,3.82,0,0,0,1.53,1.9,3.73,3.73,0,0,0,2.29.79,2.43,2.43,0,0,0,1.87-1.16,2.38,2.38,0,0,0,.46-2.15A3.77,3.77,0,0,0,501.54,433.25Z" fill="#fff"/>
          <path d="M498,442a15.37,15.37,0,0,0,1.51,1l-.8,1a7.72,7.72,0,0,1-1-.62l0,0a2.86,2.86,0,0,1,.1,1.49,3.72,3.72,0,0,1-.76,1.58,2.84,2.84,0,0,1-2.11,1.25,3.38,3.38,0,0,1-2.2-.78l-4.14-3.25.83-1.07,3.93,3.08a2.55,2.55,0,0,0,1.56.61,1.8,1.8,0,0,0,1.46-.83,2.29,2.29,0,0,0,.52-1.84,2.59,2.59,0,0,0-1-1.65l-3.68-2.88.84-1.07Z" fill="#fff"/>
        </g>
      </g>
    </g>
  </g>
</svg>
