<svg xmlns="http://www.w3.org/2000/svg" xmlns:xlink="http://www.w3.org/1999/xlink" viewBox="0 0 1529.19 912.25">
  <defs>
    <clipPath id="clip-path">
      <rect x="127.52" y="120.25" width="364.09" height="306" fill="none"/>
    </clipPath>
    <clipPath id="clip-path-2">
      <rect x="126" y="120.25" width="365.61" height="306" fill="none"/>
    </clipPath>
  </defs>
  <title>Asset 12</title>
  <g id="Layer_2" data-name="Layer 2">
    <g id="Layer_1-2" data-name="Layer 1">
      <path d="M450,237.25c19.2-30.1,119.85-181.47,297-207,85.94-12.38,159.82,9.18,189,18,92.82,28.07,155.91,77.73,189,108" fill="none" stroke="#d9f0f8" stroke-linecap="round" stroke-miterlimit="10" stroke-width="4.52" stroke-dasharray="0 12.37"/>
      <path d="M468,237.25c9.31-13.52,123.31-173.1,324-171,168.8,1.77,272,116.59,288,135" fill="none" stroke="#d9f0f8" stroke-linecap="round" stroke-miterlimit="10" stroke-width="4.52" stroke-dasharray="0 12.37"/>
      <path d="M477,246.25c9.62-11.87,126.49-150.93,315-135,177.85,15,269.17,155.32,279,171" fill="none" stroke="#d9f0f8" stroke-linecap="round" stroke-miterlimit="10" stroke-width="4.52" stroke-dasharray="0 12.37"/>
      <path d="M1050.4,871.81v-588C1050.4,165.9,1146,70.28,1264,70.28h265.23v588c0,117.94-147.29,213.55-265.23,213.55Z" fill="#214386"/>
      <g>
        <path d="M1139.73,241.1h7.12c7.83,0,12.16,4.2,12.16,10.78s-4.38,10.78-12.16,10.78h-2.7v6.75h-4.42Zm7,17.69c5.58,0,7.83-2.62,7.83-6.91s-2.29-6.91-7.83-6.91h-2.53v13.82Z" fill="#fff"/>
        <path d="M1161.67,260.66a9.43,9.43,0,1,1,9.45,9.12A9.13,9.13,0,0,1,1161.67,260.66Zm14.52,0c0-3.2-2-5.45-5.07-5.45s-5.12,2.25-5.12,5.45,2,5.5,5.12,5.5S1176.19,263.87,1176.19,260.66Z" fill="#fff"/>
        <path d="M1185.55,263.49v-8h-2.62v-3.54h2.62v-9.11h4.21v9.11h4.66v3.54h-4.66v8.12c0,2,.66,2.58,1.75,2.58a3.13,3.13,0,0,0,2.08-.83l2,2.83a6.22,6.22,0,0,1-4.5,1.66C1187.8,269.82,1185.55,268.16,1185.55,263.49Z" fill="#fff"/>
        <path d="M1207,266.24a7.05,7.05,0,0,0,5-1.87l2.46,2.58a9.8,9.8,0,0,1-7.37,2.83c-6,0-9.86-3.87-9.86-9.12a9.05,9.05,0,0,1,9.32-9.11c6,0,9.32,4.41,9,10.53h-14.07C1202,264.62,1203.78,266.24,1207,266.24Zm4.29-7.07a4.46,4.46,0,0,0-4.75-4.13,4.81,4.81,0,0,0-5.08,4.13Z" fill="#fff"/>
        <path d="M1219.56,251.92h4.2l-.08,3.25a6.32,6.32,0,0,1,5.91-3.62c3.87,0,6.53,2.75,6.53,7.49v10.37h-4.2v-10c0-2.49-1.17-4-3.62-4a4.19,4.19,0,0,0-4.54,4.5v9.49h-4.2Z" fill="#fff"/>
        <path d="M1241.91,263.49v-8h-2.63v-3.54h2.63v-9.11h4.2v9.11h4.66v3.54h-4.66v8.12c0,2,.67,2.58,1.75,2.58a3.13,3.13,0,0,0,2.08-.83l2,2.83a6.22,6.22,0,0,1-4.5,1.66C1244.15,269.82,1241.91,268.16,1241.91,263.49Z" fill="#fff"/>
        <path d="M1254.52,245.14a2.79,2.79,0,1,1,2.79,2.79A2.76,2.76,0,0,1,1254.52,245.14Zm.66,6.78h4.25v17.49h-4.25Z" fill="#fff"/>
        <path d="M1263.63,260.62c0-5.24,3.5-9.07,8.08-9.07a6.27,6.27,0,0,1,6,3.58l0-3.21h4.2v17.49h-4.2l0-3.25a6.47,6.47,0,0,1-6,3.62C1267.21,269.78,1263.63,265.91,1263.63,260.62Zm14.11,0c0-3.16-1.87-5.37-5-5.37s-4.79,2.17-4.79,5.33,1.79,5.46,4.79,5.46S1277.74,263.87,1277.74,260.66Z" fill="#fff"/>
        <path d="M1287,239.35h4.21v30.06H1287Z" fill="#fff"/>
        <path d="M1307.16,241.1h4.38v28.31h-4.38Z" fill="#fff"/>
        <path d="M1317.53,251.92h4.2l-.08,3a5.68,5.68,0,0,1,5.2-3.37,5.16,5.16,0,0,1,5.12,3.33,7,7,0,0,1,6-3.33c4.12,0,6.57,2.75,6.57,7.2v10.66h-4.2V259.17c0-2.42-.88-3.75-3.29-3.75s-3.91,1.5-3.91,4.41v9.58h-4.21V259.17c0-2.42-.83-3.75-3.24-3.75s-4,1.5-4,4.41v9.58h-4.2Z" fill="#fff"/>
        <path d="M1349.57,251.92h4.25l-.12,3.25a6.62,6.62,0,0,1,6.2-3.62c4.49,0,8.11,3.79,8.11,9.07s-3.66,9.16-8.2,9.16a6.42,6.42,0,0,1-6-3.37v11.82h-4.25Zm14.12,8.7c0-3.16-1.92-5.33-5-5.33s-5.08,2.17-5.08,5.33,2,5.46,5.08,5.46S1363.69,263.91,1363.69,260.62Z" fill="#fff"/>
        <path d="M1371.38,260.62c0-5.24,3.5-9.07,8.08-9.07a6.27,6.27,0,0,1,6,3.58l0-3.21h4.2v17.49h-4.2l0-3.25a6.46,6.46,0,0,1-6,3.62C1375,269.78,1371.38,265.91,1371.38,260.62Zm14.11,0c0-3.16-1.87-5.37-5-5.37s-4.79,2.17-4.79,5.33,1.79,5.46,4.79,5.46S1385.49,263.87,1385.49,260.66Z" fill="#fff"/>
        <path d="M1393.81,260.66a9,9,0,0,1,9.33-9.11,8.36,8.36,0,0,1,7.07,3.33l-3,2.41a4.89,4.89,0,0,0-4.08-2c-3.12,0-5,2.29-5,5.41s1.88,5.42,5,5.42a5.36,5.36,0,0,0,4.29-2l2.87,2.5a8.74,8.74,0,0,1-7.16,3.16A9,9,0,0,1,1393.81,260.66Z" fill="#fff"/>
        <path d="M1415.62,263.49v-8H1413v-3.54h2.62v-9.11h4.21v9.11h4.66v3.54h-4.66v8.12c0,2,.66,2.58,1.75,2.58a3.16,3.16,0,0,0,2.08-.83l2,2.83a6.22,6.22,0,0,1-4.5,1.66C1417.87,269.82,1415.62,268.16,1415.62,263.49Z" fill="#fff"/>
      </g>
      <g>
        <path d="M605,444.77H594.27v-4.92h26.91v4.92H610.5v31H605Z" fill="#3278b3"/>
        <path d="M625.52,437.63h5.34v19.88a8,8,0,0,1,7.41-4.39c4.92,0,8.3,3.5,8.3,9.52v13.17h-5.34V463.07c0-3.18-1.48-5-4.6-5-3.49,0-5.77,2.12-5.77,5.71v12.06h-5.34Z" fill="#3278b3"/>
        <path d="M664,471.79a9,9,0,0,0,6.29-2.38l3.12,3.28a12.4,12.4,0,0,1-9.36,3.6c-7.61,0-12.53-4.92-12.53-11.58a11.51,11.51,0,0,1,11.84-11.59c7.57,0,11.85,5.61,11.48,13.38H656.94C657.57,469.73,659.9,471.79,664,471.79Zm5.45-9c-.48-3-2.33-5.23-6-5.23a6.09,6.09,0,0,0-6.45,5.23Z" fill="#3278b3"/>
        <path d="M693.74,439.85h5.56v36h-5.56Z" fill="#3278b3"/>
        <path d="M706.75,453.6h5.34l-.1,3.81a7.25,7.25,0,0,1,6.61-4.29,6.55,6.55,0,0,1,6.5,4.24,8.92,8.92,0,0,1,7.62-4.24c5.24,0,8.36,3.5,8.36,9.15v13.54h-5.35v-13c0-3.06-1.11-4.76-4.17-4.76s-5,1.91-5,5.61v12.16h-5.35v-13c0-3.06-1-4.76-4.12-4.76s-5,1.91-5,5.61v12.16h-5.34Z" fill="#3278b3"/>
        <path d="M747.32,453.6h5.39l-.16,4.13a8.42,8.42,0,0,1,7.88-4.61c5.71,0,10.32,4.82,10.32,11.53s-4.66,11.64-10.42,11.64a8.17,8.17,0,0,1-7.62-4.28v15h-5.39Zm17.93,11c0-4-2.44-6.77-6.3-6.77s-6.45,2.75-6.45,6.77c0,4.18,2.54,6.93,6.45,6.93S765.25,468.83,765.25,464.65Z" fill="#3278b3"/>
        <path d="M774.82,464.65c0-6.66,4.44-11.53,10.26-11.53a8,8,0,0,1,7.61,4.55l-.05-4.07H798v22.21h-5.34l.05-4.12a8.21,8.21,0,0,1-7.67,4.6C779.37,476.29,774.82,471.37,774.82,464.65Zm17.93.06c0-4-2.38-6.83-6.3-6.83s-6.08,2.75-6.08,6.77,2.27,6.93,6.08,6.93S792.75,468.78,792.75,464.71Z" fill="#3278b3"/>
        <path d="M803.16,464.71A11.45,11.45,0,0,1,815,453.12a10.63,10.63,0,0,1,9,4.24l-3.81,3.06a6.17,6.17,0,0,0-5.18-2.59c-4,0-6.35,2.91-6.35,6.88s2.38,6.87,6.35,6.87a6.79,6.79,0,0,0,5.45-2.48l3.65,3.17a11.08,11.08,0,0,1-9.1,4C808.24,476.29,803.16,471.37,803.16,464.71Z" fill="#3278b3"/>
        <path d="M830.77,468.3V458.1h-3.33v-4.5h3.33V442h5.34V453.6H842v4.5h-5.93v10.31c0,2.54.85,3.28,2.22,3.28a4,4,0,0,0,2.65-1.06l2.54,3.6a7.9,7.9,0,0,1-5.71,2.11C833.63,476.34,830.77,474.23,830.77,468.3Z" fill="#3278b3"/>
        <path d="M859.22,457.83a18.11,18.11,0,0,1,18.51-18.4c6.24,0,11.37,2.27,14.6,7.35L888,449.9a11.43,11.43,0,0,0-10.26-5.45c-7.51,0-12.8,5.71-12.8,13.38s5.35,13.49,12.86,13.49c6.87,0,10.94-4,11.79-8.68h-11v-4.86H895.5c.21,11.1-6.24,18.51-17.66,18.51C867.21,476.29,859.22,468.51,859.22,457.83Z" fill="#3278b3"/>
        <path d="M899.63,464.65c0-6.66,4.44-11.53,10.26-11.53a8,8,0,0,1,7.61,4.55l0-4.07h5.34v22.21h-5.34l0-4.12a8.21,8.21,0,0,1-7.67,4.6C904.18,476.29,899.63,471.37,899.63,464.65Zm17.93.06c0-4-2.38-6.83-6.3-6.83s-6.08,2.75-6.08,6.77,2.27,6.93,6.08,6.93S917.56,468.78,917.56,464.71Z" fill="#3278b3"/>
        <path d="M929.14,453.6h5.39l-.16,4.13a8.43,8.43,0,0,1,7.88-4.61c5.72,0,10.32,4.82,10.32,11.53s-4.66,11.64-10.42,11.64a8.18,8.18,0,0,1-7.62-4.28v15h-5.39Zm17.93,11c0-4-2.44-6.77-6.3-6.77s-6.45,2.75-6.45,6.77c0,4.18,2.54,6.93,6.45,6.93S947.07,468.83,947.07,464.65Z" fill="#3278b3"/>
      </g>
      <path d="M533.89,912.25V554c0-126.66-95.61-229.34-213.56-229.34H0V682.91C0,809.57,202.39,912.25,320.33,912.25Z" fill="#81c8ef"/>
      <g>
        <path d="M165.41,474.5A14.22,14.22,0,0,1,179.93,460c5.08,0,8.83,1.88,11.33,5.62l-3.37,2.42a9,9,0,0,0-8-4.08c-5.86,0-10,4.49-10,10.53s4.17,10.57,10,10.57a9.52,9.52,0,0,0,8.37-4.45l3.37,2.37a13.38,13.38,0,0,1-11.74,6A14.25,14.25,0,0,1,165.41,474.5Z" fill="#fff"/>
        <path d="M195.25,480.87v-9.7h4.2v9.57c0,3,1.13,4.62,3.92,4.62s3.91-1.62,3.91-4.62v-9.57h4.2v9.7c0,5.12-3.08,8.2-8.28,8.2S195.25,486,195.25,480.87Z" fill="#fff"/>
        <path d="M216.43,471.17h4.21l0,3.29a5.5,5.5,0,0,1,8-2.88l-1.42,3.79a4.81,4.81,0,0,0-2.29-.58c-2.5,0-4.2,1.46-4.2,5.37v8.49h-4.21Z" fill="#fff"/>
        <path d="M231.66,471.17h4.21l0,3.29a5.5,5.5,0,0,1,7.95-2.88l-1.42,3.79a4.78,4.78,0,0,0-2.29-.58c-2.49,0-4.2,1.46-4.2,5.37v8.49h-4.21Z" fill="#fff"/>
        <path d="M255.14,485.49a7.05,7.05,0,0,0,4.95-1.88l2.46,2.58a9.79,9.79,0,0,1-7.37,2.84c-6,0-9.86-3.88-9.86-9.12a9.06,9.06,0,0,1,9.32-9.12c5.95,0,9.32,4.42,9,10.53H249.6C250.1,483.86,251.93,485.49,255.14,485.49Zm4.29-7.08a4.46,4.46,0,0,0-4.75-4.12,4.81,4.81,0,0,0-5.08,4.12Z" fill="#fff"/>
        <path d="M267.71,471.17h4.2l-.08,3.24a6.34,6.34,0,0,1,5.91-3.62c3.87,0,6.53,2.75,6.53,7.5v10.36h-4.2v-10c0-2.5-1.17-4-3.62-4a4.19,4.19,0,0,0-4.54,4.5v9.49h-4.2Z" fill="#fff"/>
        <path d="M290.06,482.74v-8h-2.63v-3.54h2.63v-9.12h4.2v9.12h4.66v3.54h-4.66v8.11c0,2,.67,2.58,1.75,2.58a3.09,3.09,0,0,0,2.08-.83l2,2.83a6.22,6.22,0,0,1-4.5,1.67C292.3,489.07,290.06,487.4,290.06,482.74Z" fill="#fff"/>
        <path d="M314.07,460.35h4.37v28.3h-4.37Z" fill="#fff"/>
        <path d="M324.43,471.17h4.21l-.09,3a5.72,5.72,0,0,1,5.21-3.38,5.18,5.18,0,0,1,5.12,3.33,7,7,0,0,1,6-3.33c4.12,0,6.58,2.75,6.58,7.2v10.66h-4.21V478.41c0-2.41-.87-3.75-3.29-3.75s-3.91,1.5-3.91,4.42v9.57h-4.2V478.41c0-2.41-.84-3.75-3.25-3.75s-3.95,1.5-3.95,4.42v9.57h-4.21Z" fill="#fff"/>
        <path d="M356.48,471.17h4.24l-.12,3.24a6.62,6.62,0,0,1,6.2-3.62c4.5,0,8.12,3.79,8.12,9.08s-3.66,9.16-8.2,9.16a6.43,6.43,0,0,1-6-3.38v11.83h-4.24Zm14.11,8.7c0-3.17-1.92-5.33-4.95-5.33s-5.08,2.16-5.08,5.33,2,5.45,5.08,5.45S370.59,483.16,370.59,479.87Z" fill="#fff"/>
        <path d="M378.25,479.87c0-5.25,3.49-9.08,8.07-9.08a6.27,6.27,0,0,1,6,3.58l0-3.2h4.21v17.48h-4.21l0-3.25a6.44,6.44,0,0,1-6,3.63C381.83,489,378.25,485.15,378.25,479.87Zm14.11,0c0-3.16-1.88-5.37-5-5.37s-4.78,2.16-4.78,5.33,1.79,5.45,4.78,5.45S392.36,483.11,392.36,479.91Z" fill="#fff"/>
        <path d="M400.68,479.91a9,9,0,0,1,9.32-9.12,8.39,8.39,0,0,1,7.08,3.33l-3,2.42a4.86,4.86,0,0,0-4.08-2c-3.12,0-5,2.29-5,5.41s1.87,5.41,5,5.41a5.33,5.33,0,0,0,4.29-2l2.87,2.5A8.72,8.72,0,0,1,410,489,9,9,0,0,1,400.68,479.91Z" fill="#fff"/>
        <path d="M422.49,482.74v-8h-2.63v-3.54h2.63v-9.12h4.2v9.12h4.66v3.54h-4.66v8.11c0,2,.67,2.58,1.75,2.58a3.09,3.09,0,0,0,2.08-.83l2,2.83a6.22,6.22,0,0,1-4.5,1.67C424.73,489.07,422.49,487.4,422.49,482.74Z" fill="#fff"/>
      </g>
      <path d="M841.7,78.13A78.14,78.14,0,1,1,763.57,0,78.13,78.13,0,0,1,841.7,78.13" fill="#f3785f"/>
      <path d="M653.45,148.51a78.14,78.14,0,1,1-78.13-78.14,78.13,78.13,0,0,1,78.13,78.14" fill="#3998d4"/>
      <path d="M1047.07,111.27a78.14,78.14,0,1,1-78.14-78.14,78.14,78.14,0,0,1,78.14,78.14" fill="#702c90"/>
      <g clip-path="url(#clip-path)">
        <g clip-path="url(#clip-path-2)">
          <image width="1021" height="855" transform="translate(126 120.25) scale(0.36 0.36)" xlink:href="Asset%20121.png"/>
        </g>
      </g>
      <g>
        <path d="M529.25,142.28H525v-1.95H535.7v1.95h-4.24v12.33h-2.21Z" fill="#fff"/>
        <path d="M540.51,153a3.56,3.56,0,0,0,2.5-.95l1.24,1.31a5,5,0,0,1-3.72,1.42c-3,0-5-1.95-5-4.59a4.57,4.57,0,0,1,4.71-4.6c3,0,4.7,2.22,4.55,5.31h-7.09A2.54,2.54,0,0,0,540.51,153Zm2.16-3.57a2.24,2.24,0,0,0-2.39-2.08,2.42,2.42,0,0,0-2.56,2.08Z" fill="#fff"/>
        <path d="M546.56,150.2a4.54,4.54,0,0,1,4.7-4.6,4.23,4.23,0,0,1,3.57,1.68l-1.51,1.22a2.54,2.54,0,0,0-4.58,1.7,2.49,2.49,0,0,0,2.52,2.73,2.7,2.7,0,0,0,2.16-1l1.45,1.26a4.38,4.38,0,0,1-3.61,1.59A4.52,4.52,0,0,1,546.56,150.2Z" fill="#fff"/>
        <path d="M556.78,139.45h2.13v7.89a3.17,3.17,0,0,1,2.93-1.74c2,0,3.3,1.38,3.3,3.78v5.23H563v-5.06c0-1.26-.59-2-1.83-2a2.11,2.11,0,0,0-2.28,2.27v4.79h-2.13Z" fill="#fff"/>
        <path d="M567.77,145.79h2.12l0,1.63a3.18,3.18,0,0,1,3-1.82c1.95,0,3.29,1.38,3.29,3.78v5.23H574v-5.06c0-1.26-.58-2-1.82-2a2.11,2.11,0,0,0-2.29,2.27v4.79h-2.12Z" fill="#fff"/>
        <path d="M578.27,150.2a4.76,4.76,0,1,1,4.76,4.59A4.61,4.61,0,0,1,578.27,150.2Zm7.32,0a2.58,2.58,0,1,0-5.14,0,2.58,2.58,0,1,0,5.14,0Z" fill="#fff"/>
        <path d="M590.07,139.45h2.12v15.16h-2.12Z" fill="#fff"/>
        <path d="M594.46,150.2a4.76,4.76,0,1,1,4.76,4.59A4.61,4.61,0,0,1,594.46,150.2Zm7.33,0a2.58,2.58,0,1,0-5.15,0,2.58,2.58,0,1,0,5.15,0Z" fill="#fff"/>
        <path d="M605.88,157l1.53-1.14a3.37,3.37,0,0,0,3,1.66c1.6,0,2.57-.88,2.57-2.85v-1.54a3.31,3.31,0,0,1-3.05,1.7,4.62,4.62,0,0,1,0-9.19,3.37,3.37,0,0,1,3.15,1.82l-.06-1.63h2.12v8.94c0,3.23-2,4.54-4.58,4.54A5.1,5.1,0,0,1,605.88,157Zm7.12-6.78a2.48,2.48,0,0,0-2.56-2.69,2.73,2.73,0,0,0,0,5.44A2.51,2.51,0,0,0,613,150.18Z" fill="#fff"/>
        <path d="M620.37,153.81l-3.61-8h2.35L621,150.2a10.69,10.69,0,0,1,.5,1.82,9.42,9.42,0,0,1,.49-1.82l1.89-4.41H626l-5.77,13.27h-2.19Z" fill="#fff"/>
      </g>
      <g>
        <path d="M708.62,70h3.59c3.94,0,6.13,2.12,6.13,5.44s-2.21,5.43-6.13,5.43h-1.37v3.4h-2.22Zm3.5,8.92c2.81,0,4-1.32,4-3.48s-1.16-3.49-4-3.49h-1.28v7Z" fill="#fff"/>
        <path d="M719.87,79.8c0-2.64,1.76-4.57,4.07-4.57a3.18,3.18,0,0,1,3,1.8l0-1.61h2.12v8.81H727l0-1.63a3.27,3.27,0,0,1-3.05,1.82C721.68,84.42,719.87,82.47,719.87,79.8Zm7.12,0a2.45,2.45,0,0,0-2.5-2.71,2.39,2.39,0,0,0-2.41,2.68c0,1.64.9,2.75,2.41,2.75A2.46,2.46,0,0,0,727,79.83Z" fill="#fff"/>
        <path d="M731.76,75.42h2.12l0,1.65a2.78,2.78,0,0,1,4-1.44l-.72,1.91a2.36,2.36,0,0,0-1.15-.3c-1.26,0-2.12.74-2.12,2.71v4.28h-2.12Z" fill="#fff"/>
        <path d="M740.56,81.25v-4h-1.33V75.42h1.33v-4.6h2.12v4.6H745V77.2h-2.35v4.09c0,1,.33,1.31.88,1.31a1.57,1.57,0,0,0,1.05-.42l1,1.42a3.15,3.15,0,0,1-2.27.84C741.69,84.44,740.56,83.6,740.56,81.25Z" fill="#fff"/>
        <path d="M747.36,75.42h2.12l0,1.63a3.19,3.19,0,0,1,3-1.82c2,0,3.3,1.38,3.3,3.78v5.22H753.6V79.17c0-1.26-.59-2-1.83-2a2.11,2.11,0,0,0-2.29,2.27v4.78h-2.12Z" fill="#fff"/>
        <path d="M762.81,82.64a3.52,3.52,0,0,0,2.5-1L766.55,83a5,5,0,0,1-3.71,1.42c-3,0-5-2-5-4.59a4.57,4.57,0,0,1,4.7-4.6c3,0,4.71,2.22,4.56,5.31H760A2.55,2.55,0,0,0,762.81,82.64ZM765,79.07a2.25,2.25,0,0,0-2.4-2.08A2.43,2.43,0,0,0,760,79.07Z" fill="#fff"/>
        <path d="M769.3,75.42h2.12l0,1.65A2.68,2.68,0,0,1,774,75.25a2.59,2.59,0,0,1,1.44.38l-.71,1.91a2.39,2.39,0,0,0-1.15-.3c-1.26,0-2.13.74-2.13,2.71v4.28H769.3Z" fill="#fff"/>
        <path d="M776.17,82.6l1.45-1A2.72,2.72,0,0,0,780,82.72c1.07,0,1.56-.35,1.56-.94s-.66-.82-2.15-1.24c-1.3-.36-2.6-1-2.6-2.71s1.41-2.6,3.15-2.6A4,4,0,0,1,783,76.55l-1.24,1.22a2.36,2.36,0,0,0-1.83-.86c-.8,0-1.24.29-1.24.82s.55.81,1.93,1.17,2.9.9,2.9,2.77c0,1.51-.92,2.75-3.42,2.75A4.52,4.52,0,0,1,776.17,82.6Z" fill="#fff"/>
        <path d="M785.68,69.08h2.12V77a3.19,3.19,0,0,1,2.94-1.74c2,0,3.3,1.38,3.3,3.78v5.22h-2.12V79.17c0-1.26-.59-2-1.83-2a2.12,2.12,0,0,0-2.29,2.27v4.78h-2.12Z" fill="#fff"/>
        <path d="M796.35,72a1.41,1.41,0,1,1,1.41,1.41A1.39,1.39,0,0,1,796.35,72Zm.34,3.43h2.14v8.81h-2.14Z" fill="#fff"/>
        <path d="M801.56,75.42h2.14l-.06,1.63a3.33,3.33,0,0,1,3.13-1.82,4.27,4.27,0,0,1,4.09,4.57,4.32,4.32,0,0,1-4.14,4.62,3.23,3.23,0,0,1-3-1.7v6h-2.14Zm7.12,4.38a2.44,2.44,0,0,0-2.5-2.68,2.72,2.72,0,1,0,2.5,2.68Z" fill="#fff"/>
        <path d="M812.18,82.6l1.45-1A2.73,2.73,0,0,0,816,82.72c1.07,0,1.55-.35,1.55-.94s-.65-.82-2.14-1.24c-1.3-.36-2.61-1-2.61-2.71s1.41-2.6,3.15-2.6A4,4,0,0,1,819,76.55l-1.24,1.22a2.36,2.36,0,0,0-1.83-.86c-.79,0-1.23.29-1.23.82s.54.81,1.93,1.17,2.89.9,2.89,2.77c0,1.51-.92,2.75-3.42,2.75A4.53,4.53,0,0,1,812.18,82.6Z" fill="#fff"/>
      </g>
      <g>
        <path d="M918.53,110.23a7.17,7.17,0,0,1,7.33-7.3,6.38,6.38,0,0,1,5.71,2.83l-1.7,1.22a4.54,4.54,0,0,0-4-2.06,5.33,5.33,0,0,0,0,10.65,4.79,4.79,0,0,0,4.22-2.25l1.7,1.2a6.75,6.75,0,0,1-5.92,3A7.19,7.19,0,0,1,918.53,110.23Z" fill="#fff"/>
        <path d="M933.48,113a4.76,4.76,0,1,1,4.77,4.6A4.61,4.61,0,0,1,933.48,113Zm7.33,0a2.58,2.58,0,1,0-2.56,2.77A2.52,2.52,0,0,0,940.81,113Z" fill="#fff"/>
        <path d="M945.22,108.55h2.12l0,1.52a2.86,2.86,0,0,1,2.62-1.7,2.6,2.6,0,0,1,2.59,1.67,3.54,3.54,0,0,1,3-1.67c2.08,0,3.32,1.38,3.32,3.63v5.37h-2.12v-5.16c0-1.22-.44-1.89-1.66-1.89s-2,.75-2,2.22v4.83H951v-5.16c0-1.22-.42-1.89-1.63-1.89s-2,.75-2,2.22v4.83h-2.12Z" fill="#fff"/>
        <path d="M961.5,108.55h2.12l0,1.52a2.85,2.85,0,0,1,2.62-1.7,2.59,2.59,0,0,1,2.58,1.67,3.55,3.55,0,0,1,3-1.67c2.07,0,3.31,1.38,3.31,3.63v5.37H973v-5.16c0-1.22-.44-1.89-1.66-1.89s-2,.75-2,2.22v4.83h-2.12v-5.16c0-1.22-.42-1.89-1.64-1.89s-2,.75-2,2.22v4.83H961.5Z" fill="#fff"/>
        <path d="M977.65,113.45v-4.9h2.12v4.83c0,1.52.56,2.33,2,2.33s2-.81,2-2.33v-4.83h2.12v4.9a3.81,3.81,0,0,1-4.17,4.13C979.07,117.58,977.65,116,977.65,113.45Z" fill="#fff"/>
        <path d="M988.44,108.55h2.12l0,1.64a3.19,3.19,0,0,1,3-1.82c2,0,3.3,1.38,3.3,3.77v5.23h-2.13v-5.06c0-1.26-.58-2-1.82-2a2.11,2.11,0,0,0-2.29,2.27v4.78h-2.12Z" fill="#fff"/>
        <path d="M999.09,105.13a1.41,1.41,0,1,1,1.4,1.41A1.38,1.38,0,0,1,999.09,105.13Zm.33,3.42h2.14v8.82h-2.14Z" fill="#fff"/>
        <path d="M1004.78,114.39v-4h-1.33v-1.79h1.33V104h2.12v4.59h2.35v1.79h-2.35v4.09c0,1,.33,1.3.88,1.3a1.57,1.57,0,0,0,1.05-.42l1,1.43a3.13,3.13,0,0,1-2.27.84C1005.91,117.58,1004.78,116.74,1004.78,114.39Z" fill="#fff"/>
        <path d="M1014.37,116.57l-3.61-8h2.35L1015,113a11.41,11.41,0,0,1,.51,1.83A9.31,9.31,0,0,1,1016,113l1.89-4.41h2.2l-5.77,13.27h-2.19Z" fill="#fff"/>
      </g>
    </g>
  </g>
</svg>
