<svg xmlns="http://www.w3.org/2000/svg" viewBox="0 0 604.95 604.95">
  <title>Asset 4</title>
  <g id="Layer_2" data-name="Layer 2">
    <g id="Layer_1-2" data-name="Layer 1">
      <g>
        <path d="M604,302.48C604,136,469,1,302.48,1S1,136,1,302.48,136,604,302.48,604,604,469,604,302.48" fill="#fff"/>
        <circle cx="302.48" cy="302.48" r="301.5" fill="none" stroke="#fff" stroke-miterlimit="10" stroke-width="1.95"/>
        <path d="M302.47,303.6l-108.29-268c36-14.53,69.49-21.05,108.29-21.05Z" fill="#b3ceec"/>
        <path d="M302.47,303.6l-108.29-268c36-14.53,69.49-21.05,108.29-21.05Z" fill="none" stroke="#fff" stroke-miterlimit="10"/>
        <path d="M302.47,303.6,91,106.44c30.06-32.22,62.28-54.37,103.14-70.88Z" fill="#6fabdd"/>
        <path d="M302.47,303.6,91,106.44c30.06-32.22,62.28-54.37,103.14-70.88Z" fill="none" stroke="#fff" stroke-miterlimit="10"/>
        <path d="M302.47,303.6,13.77,288.47C17.46,218.16,43,157.94,91,106.44Z" fill="#60a4da"/>
        <path d="M302.47,303.6,13.77,288.47C17.46,218.16,43,157.94,91,106.44Z" fill="none" stroke="#fff" stroke-miterlimit="10"/>
        <path d="M302.47,303.6,120.54,528.27C46.59,468.39,8.79,383.5,13.77,288.47Z" fill="#509fd7"/>
        <path d="M302.47,303.6,120.54,528.27C46.59,468.39,8.79,383.5,13.77,288.47Z" fill="none" stroke="#fff" stroke-miterlimit="10"/>
        <path d="M302.47,303.6l89.34,274.95c-97.19,31.57-191.86,14-271.27-50.28Z" fill="#3998d4"/>
        <path d="M302.47,303.6l89.34,274.95c-97.19,31.57-191.86,14-271.27-50.28Z" fill="none" stroke="#fff" stroke-miterlimit="10"/>
        <path d="M302.47,303.6l286.28-40.23C608.37,403,525.89,535,391.81,578.55Z" fill="#2f3669"/>
        <path d="M302.47,303.6l286.28-40.23C608.37,403,525.89,535,391.81,578.55Z" fill="none" stroke="#fff" stroke-miterlimit="10"/>
        <path d="M302.47,303.6V14.51c146.41,0,265.9,103.88,286.28,248.86Z" fill="#242e64"/>
        <path d="M302.47,303.6V14.51c146.41,0,265.9,103.88,286.28,248.86Z" fill="none" stroke="#fff" stroke-miterlimit="10"/>
        <path d="M504.44,302.46c0-111.54-90.43-202-202-202s-202,90.42-202,202,90.42,202,202,202,202-90.42,202-202" fill="#fff"/>
        <circle cx="302.48" cy="302.46" r="201.96" transform="translate(-125.28 302.47) rotate(-45)" fill="none" stroke="#fff" stroke-miterlimit="10" stroke-width="1.95"/>
        <path d="M138,109l1.11,1.33-1.78,1.48-1.05-1.27a8.64,8.64,0,0,1-2.29,1.26,6.87,6.87,0,0,1-2.2.4l0-2.2a6.51,6.51,0,0,0,1.86-.44,6.26,6.26,0,0,0,1.67-1q2.37-2,1-3.55a1.62,1.62,0,0,0-.92-.62,2.31,2.31,0,0,0-1.16.11,16.84,16.84,0,0,0-1.8.78,8.34,8.34,0,0,1-3.6,1,3.3,3.3,0,0,1-2.51-1.35,3.43,3.43,0,0,1-.83-2.74A5.28,5.28,0,0,1,127,99.32L126,98l1.78-1.48,1,1.26a8.39,8.39,0,0,1,4.05-1.45l.12,2.11A10.44,10.44,0,0,0,131,99a6.59,6.59,0,0,0-1.71,1c-1.33,1.11-1.63,2.1-.9,3a1.52,1.52,0,0,0,.83.56,2.12,2.12,0,0,0,1.05-.11,12.42,12.42,0,0,0,1.69-.75,8.07,8.07,0,0,1,3.74-1.1,3.59,3.59,0,0,1,2.78,1.47,3.71,3.71,0,0,1,1,2.93A5.53,5.53,0,0,1,138,109Z" fill="#f7f5f5"/>
        <path d="M145.67,89.61a5.86,5.86,0,0,1,1.11,2.55,9.94,9.94,0,0,1-.15,3.28q-.36,1.95-1.41,5.79l6.18-4.55,1.44,1.95-9.26,6.81-1.33-1.8.11-.5q1.06-4.58,1.43-6.5a13,13,0,0,0,.31-3,3.61,3.61,0,0,0-.7-2,2.44,2.44,0,0,0-1.79-1.07,3.12,3.12,0,0,0-2.18.7,4.25,4.25,0,0,0-1.32,1.55,6.74,6.74,0,0,0-.62,2.14l-2.32-.19a9,9,0,0,1,.84-3.11,7.08,7.08,0,0,1,2.19-2.47,6.72,6.72,0,0,1,2.87-1.29,4.94,4.94,0,0,1,2.64.23A4.43,4.43,0,0,1,145.67,89.61Z" fill="#f7f5f5"/>
        <path d="M153.94,96.17a1.5,1.5,0,0,1,.47-2.35,1.63,1.63,0,0,1,1.33-.34,1.82,1.82,0,0,1,1,.8,1.87,1.87,0,0,1,.36,1.23,1.63,1.63,0,0,1-.81,1.1A1.5,1.5,0,0,1,153.94,96.17Z" fill="#f7f5f5"/>
        <path d="M158.16,92.74l.46-2.33a7.18,7.18,0,0,0,2.31,0,6.26,6.26,0,0,0,2.1-.87,3.53,3.53,0,0,0,1.63-2,2.72,2.72,0,0,0-.36-2.32A2.64,2.64,0,0,0,162.57,84a2.86,2.86,0,0,0-2.15.47,6.59,6.59,0,0,0-2.15,2.15l-1.65,1L152,80.09,160.3,75,161.57,77l-5.94,3.67L157.69,84a7.93,7.93,0,0,1,2.24-2,5.34,5.34,0,0,1,2.52-.83,4.48,4.48,0,0,1,2.43.54,5.21,5.21,0,0,1,1.92,1.9,5.35,5.35,0,0,1,.88,2.88,5,5,0,0,1-.85,2.78,7.87,7.87,0,0,1-2.5,2.34,8.4,8.4,0,0,1-3.11,1.23A8,8,0,0,1,158.16,92.74Z" fill="#f7f5f5"/>
        <path d="M175.75,71a3.44,3.44,0,0,1,.43,2.36,3.69,3.69,0,0,1-1.14,2l0,0a4.06,4.06,0,0,1,2.76-.11,3.7,3.7,0,0,1,2.05,1.87,3.91,3.91,0,0,1,.27,3.75,7,7,0,0,1-3.07,2.91l-5.37,2.91-7.58-14,5.32-2.88a6.28,6.28,0,0,1,3.66-.91A3.41,3.41,0,0,1,175.75,71Zm-8.06,2.37,2.1,3.87,2.35-1.27a2.92,2.92,0,0,0,1.44-1.43,2.15,2.15,0,0,0-.22-1.83A1.83,1.83,0,0,0,172,71.58a3.47,3.47,0,0,0-2.08.55ZM170.78,79l2.34,4.32,2.39-1.29a4,4,0,0,0,1.75-1.61,2.58,2.58,0,0,0-1.7-3.35,3.68,3.68,0,0,0-2.27.57Z" fill="#f7f5f5"/>
        <path d="M229.28,58.08l.46,1.67-2.24.6-.42-1.58a9,9,0,0,1-2.61.2,6.74,6.74,0,0,1-2.17-.56l.9-2a6.55,6.55,0,0,0,1.87.38,6.71,6.71,0,0,0,2-.25q3-.81,2.43-2.8a1.7,1.7,0,0,0-.58-.95,2.34,2.34,0,0,0-1.11-.37,14.26,14.26,0,0,0-2,0,8.41,8.41,0,0,1-3.69-.57,3.32,3.32,0,0,1-1.73-2.27,3.42,3.42,0,0,1,.39-2.84,5.26,5.26,0,0,1,2.49-2l-.43-1.6,2.23-.6.43,1.58a8.46,8.46,0,0,1,4.28.35l-.77,2a9.83,9.83,0,0,0-2-.32,6.48,6.48,0,0,0-2,.25c-1.67.45-2.36,1.23-2.06,2.35a1.47,1.47,0,0,0,.52.84,2,2,0,0,0,1,.34,11.83,11.83,0,0,0,1.85,0,8.2,8.2,0,0,1,3.86.55,3.62,3.62,0,0,1,1.92,2.5,3.74,3.74,0,0,1-.36,3.06A5.51,5.51,0,0,1,229.28,58.08Z" fill="#f7f5f5"/>
        <path d="M244.27,43.62a5.78,5.78,0,0,1-.05,2.78,9.89,9.89,0,0,1-1.5,2.92Q241.58,51,239,54l7.52-1.58.5,2.37L235.8,57.16l-.46-2.2.3-.4c1.91-2.48,3.25-4.26,4-5.32a13,13,0,0,0,1.55-2.65,3.68,3.68,0,0,0,.19-2.09,2.43,2.43,0,0,0-1.19-1.71,3.08,3.08,0,0,0-2.28-.27,4.27,4.27,0,0,0-1.84.85,6.89,6.89,0,0,0-1.45,1.7l-2-1.14a8.68,8.68,0,0,1,2.06-2.48,6.89,6.89,0,0,1,3-1.33,6.68,6.68,0,0,1,3.15,0,4.89,4.89,0,0,1,2.3,1.31A4.38,4.38,0,0,1,244.27,43.62Z" fill="#f7f5f5"/>
        <path d="M249.07,53a1.5,1.5,0,0,1,1.4-2,1.64,1.64,0,0,1,1.35.25,1.8,1.8,0,0,1,.59,1.14,1.83,1.83,0,0,1-.18,1.27,1.62,1.62,0,0,1-1.2.67A1.5,1.5,0,0,1,249.07,53Z" fill="#f7f5f5"/>
        <path d="M264.74,40.65a5.76,5.76,0,0,1-.27,2.77,9.9,9.9,0,0,1-1.74,2.79c-.84,1-2.19,2.47-4.05,4.37l7.62-1,.3,2.4-11.41,1.44-.28-2.23.34-.38q3.17-3.48,4.42-5a13.21,13.21,0,0,0,1.76-2.52,3.6,3.6,0,0,0,.36-2.07,2.46,2.46,0,0,0-1-1.8A3.13,3.13,0,0,0,258.5,39a4.29,4.29,0,0,0-1.91.71A7.12,7.12,0,0,0,255,41.31L253.07,40a8.74,8.74,0,0,1,2.26-2.31,7.08,7.08,0,0,1,3.11-1.08,6.7,6.7,0,0,1,3.14.27,5,5,0,0,1,2.19,1.49A4.45,4.45,0,0,1,264.74,40.65Z" fill="#f7f5f5"/>
        <path d="M279.38,39.14a3.47,3.47,0,0,1-.58,2.33,3.76,3.76,0,0,1-1.89,1.37v0a4,4,0,0,1,2.55,1,3.7,3.7,0,0,1,1.09,2.56A3.89,3.89,0,0,1,279.25,50a7,7,0,0,1-4,1.36l-6.1.42-1.08-15.86,6-.41a6.26,6.26,0,0,1,3.72.69A3.4,3.4,0,0,1,279.38,39.14ZM271.07,38l.3,4.39,2.66-.18a3,3,0,0,0,1.91-.7,2.15,2.15,0,0,0,.56-1.76,1.86,1.86,0,0,0-.81-1.56,3.6,3.6,0,0,0-2.12-.36Zm.44,6.48.33,4.9,2.71-.18a4.07,4.07,0,0,0,2.26-.74,2.16,2.16,0,0,0,.73-2,2.13,2.13,0,0,0-.89-1.76,3.7,3.7,0,0,0-2.3-.43Z" fill="#f7f5f5"/>
        <path d="M236,70a6.81,6.81,0,0,1-.09-3.16,4.9,4.9,0,0,1,1.38-2.48,6.54,6.54,0,0,1,5.88-1.44,4.92,4.92,0,0,1,2.38,1.56,7.6,7.6,0,0,1,1.46,6,4.82,4.82,0,0,1-1.38,2.48,6,6,0,0,1-2.77,1.44,5.78,5.78,0,0,1-3.12,0,4.82,4.82,0,0,1-2.36-1.57A6.68,6.68,0,0,1,236,70Zm9.85-2.4a6.17,6.17,0,0,0-1.11-2.41,3.85,3.85,0,0,0-1.9-1.34A5.16,5.16,0,0,0,238.05,65,4,4,0,0,0,237,67.05a6.34,6.34,0,0,0,.12,2.65,6.2,6.2,0,0,0,1.12,2.4,3.89,3.89,0,0,0,1.9,1.35,5.13,5.13,0,0,0,4.81-1.18A3.9,3.9,0,0,0,246,70.2,6.29,6.29,0,0,0,245.88,67.56Z" fill="#f7f5f5"/>
        <path d="M250.1,64.26l2.18-.45.16.79-2.18.44,1.05,5.14c.18.9.69,1.27,1.51,1.1a2.51,2.51,0,0,0,.79-.29l.32.73a3.2,3.2,0,0,1-1.11.42,2.09,2.09,0,0,1-1.64-.23,2.19,2.19,0,0,1-.88-1.46l-1.06-5.2-1.44.29-.13-.65,1.41-.42-.41-2,.94-.56Z" fill="#f7f5f5"/>
        <path d="M253.83,60.17l1-.18.77,4.53h0a2.82,2.82,0,0,1,.87-1.28,3.42,3.42,0,0,1,1.67-.72,2.77,2.77,0,0,1,2.38.5,3.38,3.38,0,0,1,1.1,2.07l.87,5.08-1,.17-.84-4.88a2.85,2.85,0,0,0-.82-1.64,2,2,0,0,0-1.77-.4,2.63,2.63,0,0,0-1.31.59,2.43,2.43,0,0,0-.74,1.12,3,3,0,0,0-.08,1.41l.8,4.62-1,.18Z" fill="#f7f5f5"/>
        <path d="M271.27,65.25l-6.14.81a3.53,3.53,0,0,0,1.07,2.1,2.55,2.55,0,0,0,2.16.57,4.24,4.24,0,0,0,1.33-.38,5.11,5.11,0,0,0,1.11-.78l.55.6a5.55,5.55,0,0,1-1.31.92,5.21,5.21,0,0,1-1.62.47,3.52,3.52,0,0,1-3-.79,4.64,4.64,0,0,1-1.41-3,5.23,5.23,0,0,1,.14-2.22A3.41,3.41,0,0,1,265.26,62a3.64,3.64,0,0,1,1.91-.79,3.2,3.2,0,0,1,2.77.77,4.64,4.64,0,0,1,1.3,2.85C271.25,64.88,271.26,65,271.27,65.25Zm-1.09-.67a3.58,3.58,0,0,0-1-2.07,2.26,2.26,0,0,0-2-.56,2.37,2.37,0,0,0-1.81,1.1,3.45,3.45,0,0,0-.43,2.22Z" fill="#f7f5f5"/>
        <path d="M273.32,62.41a14.35,14.35,0,0,0-.29-1.74l1-.1a12.11,12.11,0,0,1,.24,1.41h0a2.58,2.58,0,0,1,2.42-1.91,3.34,3.34,0,0,1,.44,0l0,.9a2.47,2.47,0,0,0-.46,0A2.23,2.23,0,0,0,275,62a3.4,3.4,0,0,0-.43,2.22l.45,4.36-1,.1Z" fill="#f7f5f5"/>
        <path d="M432,96.26l-6.07,9.56-.92-.59,2.89-4.55-5.54-3.51-2.89,4.55-.91-.59,6.07-9.56.92.59-2.71,4.25,5.54,3.52,2.7-4.26Z" fill="#f7f5f5"/>
        <path d="M430,104.77l2.78-4,.86.59-2.7,3.93a3.15,3.15,0,0,0-.65,1.89,1.87,1.87,0,0,0,.93,1.54,2.31,2.31,0,0,0,1.4.45,2.69,2.69,0,0,0,1.42-.42,3.65,3.65,0,0,0,1.18-1.14l2.41-3.5.86.58-3.55,5.17a17.61,17.61,0,0,0-.93,1.52l-.82-.56a14.67,14.67,0,0,1,.79-1.32l0,0a3,3,0,0,1-3.41-.19,2.7,2.7,0,0,1-1.32-2A3.74,3.74,0,0,1,430,104.77Z" fill="#f7f5f5"/>
        <path d="M440,107.8a13.71,13.71,0,0,0,1-1.47l.8.6A7.76,7.76,0,0,1,441,108l0,0a2.86,2.86,0,0,1,1.54-.24,3.22,3.22,0,0,1,1.61.67,2.49,2.49,0,0,1,1,3.07l0,0a3,3,0,0,1,1.71-.41,3.16,3.16,0,0,1,1.73.68,2.64,2.64,0,0,1,1.21,2,3.34,3.34,0,0,1-.73,2.21L446,120.22l-.83-.62,3-4a2.85,2.85,0,0,0,.61-1.65,1.82,1.82,0,0,0-.84-1.51,2.31,2.31,0,0,0-1.34-.48,2.72,2.72,0,0,0-1.37.35,3.67,3.67,0,0,0-1.12,1l-2.67,3.54-.81-.62,3-4a2.8,2.8,0,0,0,.63-1.67,1.82,1.82,0,0,0-.84-1.51,2.35,2.35,0,0,0-1.27-.5,2.48,2.48,0,0,0-1.3.27,3.08,3.08,0,0,0-1.06.92L437,113.45l-.83-.62Z" fill="#f7f5f5"/>
        <path d="M448.74,119.66a2.22,2.22,0,0,1,2.23-1,7.91,7.91,0,0,1,3.1,1.76c.29.24.51.42.66.56l.33-.4a1.85,1.85,0,0,0-.38-2.93,4.65,4.65,0,0,0-1.12-.69,4.92,4.92,0,0,0-1.24-.33l.16-.78a5.24,5.24,0,0,1,2.76,1.2,3.28,3.28,0,0,1,1.35,2.1,3.19,3.19,0,0,1-.89,2.29l-2.15,2.63a13.91,13.91,0,0,0-1,1.44l-.74-.61a11.57,11.57,0,0,1,.69-1l0,0a3.17,3.17,0,0,1-3.22-.74,2.74,2.74,0,0,1-1.07-1.67A2.3,2.3,0,0,1,448.74,119.66Zm4.73,2.92.79-1-.59-.49a9.81,9.81,0,0,0-1.74-1.2,2.17,2.17,0,0,0-1.29-.28,1.7,1.7,0,0,0-1,.67,1.54,1.54,0,0,0-.41,1.22,1.84,1.84,0,0,0,.74,1.15,2.77,2.77,0,0,0,1.37.66,2.43,2.43,0,0,0,1.27-.13A2.34,2.34,0,0,0,453.47,122.58Z" fill="#f7f5f5"/>
        <path d="M458.6,122.47a14,14,0,0,0,1.07-1.4l.75.65a10.09,10.09,0,0,1-.81,1.08l0,0a2.93,2.93,0,0,1,1.61-.11,3.47,3.47,0,0,1,1.61.85,2.73,2.73,0,0,1,1.12,2.15,3.36,3.36,0,0,1-.92,2.16l-3.39,3.88-.78-.68,3.26-3.74a2.77,2.77,0,0,0,.76-1.66,2,2,0,0,0-.81-1.63,2.55,2.55,0,0,0-1.28-.64,2.37,2.37,0,0,0-1.34.13,2.94,2.94,0,0,0-1.14.83l-3.09,3.52-.78-.68Z" fill="#f7f5f5"/>
        <path d="M468.9,131.75q.62-.66,1.14-1.35l.71.68a10.34,10.34,0,0,1-.91,1.1l0,0a2.57,2.57,0,0,1,3,.61,2,2,0,0,1,.29.32l-.65.62a2.67,2.67,0,0,0-.31-.35,2.19,2.19,0,0,0-1.91-.67,3.37,3.37,0,0,0-2,1.11l-3,3.17-.75-.72Z" fill="#f7f5f5"/>
        <path d="M475.58,142l-4.35-4.4a3.58,3.58,0,0,0-1,2.12,2.56,2.56,0,0,0,.85,2.06,4.12,4.12,0,0,0,1.11.83,4.88,4.88,0,0,0,1.29.42l-.15.8a5.52,5.52,0,0,1-1.52-.49,5.33,5.33,0,0,1-1.36-1,3.53,3.53,0,0,1-1.15-2.84,4.65,4.65,0,0,1,1.51-2.92,5,5,0,0,1,1.86-1.22,3.36,3.36,0,0,1,1.95-.14,3.56,3.56,0,0,1,1.78,1.05,3.21,3.21,0,0,1,1.06,2.66,4.64,4.64,0,0,1-1.49,2.76Zm-.13-1.27a3.52,3.52,0,0,0,1.08-2,2.21,2.21,0,0,0-.74-1.9,2.37,2.37,0,0,0-2-.78,3.35,3.35,0,0,0-2,1Z" fill="#f7f5f5"/>
        <path d="M483.1,144.56l-.8.12a3.58,3.58,0,0,0-.94-2,2.22,2.22,0,0,0-1.14-.73,1.06,1.06,0,0,0-1,.28,1.23,1.23,0,0,0-.39.63,1.54,1.54,0,0,0,.07.8,8.61,8.61,0,0,0,.57,1.2,4,4,0,0,1,.63,1.95,2,2,0,0,1-.71,1.46,2.1,2.1,0,0,1-1.88.6,3.31,3.31,0,0,1-1.9-1.1,4.45,4.45,0,0,1-1.27-2.75l.81-.1a4.2,4.2,0,0,0,.31,1.21,4,4,0,0,0,.72,1.06,2.13,2.13,0,0,0,1.25.73,1.34,1.34,0,0,0,1.18-.39,1.45,1.45,0,0,0,.45-.66,1.41,1.41,0,0,0-.06-.8,7,7,0,0,0-.56-1.22,4.27,4.27,0,0,1-.64-1.94,1.89,1.89,0,0,1,.66-1.4,1.86,1.86,0,0,1,1.68-.5,3.28,3.28,0,0,1,1.8,1.1A4.08,4.08,0,0,1,483.1,144.56Z" fill="#f7f5f5"/>
        <path d="M487,154.17a5,5,0,0,1-2,1.1,3.43,3.43,0,0,1-2-.05,4.07,4.07,0,0,1-1.82-1.27,4.14,4.14,0,0,1-1-2,3.5,3.5,0,0,1,.26-2,5.08,5.08,0,0,1,1.37-1.8,4.43,4.43,0,0,1,3-1.24,3.7,3.7,0,0,1,2.79,1.45,3.78,3.78,0,0,1,1.05,3A4.47,4.47,0,0,1,487,154.17ZM482.52,149a3.93,3.93,0,0,0-1.41,2.18,2.56,2.56,0,0,0,.69,2.25,2.6,2.6,0,0,0,2.14,1,4.07,4.07,0,0,0,2.37-1.08,4,4,0,0,0,1.39-2.17,2.61,2.61,0,0,0-.72-2.26,2.58,2.58,0,0,0-2.12-1A4,4,0,0,0,482.52,149Z" fill="#f7f5f5"/>
        <path d="M487.7,156.45l3.85-3.06.64.82-3.73,3a3.23,3.23,0,0,0-1.18,1.62,1.91,1.91,0,0,0,.44,1.75,2.43,2.43,0,0,0,1.21.84,2.75,2.75,0,0,0,1.48,0,3.81,3.81,0,0,0,1.46-.74l3.34-2.65.64.82-4.91,3.9c-.39.31-.83.7-1.33,1.18l-.62-.78c.3-.3.68-.64,1.15-1l0,0a3.09,3.09,0,0,1-1.74-.08,3.18,3.18,0,0,1-1.46-1.09,2.72,2.72,0,0,1-.67-2.33A3.76,3.76,0,0,1,487.7,156.45Z" fill="#f7f5f5"/>
        <path d="M496.25,162.29a13.46,13.46,0,0,0,1.35-1.13l.59.79a8.78,8.78,0,0,1-1.09.93l0,0A2.59,2.59,0,0,1,500,164a3.13,3.13,0,0,1,.23.37l-.75.49a2.64,2.64,0,0,0-.25-.39,2.21,2.21,0,0,0-1.77-1,3.37,3.37,0,0,0-2.12.76l-3.53,2.6-.61-.83Z" fill="#f7f5f5"/>
        <path d="M503,168.27a5.13,5.13,0,0,1,.64,1.31,3.81,3.81,0,0,1,.16,1.36l-.84.06a3.53,3.53,0,0,0-.67-2.24,2.6,2.6,0,0,0-2-1.24,3.81,3.81,0,0,0-2.44.79,3.92,3.92,0,0,0-1.59,2,2.57,2.57,0,0,0,.45,2.29,4,4,0,0,0,1.86,1.43l-.36.74a4.33,4.33,0,0,1-1.25-.67,4.25,4.25,0,0,1-1-1.06,3.79,3.79,0,0,1-.76-2.12,3.5,3.5,0,0,1,.56-1.92,5.36,5.36,0,0,1,1.51-1.53,4.42,4.42,0,0,1,3.13-.91A3.69,3.69,0,0,1,503,168.27Z" fill="#f7f5f5"/>
        <path d="M505.26,180.17,501.94,175a3.61,3.61,0,0,0-1.46,1.85,2.57,2.57,0,0,0,.39,2.2,4.27,4.27,0,0,0,.91,1,5.32,5.32,0,0,0,1.18.69l-.32.75a5.86,5.86,0,0,1-1.38-.8,5.2,5.2,0,0,1-1.11-1.28,3.51,3.51,0,0,1-.53-3,4.58,4.58,0,0,1,2.1-2.52,5,5,0,0,1,2.08-.8,3.31,3.31,0,0,1,1.93.28,3.68,3.68,0,0,1,1.52,1.4,3.2,3.2,0,0,1,.46,2.84,4.62,4.62,0,0,1-2,2.37A4.16,4.16,0,0,1,505.26,180.17Zm.14-1.26a3.56,3.56,0,0,0,1.49-1.74,2.25,2.25,0,0,0-.32-2,2.35,2.35,0,0,0-1.76-1.18,3.35,3.35,0,0,0-2.19.54Z" fill="#f7f5f5"/>
        <path d="M512,184.31l-.82-.07a3.5,3.5,0,0,0-.46-2.17,2.33,2.33,0,0,0-.95-1,1.1,1.1,0,0,0-1,.05,1.2,1.2,0,0,0-.52.53,1.5,1.5,0,0,0-.1.8,6.93,6.93,0,0,0,.28,1.29,4,4,0,0,1,.18,2,2,2,0,0,1-1,1.27,2.12,2.12,0,0,1-2,.17,3.36,3.36,0,0,1-1.62-1.49,4.49,4.49,0,0,1-.63-3l.81.09a4.65,4.65,0,0,0,0,1.25,3.82,3.82,0,0,0,.47,1.19,2.16,2.16,0,0,0,1.05,1,1.39,1.39,0,0,0,1.25-.12,1.23,1.23,0,0,0,.7-1.34,7.25,7.25,0,0,0-.28-1.31,4.17,4.17,0,0,1-.2-2,1.84,1.84,0,0,1,1-1.21,1.86,1.86,0,0,1,1.74-.12,3.31,3.31,0,0,1,1.52,1.46A4.18,4.18,0,0,1,512,184.31Z" fill="#f7f5f5"/>
        <path d="M139.34,124.17l.64.64-4,4,3,3,3.58-3.57.62.62-3.58,3.57,3.76,3.77-.77.77-8-8Z" fill="#f7f5f5"/>
        <path d="M145.83,130.64a2.24,2.24,0,0,1-.64-2.35,8,8,0,0,1,2.16-2.83c.28-.25.49-.44.65-.57l-.35-.38a1.85,1.85,0,0,0-3,0,4.38,4.38,0,0,0-.84,1,5.22,5.22,0,0,0-.49,1.18l-.75-.27a5.16,5.16,0,0,1,1.56-2.56,2.72,2.72,0,0,1,4.41.13l2.31,2.49a15,15,0,0,0,1.29,1.22l-.7.65a11.24,11.24,0,0,1-.92-.82l0,0a3.18,3.18,0,0,1-1.17,3.09,2.71,2.71,0,0,1-1.8.83A2.25,2.25,0,0,1,145.83,130.64Zm3.53-4.29-.85-.91-.57.51a10.19,10.19,0,0,0-1.42,1.56,2.22,2.22,0,0,0-.46,1.24,1.7,1.7,0,0,0,.52,1.12,1.51,1.51,0,0,0,1.16.57,1.83,1.83,0,0,0,1.24-.57,2.78,2.78,0,0,0,.83-1.27,2.31,2.31,0,0,0,.05-1.27A2.22,2.22,0,0,0,149.36,126.35Z" fill="#f7f5f5"/>
        <path d="M146.72,117.93a.65.65,0,0,1,.09-1,.64.64,0,0,1,1,.06.63.63,0,0,1-.08,1A.64.64,0,0,1,146.72,117.93Zm2.87,1.34,5.31,6-.78.68-5.32-6Z" fill="#f7f5f5"/>
        <path d="M152.84,116.47l1.7-1.43.51.61-1.7,1.43,3.39,4a1.16,1.16,0,0,0,1.85.23,2.31,2.31,0,0,0,.56-.63l.62.49a3.2,3.2,0,0,1-.76.9,2.14,2.14,0,0,1-1.56.58,2.11,2.11,0,0,1-1.46-.85l-3.43-4.06-1.12,1-.44-.51,1-1-1.33-1.57.56-1Z" fill="#f7f5f5"/>
        <path d="M154.15,111.09l.81-.64,2.85,3.6,0,0a2.86,2.86,0,0,1,.16-1.55,3.41,3.41,0,0,1,1.12-1.43,2.73,2.73,0,0,1,2.32-.7,3.4,3.4,0,0,1,2,1.29l3.2,4-.82.65-3.08-3.89a2.88,2.88,0,0,0-1.5-1,2,2,0,0,0-1.75.5,2.62,2.62,0,0,0-.86,1.14,2.46,2.46,0,0,0-.11,1.34,2.86,2.86,0,0,0,.61,1.28l2.91,3.67-.82.65Z" fill="#f7f5f5"/>
        <path d="M175.78,104.06a5.12,5.12,0,0,1,.9,2,3.46,3.46,0,0,1-.19,2,3.93,3.93,0,0,1-4.32,2.25l.45.87-.69.49-6.52-9.26.85-.6,2.67,3.79,0,0a2.8,2.8,0,0,1,.27-1.61,3.58,3.58,0,0,1,1.2-1.36,3.36,3.36,0,0,1,1.91-.67,3.52,3.52,0,0,1,1.86.54A5.4,5.4,0,0,1,175.78,104.06Zm-.86.6a4.05,4.05,0,0,0-2-1.61,2.31,2.31,0,0,0-2.15.37,2.79,2.79,0,0,0-1,1.15,2.62,2.62,0,0,0-.21,1.41,3,3,0,0,0,.53,1.34l1.57,2.24a3.9,3.9,0,0,0,1.53.11,3.08,3.08,0,0,0,1.34-.57,2.51,2.51,0,0,0,1.17-2A3.89,3.89,0,0,0,174.92,104.66Z" fill="#f7f5f5"/>
        <path d="M178.12,104.73a2.21,2.21,0,0,1-.22-2.42,7.76,7.76,0,0,1,2.61-2.42l.74-.46L181,99a1.85,1.85,0,0,0-2.91-.54,4.74,4.74,0,0,0-1,.86,4.54,4.54,0,0,0-.69,1.08l-.69-.39a5.16,5.16,0,0,1,2-2.26,2.73,2.73,0,0,1,4.32.89l1.85,2.85a14.27,14.27,0,0,0,1.06,1.43l-.81.52a11.09,11.09,0,0,1-.76-1h0a3.21,3.21,0,0,1-1.68,2.85,2.75,2.75,0,0,1-1.92.51A2.32,2.32,0,0,1,178.12,104.73Zm4.22-3.62-.68-1-.66.4a10.25,10.25,0,0,0-1.66,1.29,2.18,2.18,0,0,0-.66,1.15,1.69,1.69,0,0,0,.31,1.19,1.58,1.58,0,0,0,1,.76,1.87,1.87,0,0,0,1.32-.35,2.85,2.85,0,0,0,1-1.1,2.37,2.37,0,0,0,.26-1.25A2.28,2.28,0,0,0,182.34,101.11Z" fill="#f7f5f5"/>
        <path d="M187.16,92.82l0,.82a3.51,3.51,0,0,0-2.17.5,2.22,2.22,0,0,0-.94,1,1,1,0,0,0,.07,1,1.13,1.13,0,0,0,.53.51,1.53,1.53,0,0,0,.8.09,7.26,7.26,0,0,0,1.29-.31,3.94,3.94,0,0,1,2-.22,2,2,0,0,1,1.29,1,2.14,2.14,0,0,1,.2,2,3.32,3.32,0,0,1-1.46,1.64,4.41,4.41,0,0,1-3,.68l.07-.8a4.61,4.61,0,0,0,1.25-.07,3.85,3.85,0,0,0,1.18-.49,2.23,2.23,0,0,0,1-1.07,1.38,1.38,0,0,0-.15-1.24,1.34,1.34,0,0,0-.56-.57,1.38,1.38,0,0,0-.79-.11,7,7,0,0,0-1.31.3,4.1,4.1,0,0,1-2,.24,1.87,1.87,0,0,1-1.23-.93,1.89,1.89,0,0,1-.16-1.74,3.31,3.31,0,0,1,1.44-1.55A4.17,4.17,0,0,1,187.16,92.82Z" fill="#f7f5f5"/>
        <path d="M196.92,91.59l-5.39,3a3.48,3.48,0,0,0,1.77,1.55,2.54,2.54,0,0,0,2.21-.27,4.21,4.21,0,0,0,1.09-.85,5.36,5.36,0,0,0,.75-1.14l.73.36a5.51,5.51,0,0,1-.87,1.34,5.3,5.3,0,0,1-1.33,1,3.54,3.54,0,0,1-3,.36,4.64,4.64,0,0,1-2.41-2.23,5.06,5.06,0,0,1-.68-2.12,3.36,3.36,0,0,1,.38-1.91,3.61,3.61,0,0,1,1.48-1.44,3.17,3.17,0,0,1,2.85-.31,4.61,4.61,0,0,1,2.27,2.16C196.77,91.26,196.83,91.4,196.92,91.59Zm-1.26-.21A3.57,3.57,0,0,0,194,89.81a2.26,2.26,0,0,0-2,.21,2.36,2.36,0,0,0-1.27,1.69,3.47,3.47,0,0,0,.42,2.22Z" fill="#f7f5f5"/>
        <path d="M206.94,90.53l-.86.44a11.71,11.71,0,0,1-.73-1.18h0a3.12,3.12,0,0,1-1.91,2.8,3.17,3.17,0,0,1-2.88.16,4.84,4.84,0,0,1-2.23-2.3,5,5,0,0,1-.58-2.14,3.6,3.6,0,0,1,.45-1.95,3.52,3.52,0,0,1,1.5-1.4,3.72,3.72,0,0,1,1.55-.45,3.59,3.59,0,0,1,1.47.25L200.75,81l.92-.47L206,89A17.47,17.47,0,0,0,206.94,90.53ZM204.35,88l-1.19-2.32a3.44,3.44,0,0,0-1.5-.4,3.11,3.11,0,0,0-1.5.37,2.46,2.46,0,0,0-1.36,1.78,3.89,3.89,0,0,0,.45,2.54A4,4,0,0,0,201,91.84a2.38,2.38,0,0,0,2.2-.08,2.69,2.69,0,0,0,1.11-1,2.55,2.55,0,0,0,.38-1.35A3,3,0,0,0,204.35,88Z" fill="#f7f5f5"/>
        <path d="M76.29,250.64l-3.06.59-1,5.55,2.66,1.64-.2,1.12-10.34-6.48.21-1.15,12-2.42Zm-10.87,2,6,3.65.9-4.93Z" fill="#f7f5f5"/>
        <path d="M70.72,246.71a13.09,13.09,0,0,0-1.74-.27l.21-1a8.8,8.8,0,0,1,1.42.22v0a2.59,2.59,0,0,1-1-2.91,2.2,2.2,0,0,1,.12-.41l.86.24a4.32,4.32,0,0,0-.13.44,2.21,2.21,0,0,0,.42,2,3.46,3.46,0,0,0,2,1.1l4.28.94-.23,1Z" fill="#f7f5f5"/>
        <path d="M70.61,239.41l.53-2.16.78.19-.54,2.16,5.1,1.26a1.17,1.17,0,0,0,1.64-.9,2.51,2.51,0,0,0,.07-.84l.8,0a3.42,3.42,0,0,1-.09,1.18,2,2,0,0,1-2.61,1.55l-5.16-1.27L70.78,242l-.65-.17.23-1.45-2-.5-.11-1.1Z" fill="#f7f5f5"/>
        <path d="M73.49,230.92l.52.63a3.54,3.54,0,0,0-1.22,1.85,2.22,2.22,0,0,0,0,1.35,1,1,0,0,0,.76.71,1.25,1.25,0,0,0,.74,0,1.62,1.62,0,0,0,.64-.49,7.16,7.16,0,0,0,.72-1.11A4,4,0,0,1,77,232.31a2,2,0,0,1,1.61-.17,2.13,2.13,0,0,1,1.5,1.29,3.35,3.35,0,0,1,.06,2.2,4.4,4.4,0,0,1-1.67,2.52l-.51-.64a4.57,4.57,0,0,0,.87-.9,3.94,3.94,0,0,0,.52-1.17,2.12,2.12,0,0,0,0-1.44,1.37,1.37,0,0,0-1-.81,1.58,1.58,0,0,0-.8,0,1.43,1.43,0,0,0-.65.47,7.44,7.44,0,0,0-.74,1.12,4.33,4.33,0,0,1-1.31,1.57,1.89,1.89,0,0,1-1.54.16A1.84,1.84,0,0,1,72,235.33a3.32,3.32,0,0,1,0-2.12A4.14,4.14,0,0,1,73.49,230.92Z" fill="#f7f5f5"/>
        <path d="M83.88,231.64l-.46.3a5.78,5.78,0,0,0-.93-1.17,2.74,2.74,0,0,0-1-.6.63.63,0,0,1-.84.45.65.65,0,0,1-.4-.32.67.67,0,0,1,0-.56.69.69,0,0,1,.39-.48,1,1,0,0,1,.72,0,3.59,3.59,0,0,1,1.37.75A5.84,5.84,0,0,1,83.88,231.64Z" fill="#f7f5f5"/>
        <path d="M77,217.14a4.68,4.68,0,0,1,.68-1.29,3.68,3.68,0,0,1,1-.93l.53.64a3.6,3.6,0,0,0-1.41,1.87,2.59,2.59,0,0,0,.17,2.32,3.76,3.76,0,0,0,2.08,1.5,3.8,3.8,0,0,0,2.54.11,2.55,2.55,0,0,0,1.58-1.7,3.91,3.91,0,0,0,.06-2.35l.81-.15a4.39,4.39,0,0,1,.2,1.4A4.57,4.57,0,0,1,85,220a3.78,3.78,0,0,1-1.27,1.86,3.47,3.47,0,0,1-1.88.68,5.54,5.54,0,0,1-2.13-.31,4.5,4.5,0,0,1-2.57-2A3.67,3.67,0,0,1,77,217.14Z" fill="#f7f5f5"/>
        <path d="M83.35,214.69l-4.58-1.77.37-1,4.45,1.72a3.21,3.21,0,0,0,2,.2,1.89,1.89,0,0,0,1.28-1.26,2.38,2.38,0,0,0,.12-1.48,2.75,2.75,0,0,0-.74-1.28,3.76,3.76,0,0,0-1.38-.88l-4-1.54.37-1,5.85,2.27c.47.18,1,.36,1.69.55l-.36.92a13.72,13.72,0,0,1-1.47-.46v0a3.08,3.08,0,0,1,.81,1.54,3.23,3.23,0,0,1-.21,1.81,2.7,2.7,0,0,1-1.67,1.76A3.76,3.76,0,0,1,83.35,214.69Z" fill="#f7f5f5"/>
        <path d="M79.42,202.4l.4-1,10.44,4.39-.4.95Z" fill="#f7f5f5"/>
        <path d="M84.56,198.74l.9-2,.73.33-.9,2,4.8,2.12a1.17,1.17,0,0,0,1.77-.6,2.46,2.46,0,0,0,.22-.81l.78.17a3.56,3.56,0,0,1-.3,1.15,2,2,0,0,1-2.83,1.07L84.87,200l-.6,1.35-.61-.28.48-1.39-1.89-.84.08-1.1Z" fill="#f7f5f5"/>
        <path d="M90.71,197l-4.43-2.12.45-.94L91,196a3.2,3.2,0,0,0,2,.35,1.9,1.9,0,0,0,1.38-1.15,2.45,2.45,0,0,0,.23-1.46,2.87,2.87,0,0,0-.64-1.34,3.75,3.75,0,0,0-1.31-1l-3.84-1.84.45-.94,5.66,2.71c.45.22,1,.45,1.64.69l-.43.89a13,13,0,0,1-1.43-.58v0a3,3,0,0,1,.34,3.39,2.69,2.69,0,0,1-1.8,1.62A3.71,3.71,0,0,1,90.71,197Z" fill="#f7f5f5"/>
        <path d="M92.21,186.76a15.17,15.17,0,0,0-1.61-.71l.45-.88a9.48,9.48,0,0,1,1.31.57l0,0a2.57,2.57,0,0,1-.27-3.07,4,4,0,0,1,.23-.37l.77.46c-.06.08-.14.22-.24.39a2.22,2.22,0,0,0-.11,2,3.43,3.43,0,0,0,1.62,1.57l3.89,2-.48.93Z" fill="#f7f5f5"/>
        <path d="M100.19,177.46l-3,5.41a3.62,3.62,0,0,0,2.33.4,2.58,2.58,0,0,0,1.74-1.4,4.1,4.1,0,0,0,.48-1.29,5.54,5.54,0,0,0,0-1.36l.81-.08a5.63,5.63,0,0,1,0,1.59,5.08,5.08,0,0,1-.59,1.59,3.51,3.51,0,0,1-2.4,1.9,4.62,4.62,0,0,1-3.22-.63,5.18,5.18,0,0,1-1.7-1.44,3.46,3.46,0,0,1-.68-1.83,3.63,3.63,0,0,1,.51-2,3.21,3.21,0,0,1,2.27-1.76,4.57,4.57,0,0,1,3.06.66A2.87,2.87,0,0,1,100.19,177.46Zm-1.18.48a3.54,3.54,0,0,0-2.23-.47,2.26,2.26,0,0,0-1.62,1.24,2.35,2.35,0,0,0-.19,2.11,3.47,3.47,0,0,0,1.52,1.67Z" fill="#f7f5f5"/>
        <path d="M106.67,179.09l-.52.18a5.88,5.88,0,0,0-.62-1.36,3,3,0,0,0-.84-.82.63.63,0,0,1-.92.24.66.66,0,0,1-.32-.4.69.69,0,0,1,.1-.56.73.73,0,0,1,.5-.37,1.07,1.07,0,0,1,.69.18,3.55,3.55,0,0,1,1.16,1A5.68,5.68,0,0,1,106.67,179.09Z" fill="#f7f5f5"/>
        <path d="M81.84,248.3l.23-1,4.47,1.05v0a2.83,2.83,0,0,1-.84-1.3,3.49,3.49,0,0,1,0-1.82,2.81,2.81,0,0,1,1.38-2,3.36,3.36,0,0,1,2.34-.2l5,1.17-.24,1L89.37,244a2.78,2.78,0,0,0-1.82.12,2,2,0,0,0-1.06,1.48,2.66,2.66,0,0,0,0,1.43,2.42,2.42,0,0,0,.75,1.12,3,3,0,0,0,1.27.62l4.56,1.07-.24,1Z" fill="#f7f5f5"/>
        <path d="M92,240.91l-4.73-1.32.28-1,4.59,1.28a3.24,3.24,0,0,0,2,0,1.88,1.88,0,0,0,1.16-1.38,2.48,2.48,0,0,0,0-1.48,2.79,2.79,0,0,0-.86-1.2,4,4,0,0,0-1.46-.75l-4.1-1.14.28-1,6,1.68c.48.13,1.06.26,1.73.38l-.26,1a14.93,14.93,0,0,1-1.51-.32v0a3.11,3.11,0,0,1,1,1.45,3.26,3.26,0,0,1,0,1.83,2.73,2.73,0,0,1-1.5,1.91A3.76,3.76,0,0,1,92,240.91Z" fill="#f7f5f5"/>
        <path d="M91.68,230.46A13.48,13.48,0,0,0,90,230l.32-.94a8.17,8.17,0,0,1,1.29.33v0a2.86,2.86,0,0,1-.72-1.39,3.15,3.15,0,0,1,.13-1.73,2.49,2.49,0,0,1,2.6-1.93v0a3,3,0,0,1-.94-1.49,3.23,3.23,0,0,1,.1-1.86,2.71,2.71,0,0,1,1.55-1.8,3.36,3.36,0,0,1,2.32,0l4.9,1.64-.33,1-4.77-1.6a2.83,2.83,0,0,0-1.77,0,1.79,1.79,0,0,0-1.15,1.27,2.24,2.24,0,0,0,0,1.42,2.7,2.7,0,0,0,.77,1.19,3.62,3.62,0,0,0,1.29.75l4.21,1.41-.33,1-4.75-1.59a2.88,2.88,0,0,0-1.78-.07,1.83,1.83,0,0,0-1.17,1.28,2.36,2.36,0,0,0-.07,1.36,2.46,2.46,0,0,0,.67,1.14,3,3,0,0,0,1.21.73L98,231.47l-.33,1Z" fill="#f7f5f5"/>
        <path d="M100.16,218.4a2.23,2.23,0,0,1-1.59-1.83,7.59,7.59,0,0,1,.71-3.49c.13-.35.24-.62.33-.8l-.48-.19a1.85,1.85,0,0,0-2.67,1.27,4.19,4.19,0,0,0-.31,1.28,4.65,4.65,0,0,0,.07,1.28l-.79.09a5.14,5.14,0,0,1,.29-3,3.22,3.22,0,0,1,1.57-1.93,3.17,3.17,0,0,1,2.45.14l3.16,1.22a12.44,12.44,0,0,0,1.7.54l-.35.9c-.33-.07-.72-.19-1.19-.34v0a3.18,3.18,0,0,1,.3,3.29,2.72,2.72,0,0,1-1.26,1.53A2.27,2.27,0,0,1,100.16,218.4Zm1.31-5.4-1.16-.45-.3.71a10.45,10.45,0,0,0-.59,2,2.14,2.14,0,0,0,.13,1.32,1.68,1.68,0,0,0,1,.78,1.57,1.57,0,0,0,1.29,0,1.84,1.84,0,0,0,.86-1.06,2.8,2.8,0,0,0,.2-1.5,2.5,2.5,0,0,0-.51-1.17A2.35,2.35,0,0,0,101.47,213Z" fill="#f7f5f5"/>
        <path d="M99.79,208.13a13.22,13.22,0,0,0-1.66-.6l.39-.91a8.28,8.28,0,0,1,1.28.45v0a2.91,2.91,0,0,1-.6-1.5,3.51,3.51,0,0,1,.31-1.8,2.77,2.77,0,0,1,1.71-1.72,3.44,3.44,0,0,1,2.34.21l4.73,2-.41,1-4.55-2a2.82,2.82,0,0,0-1.82-.21,2,2,0,0,0-1.31,1.27,2.61,2.61,0,0,0-.21,1.41,2.36,2.36,0,0,0,.54,1.24,2.92,2.92,0,0,0,1.13.84l4.3,1.85-.41,1Z" fill="#f7f5f5"/>
        <path d="M99.43,197.42a.64.64,0,0,1-.33-1,.71.71,0,1,1,1.28.6A.64.64,0,0,1,99.43,197.42Zm3.16.07,7.29,3.39-.44,1-7.29-3.4Z" fill="#f7f5f5"/>
        <path d="M104.44,193.6l1-2,.72.35-1,2,4.72,2.31a1.17,1.17,0,0,0,1.79-.54,2.45,2.45,0,0,0,.25-.8l.77.2a3.32,3.32,0,0,1-.34,1.13,2.1,2.1,0,0,1-1.19,1.16,2.13,2.13,0,0,1-1.68-.19l-4.78-2.33-.64,1.32-.61-.29.54-1.38-1.86-.91.13-1.09Z" fill="#f7f5f5"/>
        <path d="M116.39,192.57a3.51,3.51,0,0,1,.91,1.5,2.15,2.15,0,0,1-.24,1.48,2.73,2.73,0,0,1-.61.79l-.6-.54a3,3,0,0,0,.39-.54,1.3,1.3,0,0,0,.13-1,2.73,2.73,0,0,0-.65-1l-1.34-1.4-8.63-1,.52-1,7.33,1h0l-5.07-5.31.5-.95Z" fill="#f7f5f5"/>
        <path d="M463.09,104.52,462,105.86l-1.79-1.46,1-1.27a9,9,0,0,1-1.67-2,6.91,6.91,0,0,1-.81-2.08l2.16-.44a6.3,6.3,0,0,0,.78,1.74,6.63,6.63,0,0,0,1.34,1.45q2.38,1.93,3.69.35a1.67,1.67,0,0,0,.43-1,2.4,2.4,0,0,0-.33-1.12,16.16,16.16,0,0,0-1.11-1.61A8.49,8.49,0,0,1,464,95a3.3,3.3,0,0,1,.84-2.72A3.41,3.41,0,0,1,467.4,91a5.21,5.21,0,0,1,3.07.87l1-1.28L473.31,92l-1,1.27a8.36,8.36,0,0,1,2.2,3.69l-2.05.52a9.85,9.85,0,0,0-.89-1.78,6.58,6.58,0,0,0-1.35-1.47c-1.35-1.1-2.38-1.2-3.11-.31a1.42,1.42,0,0,0-.39.91,2.08,2.08,0,0,0,.31,1,12.19,12.19,0,0,0,1.06,1.52,8.18,8.18,0,0,1,1.8,3.46,3.63,3.63,0,0,1-.92,3,3.69,3.69,0,0,1-2.7,1.49A5.46,5.46,0,0,1,463.09,104.52Z" fill="#fff"/>
        <path d="M479.1,114.19A3.92,3.92,0,0,1,477,115.4a4.89,4.89,0,0,1-2.69-.24,9.25,9.25,0,0,1-4.85-4.44,4.94,4.94,0,0,1-.46-2.63,4.28,4.28,0,0,1,3.32-3.54,6.46,6.46,0,0,1,3,.34,4.61,4.61,0,0,1-.37-2.4,3.92,3.92,0,0,1,1.08-2,3.42,3.42,0,0,1,2-1.1,4.79,4.79,0,0,1,2.46.24,6.6,6.6,0,0,1,2.39,1.46,7.49,7.49,0,0,1,1.7,2.22,4.69,4.69,0,0,1,.48,2.38,3.51,3.51,0,0,1-1,2.1q-1.56,1.71-4.48,1.06a5.9,5.9,0,0,1,.74,2.94A4.15,4.15,0,0,1,479.1,114.19ZM477,112a2.45,2.45,0,0,0,.6-1.06,2.38,2.38,0,0,0-.07-1.2,11.17,11.17,0,0,0-.72-1.73l-.55-1a4,4,0,0,0-2.18-.29,3.1,3.1,0,0,0-1.67,1,2.23,2.23,0,0,0-.66,2,3.76,3.76,0,0,0,1.27,2,3.64,3.64,0,0,0,2.15,1.08A2.15,2.15,0,0,0,477,112Zm1-9.52a2.08,2.08,0,0,0-.56,1.43,4.37,4.37,0,0,0,.56,2l.45.84a5.33,5.33,0,0,0,2,0,2.57,2.57,0,0,0,1.35-.78,2,2,0,0,0,.54-1.65,2.82,2.82,0,0,0-.95-1.65,2.86,2.86,0,0,0-1.73-.81A1.9,1.9,0,0,0,478,102.52Z" fill="#fff"/>
        <path d="M478.71,117.67a1.51,1.51,0,0,1,2.4,0,1.65,1.65,0,0,1,.59,1.24,1.81,1.81,0,0,1-.59,1.15,1.86,1.86,0,0,1-1.14.59,1.65,1.65,0,0,1-1.24-.59A1.51,1.51,0,0,1,478.71,117.67Z" fill="#fff"/>
        <path d="M498,122.6a3.43,3.43,0,0,1-4.65.39l0,0a4.07,4.07,0,0,1,.83,2.51,3.49,3.49,0,0,1-1.3,2.51,4.69,4.69,0,0,1-2.37,1.21,4.82,4.82,0,0,1-2.73-.37,8.13,8.13,0,0,1-2.77-2,8.29,8.29,0,0,1-1.76-2.77,8,8,0,0,1-.45-3l2.32,0a7.21,7.21,0,0,0,.44,2.28,6.07,6.07,0,0,0,1.25,1.91,3.75,3.75,0,0,0,2.1,1.24,2.37,2.37,0,0,0,2.06-.68,2.2,2.2,0,0,0,.85-1.73,3.2,3.2,0,0,0-1-1.89l-1.74-1.87,1.72-1.59,1.48,1.6a3.13,3.13,0,0,0,1.76,1.09,2,2,0,0,0,1.73-.62,2.06,2.06,0,0,0,.76-1.68,3.22,3.22,0,0,0-1-2,6,6,0,0,0-3.61-1.83l.21-2.25a8.51,8.51,0,0,1,2.93.81,8.26,8.26,0,0,1,2.43,1.85,6.69,6.69,0,0,1,1.56,2.54,4.31,4.31,0,0,1,.14,2.42A3.88,3.88,0,0,1,498,122.6Z" fill="#fff"/>
        <path d="M507.65,134.25a3.48,3.48,0,0,1-2.23.87,3.67,3.67,0,0,1-2.22-.73l0,0a4,4,0,0,1,.65,2.69,3.77,3.77,0,0,1-1.45,2.37,3.88,3.88,0,0,1-3.63,1,6.91,6.91,0,0,1-3.44-2.46l-3.88-4.71,12.26-10.11,3.85,4.66a6.4,6.4,0,0,1,1.6,3.42A3.45,3.45,0,0,1,507.65,134.25Zm-8.89-3.33L495,134.05l1.73,2.09a4.06,4.06,0,0,0,1.91,1.41,2.57,2.57,0,0,0,3-2.31,3.65,3.65,0,0,0-1-2.12Zm5-4.13-3.39,2.8,1.7,2.06a3,3,0,0,0,1.68,1.15,2.13,2.13,0,0,0,1.75-.58,1.81,1.81,0,0,0,.8-1.55,3.53,3.53,0,0,0-.94-1.94Z" fill="#fff"/>
        <path d="M58.7,226.71l1.65.51-.68,2.21L58.11,229a9.26,9.26,0,0,1-1.23,2.31,7.14,7.14,0,0,1-1.63,1.53L54,231a6.56,6.56,0,0,0,1.32-1.38,6.31,6.31,0,0,0,.83-1.79q.91-2.94-1.07-3.55a1.69,1.69,0,0,0-1.11,0,2.27,2.27,0,0,0-.9.73A13.94,13.94,0,0,0,52,226.6a8.33,8.33,0,0,1-2.45,2.82,3.29,3.29,0,0,1-2.84.25,3.41,3.41,0,0,1-2.19-1.84,5.25,5.25,0,0,1-.35-3.17l-1.59-.49.68-2.21,1.57.48A8.46,8.46,0,0,1,47.42,219l1.26,1.7a9.76,9.76,0,0,0-1.31,1.5,6.2,6.2,0,0,0-.85,1.81c-.52,1.65-.22,2.65.88,3a1.5,1.5,0,0,0,1,0,2.18,2.18,0,0,0,.81-.67,12.62,12.62,0,0,0,1-1.56,8.38,8.38,0,0,1,2.52-3,3.64,3.64,0,0,1,3.14-.29,3.74,3.74,0,0,1,2.4,1.94A5.56,5.56,0,0,1,58.7,226.71Z" fill="#f7f5f5"/>
        <path d="M62.28,208.42l-.68,1.83,3.24,1.2-1,2.63-3.24-1.2-2.75,7.38-2-.76L48,211.15l1.08-2.91,7.67,8.11,1.6-4.3-3.83-1.42,1-2.65,3.83,1.42.68-1.83Z" fill="#f7f5f5"/>
        <path d="M65,207.28a1.49,1.49,0,0,1-.89-2.22,1.66,1.66,0,0,1,.92-1,1.83,1.83,0,0,1,1.28.12,1.79,1.79,0,0,1,1,.83,1.63,1.63,0,0,1-.08,1.37A1.49,1.49,0,0,1,65,207.28Z" fill="#f7f5f5"/>
        <path d="M61.23,199.35a10.65,10.65,0,0,1-5-4,5.12,5.12,0,0,1,0-5,5.19,5.19,0,0,1,3.86-3.19,10.58,10.58,0,0,1,6.29,1.25,10.6,10.6,0,0,1,5,4,5.23,5.23,0,0,1,0,5,5.17,5.17,0,0,1-3.85,3.16A10.76,10.76,0,0,1,61.23,199.35Zm3.89-8.3a10.58,10.58,0,0,0-4.35-1.25,2.74,2.74,0,0,0-2.05,4.37,10.63,10.63,0,0,0,3.75,2.53A10.6,10.6,0,0,0,66.82,198a2.8,2.8,0,0,0,2.06-4.39A10.71,10.71,0,0,0,65.12,191.05Z" fill="#f7f5f5"/>
        <path d="M69.41,174.23A3.47,3.47,0,0,1,71.06,176a3.68,3.68,0,0,1,.16,2.33l0,0a4,4,0,0,1,2.25-1.61,3.71,3.71,0,0,1,2.74.45,3.89,3.89,0,0,1,2.28,3,7,7,0,0,1-1,4.11l-2.9,5.38-14-7.55,2.86-5.32A6.4,6.4,0,0,1,66.09,174,3.44,3.44,0,0,1,69.41,174.23ZM64,180.63l3.87,2.09,1.27-2.35a2.91,2.91,0,0,0,.42-2A2.11,2.11,0,0,0,68.34,177a1.86,1.86,0,0,0-1.74-.15,3.59,3.59,0,0,0-1.44,1.6Zm5.71,3.08L74,186.05l1.29-2.39a4.18,4.18,0,0,0,.58-2.31,2.57,2.57,0,0,0-3.26-1.86A3.71,3.71,0,0,0,71,181.2Z" fill="#f7f5f5"/>
        <path d="M64.83,381.62l-1.66.5-.66-2.21,1.57-.47a8.91,8.91,0,0,1-.27-2.61,6.86,6.86,0,0,1,.49-2.18l2,.84a6.59,6.59,0,0,0-.33,1.88,6.47,6.47,0,0,0,.31,1.95q.89,3,2.86,2.35a1.64,1.64,0,0,0,.93-.61,2.24,2.24,0,0,0,.35-1.11,14.57,14.57,0,0,0,0-2,8.29,8.29,0,0,1,.47-3.71,3.27,3.27,0,0,1,2.21-1.79,3.44,3.44,0,0,1,2.85.3A5.3,5.3,0,0,1,78,375.23l1.59-.48.67,2.22-1.57.47a8.5,8.5,0,0,1-.23,4.29l-2-.71a9.8,9.8,0,0,0,.26-2,6.51,6.51,0,0,0-.3-2c-.5-1.67-1.3-2.33-2.41-2a1.47,1.47,0,0,0-.83.55,2.07,2.07,0,0,0-.31,1,15.26,15.26,0,0,0,0,1.86,8,8,0,0,1-.44,3.87,3.6,3.6,0,0,1-2.43,2,3.69,3.69,0,0,1-3.07-.27A5.49,5.49,0,0,1,64.83,381.62Z" fill="#f7f5f5"/>
        <path d="M67.84,387.5l2.19.94a7,7,0,0,0-.51,2.25,6.17,6.17,0,0,0,.42,2.24,3.47,3.47,0,0,0,1.56,2,3,3,0,0,0,4-1.28,2.93,2.93,0,0,0,0-2.2,6.83,6.83,0,0,0-1.65-2.56l-.65-1.82,8.31-3,3.28,9.2-2.29.81-2.34-6.57-3.7,1.32a7.66,7.66,0,0,1,1.47,2.59,5.41,5.41,0,0,1,.29,2.64,4.47,4.47,0,0,1-1,2.27,5.19,5.19,0,0,1-2.26,1.48,5.5,5.5,0,0,1-3,.26,5,5,0,0,1-2.54-1.42,7.74,7.74,0,0,1-1.76-2.93,8.54,8.54,0,0,1-.56-3.3A7.87,7.87,0,0,1,67.84,387.5Z" fill="#f7f5f5"/>
        <path d="M72.55,401.61a1.51,1.51,0,0,1,2.2,1,1.61,1.61,0,0,1,0,1.37,1.83,1.83,0,0,1-1,.82,1.81,1.81,0,0,1-1.28.09,1.61,1.61,0,0,1-.91-1A1.5,1.5,0,0,1,72.55,401.61Z" fill="#f7f5f5"/>
        <path d="M81.59,417.61l-.8-1.78-3.16,1.41-1.14-2.56,3.16-1.42-3.22-7.19,2-.89,11.44.46,1.27,2.83L80,408.07l1.87,4.18,3.73-1.67,1.16,2.59L83,414.84l.8,1.78Z" fill="#f7f5f5"/>
        <path d="M95.45,426a3.5,3.5,0,0,1-2.37.39,3.75,3.75,0,0,1-2-1.17l0,0A4,4,0,0,1,91.1,428a3.74,3.74,0,0,1-1.91,2,3.91,3.91,0,0,1-3.76.21,7,7,0,0,1-2.85-3.12l-2.82-5.42,14.09-7.34,2.79,5.35a6.28,6.28,0,0,1,.86,3.68A3.45,3.45,0,0,1,95.45,426Zm-8-5.1-4.36,2.27,1.25,2.41a4,4,0,0,0,1.58,1.77,2.56,2.56,0,0,0,3.37-1.64,3.65,3.65,0,0,0-.53-2.28Zm5.75-3-3.9,2,1.23,2.37a3,3,0,0,0,1.41,1.46,2.15,2.15,0,0,0,1.84-.19,1.88,1.88,0,0,0,1.1-1.36,3.58,3.58,0,0,0-.52-2.09Z" fill="#f7f5f5"/>
        <path d="M52.1,377.41l-.84.24L49.7,372.2l-4,1.15,1.37,4.77-.82.23-1.36-4.76-4.35,1.24,1.63,5.71-.86.25-1.93-6.74,10.89-3.12Z" fill="#f7f5f5"/>
        <path d="M47.76,380.44a14,14,0,0,0,1.64-.64l.3.94a7.21,7.21,0,0,1-1.25.5v0a3,3,0,0,1,1.44.74,3.46,3.46,0,0,1,.94,1.56,2.74,2.74,0,0,1-.16,2.42,3.35,3.35,0,0,1-1.9,1.38l-4.91,1.56-.31-1,4.72-1.5a2.86,2.86,0,0,0,1.51-1,2,2,0,0,0,.15-1.81,2.64,2.64,0,0,0-.76-1.21A2.43,2.43,0,0,0,48,381.8a3,3,0,0,0-1.41.12l-4.46,1.42-.32-1Z" fill="#f7f5f5"/>
        <path d="M54.2,394.14l-8.59-.2-.4-1.13,6.57-5.59.37,1.06L46.39,393v.05l7.44,0Z" fill="#f7f5f5"/>
        <path d="M55.05,396.39l-7.54,2.8-.36-1,7.54-2.81Zm2.28-2.19a.72.72,0,1,1-.41.93A.63.63,0,0,1,57.33,394.2Z" fill="#f7f5f5"/>
        <path d="M54.37,399.57a13.79,13.79,0,0,0,1.6-.75l.36.93a9.8,9.8,0,0,1-1.29.6v0a2.59,2.59,0,0,1,2.49,1.83,1.93,1.93,0,0,1,.12.42l-.85.28a2.17,2.17,0,0,0-.14-.45A2.23,2.23,0,0,0,55.23,401a3.44,3.44,0,0,0-2.25.19l-4.08,1.59-.38-1Z" fill="#f7f5f5"/>
        <path d="M57.08,412.09a5,5,0,0,1-2.23.43,3.48,3.48,0,0,1-1.92-.67,4.11,4.11,0,0,1-1.33-1.77,3.91,3.91,0,0,1-.33-2.18,3.46,3.46,0,0,1,.86-1.83A5.1,5.1,0,0,1,54,404.78a4.43,4.43,0,0,1,3.24-.25,3.69,3.69,0,0,1,2.2,2.24,3.78,3.78,0,0,1,.08,3.15A4.4,4.4,0,0,1,57.08,412.09Zm-2.67-6.32a4,4,0,0,0-2,1.63,2.55,2.55,0,0,0,0,2.35,2.58,2.58,0,0,0,1.72,1.65,4,4,0,0,0,2.58-.3,3.92,3.92,0,0,0,2-1.63,2.61,2.61,0,0,0,0-2.38,2.55,2.55,0,0,0-1.7-1.62A4,4,0,0,0,54.41,405.77Z" fill="#f7f5f5"/>
        <path d="M60.09,413.33a13.6,13.6,0,0,0,1.55-.85l.41.9a8.72,8.72,0,0,1-1.17.66v0a3,3,0,0,1,1.52.54A3.52,3.52,0,0,1,63.54,416a2.76,2.76,0,0,1,.15,2.42A3.37,3.37,0,0,1,62,420.07l-4.67,2.18-.44-.95,4.49-2.09A2.8,2.8,0,0,0,62.73,418a2,2,0,0,0-.08-1.81,2.58,2.58,0,0,0-.91-1.11,2.34,2.34,0,0,0-1.28-.41,2.82,2.82,0,0,0-1.38.29l-4.25,2-.44-.94Z" fill="#f7f5f5"/>
        <path d="M64.2,422.15a14,14,0,0,0,1.5-.92l.47.88a8.58,8.58,0,0,1-1.13.7v0a2.87,2.87,0,0,1,1.5.44,3.24,3.24,0,0,1,1.17,1.28,2.52,2.52,0,0,1-.4,3.22v0a2.94,2.94,0,0,1,1.73.35,3.2,3.2,0,0,1,1.27,1.35,2.69,2.69,0,0,1,.23,2.36A3.36,3.36,0,0,1,69,433.55L64.38,436,63.9,435l4.46-2.35a2.81,2.81,0,0,0,1.25-1.23,1.84,1.84,0,0,0-.12-1.72,2.27,2.27,0,0,0-1-1,2.63,2.63,0,0,0-1.39-.26,3.41,3.41,0,0,0-1.44.42L61.74,431l-.48-.91,4.43-2.34A2.9,2.9,0,0,0,67,426.47a1.8,1.8,0,0,0-.11-1.72,2.36,2.36,0,0,0-1-1,2.45,2.45,0,0,0-1.28-.31,3.1,3.1,0,0,0-1.36.38L59.13,426l-.49-.92Z" fill="#f7f5f5"/>
        <path d="M72.55,442.48l-3.17-5.32A3.59,3.59,0,0,0,67.87,439a2.56,2.56,0,0,0,.33,2.21,4.13,4.13,0,0,0,.88,1.07,4.78,4.78,0,0,0,1.15.71l-.34.75a5.48,5.48,0,0,1-1.35-.84,5.08,5.08,0,0,1-1.08-1.31,3.52,3.52,0,0,1-.44-3,4.65,4.65,0,0,1,2.17-2.47,5.16,5.16,0,0,1,2.1-.74,3.36,3.36,0,0,1,1.92.34,3.58,3.58,0,0,1,1.48,1.44,3.19,3.19,0,0,1,.38,2.85A4.61,4.61,0,0,1,73,442.27Zm.18-1.26a3.6,3.6,0,0,0,1.53-1.7,2.23,2.23,0,0,0-.27-2,2.35,2.35,0,0,0-1.71-1.23,3.48,3.48,0,0,0-2.21.48Z" fill="#f7f5f5"/>
        <path d="M76,443.11a13.58,13.58,0,0,0,1.41-1.05l.55.83a9.57,9.57,0,0,1-1.07.81v0a3,3,0,0,1,1.58.32,3.53,3.53,0,0,1,1.33,1.26,2.75,2.75,0,0,1,.49,2.37,3.36,3.36,0,0,1-1.46,1.84l-4.31,2.82-.57-.87,4.15-2.72a2.81,2.81,0,0,0,1.18-1.4,2,2,0,0,0-.34-1.79,2.77,2.77,0,0,0-1.06-1,2.43,2.43,0,0,0-1.33-.23,3,3,0,0,0-1.32.49l-3.93,2.57-.57-.87Z" fill="#f7f5f5"/>
        <path d="M83.57,451.18,84.86,453l-.66.46-1.28-1.82-4.28,3a1.17,1.17,0,0,0-.4,1.82,2.65,2.65,0,0,0,.59.61l-.55.58a3.32,3.32,0,0,1-.83-.84,2,2,0,0,1,.53-3l4.34-3.06-.85-1.21.55-.38,1,1.12,1.69-1.19.9.64Z" fill="#f7f5f5"/>
        <path d="M243.57,554.72l-2.75,11-1-.27,1.31-5.23-6.36-1.59-1.32,5.23-1.05-.27,2.75-11,1.06.26-1.23,4.89,6.36,1.59,1.23-4.88Z" fill="#f7f5f5"/>
        <path d="M251,564.14,245,562.86a3.6,3.6,0,0,0,.31,2.34,2.54,2.54,0,0,0,1.84,1.25,3.88,3.88,0,0,0,1.38.08,4.86,4.86,0,0,0,1.31-.36l.32.76a5.35,5.35,0,0,1-1.54.42,5.19,5.19,0,0,1-1.69-.09,3.52,3.52,0,0,1-2.52-1.74,4.61,4.61,0,0,1-.34-3.27,5.12,5.12,0,0,1,.88-2,3.44,3.44,0,0,1,1.55-1.19,3.67,3.67,0,0,1,2.07-.1,3.22,3.22,0,0,1,2.35,1.65,4.66,4.66,0,0,1,.27,3.12C251.14,563.79,251.09,563.94,251,564.14Zm-.81-1a3.51,3.51,0,0,0-.2-2.27,2.24,2.24,0,0,0-1.66-1.18,2.35,2.35,0,0,0-2.07.43,3.43,3.43,0,0,0-1.15,2Z" fill="#f7f5f5"/>
        <path d="M252.42,565.94A2.21,2.21,0,0,1,253.9,564a7.79,7.79,0,0,1,3.56,0c.37.07.65.12.85.17l.09-.51a1.84,1.84,0,0,0-1.75-2.37,5.07,5.07,0,0,0-1.33-.06,5.27,5.27,0,0,0-1.24.32l-.24-.76a5.13,5.13,0,0,1,3-.29,3.15,3.15,0,0,1,2.2,1.17,3.2,3.2,0,0,1,.34,2.43l-.59,3.34a14.29,14.29,0,0,0-.2,1.77l-.95-.17a11,11,0,0,1,.11-1.24h0a3.2,3.2,0,0,1-3.17.93,2.75,2.75,0,0,1-1.75-.94A2.25,2.25,0,0,1,252.42,565.94Zm5.54.24.22-1.23-.75-.15a9.74,9.74,0,0,0-2.1-.19,2.2,2.2,0,0,0-1.27.38,1.7,1.7,0,0,0-.58,1.09,1.53,1.53,0,0,0,.25,1.27,1.85,1.85,0,0,0,1.2.65,2.89,2.89,0,0,0,1.51-.1,2.39,2.39,0,0,0,1.05-.74A2.27,2.27,0,0,0,258,566.18Z" fill="#f7f5f5"/>
        <path d="M263.1,558.48l1,.15-1.7,11.2-1-.15Z" fill="#f7f5f5"/>
        <path d="M267.76,562.46l2.21.29-.11.79-2.2-.29-.69,5.2c-.12.91.24,1.42,1.07,1.53a2.34,2.34,0,0,0,.84,0l.06.79a3.31,3.31,0,0,1-1.18,0,2,2,0,0,1-1.83-2.42l.7-5.26-1.46-.2.09-.66,1.47.06.27-2,1.08-.23Z" fill="#f7f5f5"/>
        <path d="M272.23,559.73l1,.11-.46,4.57h0a2.85,2.85,0,0,1,1.19-1,3.44,3.44,0,0,1,1.8-.25,2.79,2.79,0,0,1,2.16,1.11,3.39,3.39,0,0,1,.5,2.3l-.51,5.12-1-.1.49-4.94a2.83,2.83,0,0,0-.35-1.79,2,2,0,0,0-1.6-.86,2.63,2.63,0,0,0-1.41.22,2.38,2.38,0,0,0-1,.89,3,3,0,0,0-.45,1.33l-.47,4.67-1-.11Z" fill="#f7f5f5"/>
        <path d="M510.13,463.28l.68.56-3.6,4.38,3.23,2.65,3.15-3.83.65.54-3.15,3.83,3.5,2.87,3.77-4.58.69.57-4.45,5.41-8.75-7.19Z" fill="#f7f5f5"/>
        <path d="M524.28,463.52l-.59.76a13,13,0,0,1-1.17-.76l0,0a3.09,3.09,0,0,1-.54,3.34,3.15,3.15,0,0,1-2.54,1.37,4.78,4.78,0,0,1-3-1.14,5,5,0,0,1-1.44-1.69,3.76,3.76,0,0,1-.42-2,3.45,3.45,0,0,1,.77-1.9,3.6,3.6,0,0,1,1.21-1.06,3.69,3.69,0,0,1,1.44-.41l-3.37-2.6.64-.83,7.56,5.84A15.6,15.6,0,0,0,524.28,463.52Zm-3.42-1.2-2.06-1.59a3.57,3.57,0,0,0-1.53.28,3,3,0,0,0-1.19,1,2.41,2.41,0,0,0-.49,2.19,4.5,4.5,0,0,0,3.89,3,2.36,2.36,0,0,0,1.95-1,2.71,2.71,0,0,0,.59-1.38,2.53,2.53,0,0,0-.23-1.38A3,3,0,0,0,520.86,462.32Z" fill="#f7f5f5"/>
        <path d="M523.3,459.6l-4-2.87.61-.85,3.87,2.79a3.21,3.21,0,0,0,1.87.69,1.9,1.9,0,0,0,1.57-.89,2.35,2.35,0,0,0,.48-1.4,2.88,2.88,0,0,0-.39-1.43,3.94,3.94,0,0,0-1.11-1.2L522.75,452l.61-.84,5.09,3.66a17.11,17.11,0,0,0,1.49,1l-.57.81c-.37-.2-.81-.48-1.31-.82l0,0a3,3,0,0,1-.26,3.4,2.71,2.71,0,0,1-2.06,1.28A3.8,3.8,0,0,1,523.3,459.6Z" fill="#f7f5f5"/>
        <path d="M526.63,445.89a4.81,4.81,0,0,1,1-1.07,3.67,3.67,0,0,1,1.21-.65l.36.76a3.54,3.54,0,0,0-1.84,1.44,2.56,2.56,0,0,0-.43,2.3,3.78,3.78,0,0,0,1.63,2,3.93,3.93,0,0,0,2.43.75,2.54,2.54,0,0,0,2-1.25,3.87,3.87,0,0,0,.65-2.26l.82.07a4.22,4.22,0,0,1-.16,1.4,4.45,4.45,0,0,1-.61,1.33,3.78,3.78,0,0,1-1.71,1.48,3.39,3.39,0,0,1-2,.18,5.22,5.22,0,0,1-2-.84,4.41,4.41,0,0,1-2-2.58A3.65,3.65,0,0,1,526.63,445.89Z" fill="#f7f5f5"/>
        <path d="M534,445.89a2.23,2.23,0,0,1-1.22-2.1,7.78,7.78,0,0,1,1.35-3.29l.47-.73-.43-.27a1.85,1.85,0,0,0-2.86.74,4.79,4.79,0,0,0-.55,1.21,5.13,5.13,0,0,0-.17,1.27l-.79-.07a5.17,5.17,0,0,1,.84-2.88,3.23,3.23,0,0,1,1.92-1.61,3.16,3.16,0,0,1,2.38.6l2.87,1.8a15.69,15.69,0,0,0,1.57.85l-.51.81a10.48,10.48,0,0,1-1.1-.56l0,0a3.21,3.21,0,0,1-.33,3.29,2.71,2.71,0,0,1-1.53,1.26A2.26,2.26,0,0,1,534,445.89Zm2.3-5.05-1.06-.67-.42.64a10.62,10.62,0,0,0-1,1.88,2.14,2.14,0,0,0-.11,1.32,1.72,1.72,0,0,0,.79.95,1.55,1.55,0,0,0,1.27.24,1.87,1.87,0,0,0,1-.87,2.88,2.88,0,0,0,.47-1.44,2.39,2.39,0,0,0-.28-1.24A2.25,2.25,0,0,0,536.25,440.84Z" fill="#f7f5f5"/>
        <path d="M534.47,433.83l1.13-1.92.68.41-1.12,1.91,4.52,2.66a1.17,1.17,0,0,0,1.83-.39,2.58,2.58,0,0,0,.31-.78l.75.26a3.24,3.24,0,0,1-.42,1.1,2,2,0,0,1-2.94.74l-4.58-2.69-.75,1.27-.58-.34.64-1.34-1.78-1,.21-1.09Z" fill="#f7f5f5"/>
        <path d="M533.93,429a.64.64,0,0,1-.25-1,.71.71,0,1,1,1.23.69A.64.64,0,0,1,533.93,429Zm3.14.32,7,3.94-.51.91-7-3.95Z" fill="#f7f5f5"/>
        <path d="M545.43,422.15a5.1,5.1,0,0,1,1.76,1.44,3.5,3.5,0,0,1,.69,1.91,4.09,4.09,0,0,1-.52,2.16,4,4,0,0,1-1.47,1.64,3.61,3.61,0,0,1-2,.5,5.08,5.08,0,0,1-2.19-.63,4.44,4.44,0,0,1-2.25-2.35,3.7,3.7,0,0,1,.34-3.12,3.76,3.76,0,0,1,2.38-2.06A4.41,4.41,0,0,1,545.43,422.15Zm-3.19,6.07a4,4,0,0,0,2.54.52,2.56,2.56,0,0,0,1.85-1.47,2.59,2.59,0,0,0,.18-2.37,4,4,0,0,0-1.88-1.8,3.87,3.87,0,0,0-2.52-.51,2.62,2.62,0,0,0-1.85,1.5,2.57,2.57,0,0,0-.17,2.35A4,4,0,0,0,542.24,428.22Z" fill="#f7f5f5"/>
        <path d="M544.47,419a13.3,13.3,0,0,0-1.64-.65l.42-.9a8.27,8.27,0,0,1,1.26.49v0a3,3,0,0,1-.55-1.52,3.5,3.5,0,0,1,.38-1.78,2.75,2.75,0,0,1,1.76-1.66,3.33,3.33,0,0,1,2.33.28l4.66,2.2-.44.94-4.49-2.12a2.79,2.79,0,0,0-1.8-.26,2,2,0,0,0-1.35,1.22,2.72,2.72,0,0,0-.27,1.4,2.46,2.46,0,0,0,.5,1.25,2.92,2.92,0,0,0,1.11.88l4.24,2-.44.94Z" fill="#f7f5f5"/>
        <path d="M232.58,541.5l-.48,1.66-2.22-.63.45-1.57a8.81,8.81,0,0,1-2.34-1.18,6.76,6.76,0,0,1-1.57-1.59l1.8-1.26a6.5,6.5,0,0,0,1.41,1.29,6.72,6.72,0,0,0,1.81.79c2,.56,3.15.17,3.52-1.15a1.67,1.67,0,0,0,0-1.11,2.25,2.25,0,0,0-.75-.89,14.63,14.63,0,0,0-1.67-1.05,8.4,8.4,0,0,1-2.87-2.38,3.32,3.32,0,0,1-.31-2.84,3.42,3.42,0,0,1,1.78-2.23,5.23,5.23,0,0,1,3.17-.42l.45-1.6L237,526l-.45,1.58a8.37,8.37,0,0,1,3.49,2.5l-1.67,1.3a9.62,9.62,0,0,0-1.53-1.28,6.47,6.47,0,0,0-1.82-.81c-1.68-.48-2.67-.16-3,1a1.45,1.45,0,0,0,0,1,2,2,0,0,0,.68.81,15.06,15.06,0,0,0,1.58,1,8.26,8.26,0,0,1,3,2.45,3.65,3.65,0,0,1,.36,3.13A3.71,3.71,0,0,1,235.8,541,5.5,5.5,0,0,1,232.58,541.5Z" fill="#f7f5f5"/>
        <path d="M239.15,542.14l2-1.35a7,7,0,0,0,1.63,1.64,6,6,0,0,0,2.11.86,3.51,3.51,0,0,0,2.53-.24,2.7,2.7,0,0,0,1.37-1.9,2.63,2.63,0,0,0-.3-2.16,2.86,2.86,0,0,0-1.86-1.17,6.64,6.64,0,0,0-3,0l-1.88-.44,2-8.59,9.52,2.19-.55,2.36-6.8-1.57-.88,3.83a8,8,0,0,1,3,.16A5.5,5.5,0,0,1,250.3,537a4.4,4.4,0,0,1,1.34,2.1,5.23,5.23,0,0,1,0,2.7,5.46,5.46,0,0,1-1.4,2.66,4.93,4.93,0,0,1-2.57,1.38,7.67,7.67,0,0,1-3.42-.09,8.58,8.58,0,0,1-3.07-1.31A8,8,0,0,1,239.15,542.14Z" fill="#f7f5f5"/>
        <path d="M253.58,545.77a1.5,1.5,0,0,1,2-1.34,1.6,1.6,0,0,1,1.18.7,2.08,2.08,0,0,1-.46,2.4,1.61,1.61,0,0,1-1.35.21A1.49,1.49,0,0,1,253.58,545.77Z" fill="#f7f5f5"/>
        <path d="M272,546.07a4,4,0,0,1-1.08,2.19,5,5,0,0,1-2.36,1.31,9.31,9.31,0,0,1-6.51-1,4.84,4.84,0,0,1-1.85-1.92,3.94,3.94,0,0,1-.38-2.39,4,4,0,0,1,1.14-2.4,6.52,6.52,0,0,1,2.65-1.37,4.69,4.69,0,0,1-1.65-1.78,3.82,3.82,0,0,1-.24-2.27,3.47,3.47,0,0,1,1-2,4.88,4.88,0,0,1,2.17-1.19,6.88,6.88,0,0,1,2.8-.12,7.34,7.34,0,0,1,2.65.89,4.56,4.56,0,0,1,1.73,1.7,3.49,3.49,0,0,1,.39,2.28q-.34,2.28-3.12,3.39a5.91,5.91,0,0,1,2.26,2A4.11,4.11,0,0,1,272,546.07Zm-2.93-.62a2.11,2.11,0,0,0-.82-2.17,12.47,12.47,0,0,0-1.56-1l-1-.57a4.06,4.06,0,0,0-2,1,3.16,3.16,0,0,0-.83,1.75,2.25,2.25,0,0,0,.56,2,3.73,3.73,0,0,0,2.2,1,3.67,3.67,0,0,0,2.38-.31A2.11,2.11,0,0,0,269,545.45Zm-4.5-8.44a2,2,0,0,0,.33,1.51,4.51,4.51,0,0,0,1.56,1.3l.84.44a5.08,5.08,0,0,0,1.63-1.1,2.54,2.54,0,0,0,.68-1.39,1.89,1.89,0,0,0-.48-1.67,3.16,3.16,0,0,0-3.6-.54A1.86,1.86,0,0,0,264.53,537Z" fill="#f7f5f5"/>
        <path d="M286.47,539.62a3.48,3.48,0,0,1-.94,2.21,3.79,3.79,0,0,1-2.08,1.07v0a4,4,0,0,1,2.36,1.43,3.73,3.73,0,0,1,.68,2.69,3.88,3.88,0,0,1-1.85,3.28,7,7,0,0,1-4.16.72l-6.09-.54,1.4-15.83,6,.53a6.42,6.42,0,0,1,3.56,1.26A3.42,3.42,0,0,1,286.47,539.62Zm-8.6,4-.44,4.9,2.71.24a4.12,4.12,0,0,0,2.34-.38,2.17,2.17,0,0,0,1-1.85,2.13,2.13,0,0,0-.61-1.88,3.69,3.69,0,0,0-2.2-.78Zm.57-6.47-.39,4.39,2.66.23a2.93,2.93,0,0,0,2-.39,2.16,2.16,0,0,0,.82-1.66,1.84,1.84,0,0,0-.55-1.66,3.58,3.58,0,0,0-2-.68Z" fill="#f7f5f5"/>
        <path d="M503.17,453.44l1.3,1.14-1.53,1.74-1.23-1.08a8.9,8.9,0,0,1-2.07,1.6,6.9,6.9,0,0,1-2.11.74l-.36-2.18a6.43,6.43,0,0,0,1.77-.72,6.17,6.17,0,0,0,1.49-1.28q2-2.31.48-3.68a1.64,1.64,0,0,0-1-.47,2.36,2.36,0,0,0-1.12.3,13.66,13.66,0,0,0-1.66,1.05,8.4,8.4,0,0,1-3.39,1.56,3.32,3.32,0,0,1-2.7-.93,3.4,3.4,0,0,1-1.24-2.58,5.14,5.14,0,0,1,1-3l-1.25-1.1,1.53-1.74,1.23,1.08a8.52,8.52,0,0,1,3.77-2.07l.45,2.07a9.59,9.59,0,0,0-1.82.83,6.42,6.42,0,0,0-1.52,1.3q-1.71,2-.42,3.09a1.48,1.48,0,0,0,.9.42,2,2,0,0,0,1-.27,12.32,12.32,0,0,0,1.56-1,8.22,8.22,0,0,1,3.52-1.67,3.63,3.63,0,0,1,3,1,3.72,3.72,0,0,1,1.39,2.75A5.47,5.47,0,0,1,503.17,453.44Z" fill="#f7f5f5"/>
        <path d="M512.51,436.67a4,4,0,0,1,1.36,2,5,5,0,0,1,0,2.71,8.48,8.48,0,0,1-1.59,3,8.2,8.2,0,0,1-2.5,2.18,4.76,4.76,0,0,1-2.59.64,4.28,4.28,0,0,1-3.76-3.05,6.42,6.42,0,0,1,.13-3,4.69,4.69,0,0,1-2.37.54,3.92,3.92,0,0,1-2.09-.93,3.49,3.49,0,0,1-1.24-1.92,5,5,0,0,1,.06-2.47,6.91,6.91,0,0,1,1.29-2.49,7.57,7.57,0,0,1,2.1-1.85,4.61,4.61,0,0,1,2.34-.65,3.5,3.5,0,0,1,2.16.8q1.82,1.44,1.38,4.4a5.78,5.78,0,0,1,2.87-.94A4,4,0,0,1,512.51,436.67ZM501,438.58a2.1,2.1,0,0,0,1.47.47,4.44,4.44,0,0,0,1.91-.71l.8-.5a5.2,5.2,0,0,0-.13-2,2.54,2.54,0,0,0-.87-1.28,1.94,1.94,0,0,0-1.69-.43,3.2,3.2,0,0,0-2.27,2.85A1.93,1.93,0,0,0,501,438.58Zm9.56.32a2.37,2.37,0,0,0-1.1-.53,2.42,2.42,0,0,0-1.18.16,10.77,10.77,0,0,0-1.67.84l-1,.63a3.9,3.9,0,0,0-.12,2.19,3,3,0,0,0,1.1,1.59,2.24,2.24,0,0,0,2,.52,3.66,3.66,0,0,0,2-1.42,3.59,3.59,0,0,0,.93-2.21A2.15,2.15,0,0,0,510.51,438.9Z" fill="#f7f5f5"/>
        <path d="M516.06,436.33a1.5,1.5,0,0,1-.34-2.38,1.6,1.6,0,0,1,1.13-.76,1.81,1.81,0,0,1,1.22.4,1.89,1.89,0,0,1,.76,1.05,1.6,1.6,0,0,1-.4,1.31A1.5,1.5,0,0,1,516.06,436.33Z" fill="#f7f5f5"/>
        <path d="M514.29,427.85A10.58,10.58,0,0,1,510,423.1a5.8,5.8,0,0,1,5-7.47,13.37,13.37,0,0,1,10.33,7,5.23,5.23,0,0,1-.75,4.95,5.16,5.16,0,0,1-4.29,2.52A10.58,10.58,0,0,1,514.29,427.85Zm5.12-7.59a10.71,10.71,0,0,0-4.1-1.92,2.75,2.75,0,0,0-2.7,4,14.69,14.69,0,0,0,7.41,5,2.81,2.81,0,0,0,2.72-4A10.66,10.66,0,0,0,519.41,420.26Z" fill="#f7f5f5"/>
        <path d="M524.69,404a3.54,3.54,0,0,1,1.58,1.8,3.77,3.77,0,0,1,.07,2.33l0,0a4,4,0,0,1,2.3-1.52,3.7,3.7,0,0,1,2.73.55,3.9,3.9,0,0,1,2.16,3.08,7,7,0,0,1-1.14,4.07l-3.11,5.26-13.69-8.09,3.08-5.2a6.32,6.32,0,0,1,2.67-2.67A3.44,3.44,0,0,1,524.69,404ZM519,410.18l3.79,2.24,1.36-2.3a3,3,0,0,0,.5-2,2.13,2.13,0,0,0-1.14-1.45,1.86,1.86,0,0,0-1.74-.22,3.56,3.56,0,0,0-1.49,1.54Zm5.59,3.3,4.23,2.5,1.38-2.34a4.07,4.07,0,0,0,.67-2.28,2.55,2.55,0,0,0-3.18-2A3.71,3.71,0,0,0,526,411Z" fill="#f7f5f5"/>
      </g>
    </g>
  </g>
</svg>
